<mxfile host="65bd71144e">
    <diagram id="F3PfzpVGAPhJiVW-Cxq2" name="Page-1">
        <mxGraphModel dx="542" dy="1359" grid="1" gridSize="10" guides="1" tooltips="1" connect="1" arrows="1" fold="1" page="1" pageScale="1" pageWidth="850" pageHeight="1100" math="0" shadow="0">
            <root>
                <mxCell id="0"/>
                <mxCell id="1" parent="0"/>
                <UserObject label="" mermaidData="{&#10;  &quot;data&quot;: &quot;flowchart TD\n    A[User Prompt Input] --&gt; B[Preprocessing]\n    B --&gt; C[Tokenization]\n    C --&gt; D[Model Inference]\n    D --&gt; E[Postprocessing]\n    E --&gt; F[Generate Output]\n    F --&gt; G[ChatGPT Output]\n\n    subgraph Preprocessing\n        B1[Text Normalization]\n        B2[Removing Special Characters]\n        B --&gt; B1\n        B --&gt; B2\n    end\n\n    subgraph Tokenization\n        C1[Convert Text to Tokens]\n        C --&gt; C1\n    end\n\n    subgraph Model Inference\n        D1[Input Tokens to Model]\n        D2[Context Understanding]\n        D --&gt; D1\n        D --&gt; D2\n    end\n\n    subgraph Postprocessing\n        E1[Convert Tokens to Text]\n        E2[Grammar and Spelling Check]\n        E --&gt; E1\n        E --&gt; E2\n    end\n\n    A --&gt; B\n    F --&gt; G\n&quot;,&#10;  &quot;config&quot;: {&#10;    &quot;theme&quot;: &quot;neutral&quot;,&#10;    &quot;arrowMarkerAbsolute&quot;: false,&#10;    &quot;flowchart&quot;: {&#10;      &quot;htmlLabels&quot;: false&#10;    },&#10;    &quot;sequence&quot;: {&#10;      &quot;diagramMarginX&quot;: 50,&#10;      &quot;diagramMarginY&quot;: 10,&#10;      &quot;actorMargin&quot;: 50,&#10;      &quot;width&quot;: 150,&#10;      &quot;height&quot;: 65,&#10;      &quot;boxMargin&quot;: 10,&#10;      &quot;boxTextMargin&quot;: 5,&#10;      &quot;noteMargin&quot;: 10,&#10;      &quot;messageMargin&quot;: 35,&#10;      &quot;mirrorActors&quot;: true,&#10;      &quot;bottomMarginAdj&quot;: 1,&#10;      &quot;useMaxWidth&quot;: true,&#10;      &quot;rightAngles&quot;: false,&#10;      &quot;showSequenceNumbers&quot;: false&#10;    },&#10;    &quot;gantt&quot;: {&#10;      &quot;titleTopMargin&quot;: 25,&#10;      &quot;barHeight&quot;: 20,&#10;      &quot;barGap&quot;: 4,&#10;      &quot;topPadding&quot;: 50,&#10;      &quot;leftPadding&quot;: 75,&#10;      &quot;gridLineStartPadding&quot;: 35,&#10;      &quot;fontSize&quot;: 11,&#10;      &quot;fontFamily&quot;: &quot;\&quot;Open-Sans\&quot;, \&quot;sans-serif\&quot;&quot;,&#10;      &quot;numberSectionStyles&quot;: 4,&#10;      &quot;axisFormat&quot;: &quot;%Y-%m-%d&quot;&#10;    }&#10;  }&#10;}" id="2">
                    <mxCell style="shape=image;noLabel=1;verticalAlign=top;imageAspect=1;image=data:image/svg+xml,PHN2ZyB2aWV3Qm94PSIwIDAgMTgxMC4wMDc4MTI1IDc1NCIgc3R5bGU9Im1heC13aWR0aDogMTgxMC4wMDc4MTI1cHg7IiBoZWlnaHQ9Ijc1NCIgYXJpYS1sYWJlbGxlZGJ5PSJjaGFydC10aXRsZS1nZU1lcm1haWRPdXRwdXQtMTcyNTk5MjIyNDA2NSBjaGFydC1kZXNjLWdlTWVybWFpZE91dHB1dC0xNzI1OTkyMjI0MDY1IiByb2xlPSJpbWciIHhtbG5zOnhsaW5rPSJodHRwOi8vd3d3LnczLm9yZy8xOTk5L3hsaW5rIiB4bWxucz0iaHR0cDovL3d3dy53My5vcmcvMjAwMC9zdmciIHdpZHRoPSIxMDAlIiBpZD0iZ2VNZXJtYWlkT3V0cHV0LTE3MjU5OTIyMjQwNjUiPjx0aXRsZSBpZD0iY2hhcnQtdGl0bGUtZ2VNZXJtYWlkT3V0cHV0LTE3MjU5OTIyMjQwNjUiPjwvdGl0bGU+PGRlc2MgaWQ9ImNoYXJ0LWRlc2MtZ2VNZXJtYWlkT3V0cHV0LTE3MjU5OTIyMjQwNjUiPjwvZGVzYz48c3R5bGU+I2dlTWVybWFpZE91dHB1dC0xNzI1OTkyMjI0MDY1IHtmb250LWZhbWlseToidHJlYnVjaGV0IG1zIix2ZXJkYW5hLGFyaWFsLHNhbnMtc2VyaWY7Zm9udC1zaXplOjE2cHg7ZmlsbDojMDAwMDAwO30jZ2VNZXJtYWlkT3V0cHV0LTE3MjU5OTIyMjQwNjUgLmVycm9yLWljb257ZmlsbDojNTUyMjIyO30jZ2VNZXJtYWlkT3V0cHV0LTE3MjU5OTIyMjQwNjUgLmVycm9yLXRleHR7ZmlsbDojNTUyMjIyO3N0cm9rZTojNTUyMjIyO30jZ2VNZXJtYWlkT3V0cHV0LTE3MjU5OTIyMjQwNjUgLmVkZ2UtdGhpY2tuZXNzLW5vcm1hbHtzdHJva2Utd2lkdGg6MnB4O30jZ2VNZXJtYWlkT3V0cHV0LTE3MjU5OTIyMjQwNjUgLmVkZ2UtdGhpY2tuZXNzLXRoaWNre3N0cm9rZS13aWR0aDozLjVweDt9I2dlTWVybWFpZE91dHB1dC0xNzI1OTkyMjI0MDY1IC5lZGdlLXBhdHRlcm4tc29saWR7c3Ryb2tlLWRhc2hhcnJheTowO30jZ2VNZXJtYWlkT3V0cHV0LTE3MjU5OTIyMjQwNjUgLmVkZ2UtcGF0dGVybi1kYXNoZWR7c3Ryb2tlLWRhc2hhcnJheTozO30jZ2VNZXJtYWlkT3V0cHV0LTE3MjU5OTIyMjQwNjUgLmVkZ2UtcGF0dGVybi1kb3R0ZWR7c3Ryb2tlLWRhc2hhcnJheToyO30jZ2VNZXJtYWlkT3V0cHV0LTE3MjU5OTIyMjQwNjUgLm1hcmtlcntmaWxsOiM2NjY7c3Ryb2tlOiM2NjY7fSNnZU1lcm1haWRPdXRwdXQtMTcyNTk5MjIyNDA2NSAubWFya2VyLmNyb3Nze3N0cm9rZTojNjY2O30jZ2VNZXJtYWlkT3V0cHV0LTE3MjU5OTIyMjQwNjUgc3Zne2ZvbnQtZmFtaWx5OiJ0cmVidWNoZXQgbXMiLHZlcmRhbmEsYXJpYWwsc2Fucy1zZXJpZjtmb250LXNpemU6MTZweDt9I2dlTWVybWFpZE91dHB1dC0xNzI1OTkyMjI0MDY1IC5sYWJlbHtmb250LWZhbWlseToidHJlYnVjaGV0IG1zIix2ZXJkYW5hLGFyaWFsLHNhbnMtc2VyaWY7Y29sb3I6IzAwMDAwMDt9I2dlTWVybWFpZE91dHB1dC0xNzI1OTkyMjI0MDY1IC5jbHVzdGVyLWxhYmVsIHRleHR7ZmlsbDojMzMzO30jZ2VNZXJtYWlkT3V0cHV0LTE3MjU5OTIyMjQwNjUgLmNsdXN0ZXItbGFiZWwgc3Bhbntjb2xvcjojMzMzO30jZ2VNZXJtYWlkT3V0cHV0LTE3MjU5OTIyMjQwNjUgLmxhYmVsIHRleHQsI2dlTWVybWFpZE91dHB1dC0xNzI1OTkyMjI0MDY1IHNwYW57ZmlsbDojMDAwMDAwO2NvbG9yOiMwMDAwMDA7fSNnZU1lcm1haWRPdXRwdXQtMTcyNTk5MjIyNDA2NSAubm9kZSByZWN0LCNnZU1lcm1haWRPdXRwdXQtMTcyNTk5MjIyNDA2NSAubm9kZSBjaXJjbGUsI2dlTWVybWFpZE91dHB1dC0xNzI1OTkyMjI0MDY1IC5ub2RlIGVsbGlwc2UsI2dlTWVybWFpZE91dHB1dC0xNzI1OTkyMjI0MDY1IC5ub2RlIHBvbHlnb24sI2dlTWVybWFpZE91dHB1dC0xNzI1OTkyMjI0MDY1IC5ub2RlIHBhdGh7ZmlsbDojZWVlO3N0cm9rZTojOTk5O3N0cm9rZS13aWR0aDoxcHg7fSNnZU1lcm1haWRPdXRwdXQtMTcyNTk5MjIyNDA2NSAubm9kZSAubGFiZWx7dGV4dC1hbGlnbjpjZW50ZXI7fSNnZU1lcm1haWRPdXRwdXQtMTcyNTk5MjIyNDA2NSAubm9kZS5jbGlja2FibGV7Y3Vyc29yOnBvaW50ZXI7fSNnZU1lcm1haWRPdXRwdXQtMTcyNTk5MjIyNDA2NSAuYXJyb3doZWFkUGF0aHtmaWxsOiMzMzMzMzM7fSNnZU1lcm1haWRPdXRwdXQtMTcyNTk5MjIyNDA2NSAuZWRnZVBhdGggLnBhdGh7c3Ryb2tlOiM2NjY7c3Ryb2tlLXdpZHRoOjIuMHB4O30jZ2VNZXJtYWlkT3V0cHV0LTE3MjU5OTIyMjQwNjUgLmZsb3djaGFydC1saW5re3N0cm9rZTojNjY2O2ZpbGw6bm9uZTt9I2dlTWVybWFpZE91dHB1dC0xNzI1OTkyMjI0MDY1IC5lZGdlTGFiZWx7YmFja2dyb3VuZC1jb2xvcjp3aGl0ZTt0ZXh0LWFsaWduOmNlbnRlcjt9I2dlTWVybWFpZE91dHB1dC0xNzI1OTkyMjI0MDY1IC5lZGdlTGFiZWwgcmVjdHtvcGFjaXR5OjAuNTtiYWNrZ3JvdW5kLWNvbG9yOndoaXRlO2ZpbGw6d2hpdGU7fSNnZU1lcm1haWRPdXRwdXQtMTcyNTk5MjIyNDA2NSAuY2x1c3RlciByZWN0e2ZpbGw6aHNsKDAsIDAlLCA5OC45MjE1Njg2Mjc1JSk7c3Ryb2tlOiM3MDcwNzA7c3Ryb2tlLXdpZHRoOjFweDt9I2dlTWVybWFpZE91dHB1dC0xNzI1OTkyMjI0MDY1IC5jbHVzdGVyIHRleHR7ZmlsbDojMzMzO30jZ2VNZXJtYWlkT3V0cHV0LTE3MjU5OTIyMjQwNjUgLmNsdXN0ZXIgc3Bhbntjb2xvcjojMzMzO30jZ2VNZXJtYWlkT3V0cHV0LTE3MjU5OTIyMjQwNjUgZGl2Lm1lcm1haWRUb29sdGlwe3Bvc2l0aW9uOmFic29sdXRlO3RleHQtYWxpZ246Y2VudGVyO21heC13aWR0aDoyMDBweDtwYWRkaW5nOjJweDtmb250LWZhbWlseToidHJlYnVjaGV0IG1zIix2ZXJkYW5hLGFyaWFsLHNhbnMtc2VyaWY7Zm9udC1zaXplOjEycHg7YmFja2dyb3VuZDpoc2woLTE2MCwgMCUsIDkzLjMzMzMzMzMzMzMlKTtib3JkZXI6MXB4IHNvbGlkICM3MDcwNzA7Ym9yZGVyLXJhZGl1czoycHg7cG9pbnRlci1ldmVudHM6bm9uZTt6LWluZGV4OjEwMDt9I2dlTWVybWFpZE91dHB1dC0xNzI1OTkyMjI0MDY1IDpyb290ey0tbWVybWFpZC1mb250LWZhbWlseToidHJlYnVjaGV0IG1zIix2ZXJkYW5hLGFyaWFsLHNhbnMtc2VyaWY7fTwvc3R5bGU+PGcgdHJhbnNmb3JtPSJ0cmFuc2xhdGUoMCwgMCkiPjxtYXJrZXIgb3JpZW50PSJhdXRvIiBtYXJrZXJIZWlnaHQ9IjEyIiBtYXJrZXJXaWR0aD0iMTIiIG1hcmtlclVuaXRzPSJ1c2VyU3BhY2VPblVzZSIgcmVmWT0iNSIgcmVmWD0iOSIgdmlld0JveD0iMCAwIDEwIDEwIiBjbGFzcz0ibWFya2VyIGZsb3djaGFydCIgaWQ9ImZsb3djaGFydC1wb2ludEVuZCI+PHBhdGggc3R5bGU9InN0cm9rZS13aWR0aDogMTsgc3Ryb2tlLWRhc2hhcnJheTogMSwgMDsiIGNsYXNzPSJhcnJvd01hcmtlclBhdGgiIGQ9Ik0gMCAwIEwgMTAgNSBMIDAgMTAgeiI+PC9wYXRoPjwvbWFya2VyPjxtYXJrZXIgb3JpZW50PSJhdXRvIiBtYXJrZXJIZWlnaHQ9IjEyIiBtYXJrZXJXaWR0aD0iMTIiIG1hcmtlclVuaXRzPSJ1c2VyU3BhY2VPblVzZSIgcmVmWT0iNSIgcmVmWD0iMCIgdmlld0JveD0iMCAwIDEwIDEwIiBjbGFzcz0ibWFya2VyIGZsb3djaGFydCIgaWQ9ImZsb3djaGFydC1wb2ludFN0YXJ0Ij48cGF0aCBzdHlsZT0ic3Ryb2tlLXdpZHRoOiAxOyBzdHJva2UtZGFzaGFycmF5OiAxLCAwOyIgY2xhc3M9ImFycm93TWFya2VyUGF0aCIgZD0iTSAwIDUgTCAxMCAxMCBMIDEwIDAgeiI+PC9wYXRoPjwvbWFya2VyPjxtYXJrZXIgb3JpZW50PSJhdXRvIiBtYXJrZXJIZWlnaHQ9IjExIiBtYXJrZXJXaWR0aD0iMTEiIG1hcmtlclVuaXRzPSJ1c2VyU3BhY2VPblVzZSIgcmVmWT0iNSIgcmVmWD0iMTEiIHZpZXdCb3g9IjAgMCAxMCAxMCIgY2xhc3M9Im1hcmtlciBmbG93Y2hhcnQiIGlkPSJmbG93Y2hhcnQtY2lyY2xlRW5kIj48Y2lyY2xlIHN0eWxlPSJzdHJva2Utd2lkdGg6IDE7IHN0cm9rZS1kYXNoYXJyYXk6IDEsIDA7IiBjbGFzcz0iYXJyb3dNYXJrZXJQYXRoIiByPSI1IiBjeT0iNSIgY3g9IjUiPjwvY2lyY2xlPjwvbWFya2VyPjxtYXJrZXIgb3JpZW50PSJhdXRvIiBtYXJrZXJIZWlnaHQ9IjExIiBtYXJrZXJXaWR0aD0iMTEiIG1hcmtlclVuaXRzPSJ1c2VyU3BhY2VPblVzZSIgcmVmWT0iNSIgcmVmWD0iLTEiIHZpZXdCb3g9IjAgMCAxMCAxMCIgY2xhc3M9Im1hcmtlciBmbG93Y2hhcnQiIGlkPSJmbG93Y2hhcnQtY2lyY2xlU3RhcnQiPjxjaXJjbGUgc3R5bGU9InN0cm9rZS13aWR0aDogMTsgc3Ryb2tlLWRhc2hhcnJheTogMSwgMDsiIGNsYXNzPSJhcnJvd01hcmtlclBhdGgiIHI9IjUiIGN5PSI1IiBjeD0iNSI+PC9jaXJjbGU+PC9tYXJrZXI+PG1hcmtlciBvcmllbnQ9ImF1dG8iIG1hcmtlckhlaWdodD0iMTEiIG1hcmtlcldpZHRoPSIxMSIgbWFya2VyVW5pdHM9InVzZXJTcGFjZU9uVXNlIiByZWZZPSI1LjIiIHJlZlg9IjEyIiB2aWV3Qm94PSIwIDAgMTEgMTEiIGNsYXNzPSJtYXJrZXIgY3Jvc3MgZmxvd2NoYXJ0IiBpZD0iZmxvd2NoYXJ0LWNyb3NzRW5kIj48cGF0aCBzdHlsZT0ic3Ryb2tlLXdpZHRoOiAyOyBzdHJva2UtZGFzaGFycmF5OiAxLCAwOyIgY2xhc3M9ImFycm93TWFya2VyUGF0aCIgZD0iTSAxLDEgbCA5LDkgTSAxMCwxIGwgLTksOSI+PC9wYXRoPjwvbWFya2VyPjxtYXJrZXIgb3JpZW50PSJhdXRvIiBtYXJrZXJIZWlnaHQ9IjExIiBtYXJrZXJXaWR0aD0iMTEiIG1hcmtlclVuaXRzPSJ1c2VyU3BhY2VPblVzZSIgcmVmWT0iNS4yIiByZWZYPSItMSIgdmlld0JveD0iMCAwIDExIDExIiBjbGFzcz0ibWFya2VyIGNyb3NzIGZsb3djaGFydCIgaWQ9ImZsb3djaGFydC1jcm9zc1N0YXJ0Ij48cGF0aCBzdHlsZT0ic3Ryb2tlLXdpZHRoOiAyOyBzdHJva2UtZGFzaGFycmF5OiAxLCAwOyIgY2xhc3M9ImFycm93TWFya2VyUGF0aCIgZD0iTSAxLDEgbCA5LDkgTSAxMCwxIGwgLTksOSI+PC9wYXRoPjwvbWFya2VyPjxnIGNsYXNzPSJyb290Ij48ZyBjbGFzcz0iY2x1c3RlcnMiPjxnIGlkPSJQb3N0cHJvY2Vzc2luZyIgY2xhc3M9ImNsdXN0ZXIgZGVmYXVsdCI+PHJlY3QgaGVpZ2h0PSIxOTMiIHdpZHRoPSI1MjEiIHk9IjQ2OSIgeD0iOCIgcnk9IjAiIHJ4PSIwIiBzdHlsZT0iIj48L3JlY3Q+PGcgdHJhbnNmb3JtPSJ0cmFuc2xhdGUoMjE2LjM4MjgxMjUsIDQ3NCkiIGNsYXNzPSJjbHVzdGVyLWxhYmVsIj48dGV4dCBzdHlsZT0iIj48dHNwYW4gY2xhc3M9InJvdyIgeD0iMCIgZHk9IjFlbSIgeG1sOnNwYWNlPSJwcmVzZXJ2ZSI+UG9zdHByb2Nlc3Npbmc8L3RzcGFuPjwvdGV4dD48L2c+PC9nPjxnIGlkPSJzdWJHcmFwaDIiIGNsYXNzPSJjbHVzdGVyIGRlZmF1bHQiPjxyZWN0IGhlaWdodD0iMjE4IiB3aWR0aD0iNDcxLjExNzE4NzUiIHk9IjMzNSIgeD0iNTQ5IiByeT0iMCIgcng9IjAiIHN0eWxlPSIiPjwvcmVjdD48ZyB0cmFuc2Zvcm09InRyYW5zbGF0ZSg3MjYuMjc3MzQzNzUsIDM0MCkiIGNsYXNzPSJjbHVzdGVyLWxhYmVsIj48dGV4dCBzdHlsZT0iIj48dHNwYW4gY2xhc3M9InJvdyIgeD0iMCIgZHk9IjFlbSIgeG1sOnNwYWNlPSJwcmVzZXJ2ZSI+TW9kZWwgSW5mZXJlbmNlPC90c3Bhbj48L3RleHQ+PC9nPjwvZz48ZyBpZD0iVG9rZW5pemF0aW9uIiBjbGFzcz0iY2x1c3RlciBkZWZhdWx0Ij48cmVjdCBoZWlnaHQ9IjIxOCIgd2lkdGg9IjI0OC42NDA2MjUiIHk9IjIwMSIgeD0iMTA0MC4xMTcxODc1IiByeT0iMCIgcng9IjAiIHN0eWxlPSIiPjwvcmVjdD48ZyB0cmFuc2Zvcm09InRyYW5zbGF0ZSgxMTE4LjY5OTIxODc1LCAyMDYpIiBjbGFzcz0iY2x1c3Rlci1sYWJlbCI+PHRleHQgc3R5bGU9IiI+PHRzcGFuIGNsYXNzPSJyb3ciIHg9IjAiIGR5PSIxZW0iIHhtbDpzcGFjZT0icHJlc2VydmUiPlRva2VuaXphdGlvbjwvdHNwYW4+PC90ZXh0PjwvZz48L2c+PGcgaWQ9IlByZXByb2Nlc3NpbmciIGNsYXNzPSJjbHVzdGVyIGRlZmF1bHQiPjxyZWN0IGhlaWdodD0iMTkzIiB3aWR0aD0iNDkzLjI1IiB5PSI5MiIgeD0iMTMwOC43NTc4MTI1IiByeT0iMCIgcng9IjAiIHN0eWxlPSIiPjwvcmVjdD48ZyB0cmFuc2Zvcm09InRyYW5zbGF0ZSgxNTA2LjQ5MjE4NzUsIDk3KSIgY2xhc3M9ImNsdXN0ZXItbGFiZWwiPjx0ZXh0IHN0eWxlPSIiPjx0c3BhbiBjbGFzcz0icm93IiB4PSIwIiBkeT0iMWVtIiB4bWw6c3BhY2U9InByZXNlcnZlIj5QcmVwcm9jZXNzaW5nPC90c3Bhbj48L3RleHQ+PC9nPjwvZz48L2c+PGcgY2xhc3M9ImVkZ2VQYXRocyI+PHBhdGggbWFya2VyLWVuZD0idXJsKCNmbG93Y2hhcnQtcG9pbnRFbmQpIiBzdHlsZT0iZmlsbDpub25lOyIgY2xhc3M9ImVkZ2UtdGhpY2tuZXNzLW5vcm1hbCBlZGdlLXBhdHRlcm4tc29saWQgZmxvd2NoYXJ0LWxpbmsgTFMtQSBMRS1CIiBpZD0iTC1BLUItMCIgZD0iTTE0MDEuMzI0ODY5NzkxNjY2Nyw0MkwxMzk2Ljg0NjI0NTY1OTcyMjQsNDYuMTY2NjY2NjY2NjY2NjY0QzEzOTIuMzY3NjIxNTI3Nzc4LDUwLjMzMzMzMzMzMzMzMzMzNiwxMzgzLjQxMDM3MzI2Mzg4OSw1OC42NjY2NjY2NjY2NjY2NjQsMTM3OC45MzE3NDkxMzE5NDQ2LDY3QzEzNzQuNDUzMTI1LDc1LjMzMzMzMzMzMzMzMzMzLDEzNzQuNDUzMTI1LDgzLjY2NjY2NjY2NjY2NjY3LDEzNzguOTMxNzQ5MTMxOTQ0Myw5MkMxMzgzLjQxMDM3MzI2Mzg4OSwxMDAuMzMzMzMzMzMzMzMzMzMsMTM5Mi4zNjc2MjE1Mjc3NzgsMTA4LjY2NjY2NjY2NjY2NjY3LDEzOTYuODQ2MjQ1NjU5NzIyNCwxMTIuODMzMzMzMzMzMzMzMzNMMTQwMS4zMjQ4Njk3OTE2NjY3LDExNyI+PC9wYXRoPjxwYXRoIG1hcmtlci1lbmQ9InVybCgjZmxvd2NoYXJ0LXBvaW50RW5kKSIgc3R5bGU9ImZpbGw6bm9uZTsiIGNsYXNzPSJlZGdlLXRoaWNrbmVzcy1ub3JtYWwgZWRnZS1wYXR0ZXJuLXNvbGlkIGZsb3djaGFydC1saW5rIExTLUIgTEUtQyIgaWQ9IkwtQi1DLTAiIGQ9Ik0xMzk3LjE2NTc4MzExMDExOSwxNTFMMTM5MS42Njc3NzQ5ODc1OTkyLDE1NS4xNjY2NjY2NjY2NjY2NkMxMzg2LjE2OTc2Njg2NTA3OTUsMTU5LjMzMzMzMzMzMzMzMzM0LDEzNzUuMTczNzUwNjIwMDM5OCwxNjcuNjY2NjY2NjY2NjY2NjYsMTM2OS42NzU3NDI0OTc1MTk2LDE3NkMxMzY0LjE3NzczNDM3NSwxODQuMzMzMzMzMzMzMzMzMzQsMTM2NC4xNzc3MzQzNzUsMTkyLjY2NjY2NjY2NjY2NjY2LDEzMzguMDk0MDc1NTIwODMzMywyMDIuMDU2NTI2MDg0NzgzN0MxMzEyLjAxMDQxNjY2NjY2NjcsMjExLjQ0NjM4NTUwMjkwMDc0LDEyNTkuODQzMDk4OTU4MzMzMywyMjEuODkyNzcxMDA1ODAxNDUsMTIzMy43NTk0NDAxMDQxNjY3LDIyNy4xMTU5NjM3NTcyNTE4MkwxMjA3LjY3NTc4MTI1LDIzMi4zMzkxNTY1MDg3MDIxNiI+PC9wYXRoPjxwYXRoIG1hcmtlci1lbmQ9InVybCgjZmxvd2NoYXJ0LXBvaW50RW5kKSIgc3R5bGU9ImZpbGw6bm9uZTsiIGNsYXNzPSJlZGdlLXRoaWNrbmVzcy1ub3JtYWwgZWRnZS1wYXR0ZXJuLXNvbGlkIGZsb3djaGFydC1saW5rIExTLUMgTEUtRCIgaWQ9IkwtQy1ELTAiIGQ9Ik0xMTMzLjMyNTA1NTgwMzU3MTMsMjYwTDExMjguMTUwNDM3MTI3OTc2MSwyNjQuMTY2NjY2NjY2NjY2N0MxMTIyLjk3NTgxODQ1MjM4MSwyNjguMzMzMzMzMzMzMzMzMywxMTEyLjYyNjU4MTEwMTE5MDYsMjc2LjY2NjY2NjY2NjY2NjcsMTEwNy40NTE5NjI0MjU1OTUyLDI4NUMxMTAyLjI3NzM0Mzc1LDI5My4zMzMzMzMzMzMzMzMzLDExMDIuMjc3MzQzNzUsMzAxLjY2NjY2NjY2NjY2NjcsMTEwMi4yNzczNDM3NSwzMTBDMTEwMi4yNzczNDM3NSwzMTguMzMzMzMzMzMzMzMzMywxMTAyLjI3NzM0Mzc1LDMyNi42NjY2NjY2NjY2NjY3LDEwNDEuMTc1NzgxMjUsMzM2Ljc2ODM5NjM5MTE4NzU0Qzk4MC4wNzQyMTg3NSwzNDYuODcwMTI2MTE1NzA4NDQsODU3Ljg3MTA5Mzc1LDM1OC43NDAyNTIyMzE0MTY5LDc5Ni43Njk1MzEyNSwzNjQuNjc1MzE1Mjg5MjcxMUw3MzUuNjY3OTY4NzUsMzcwLjYxMDM3ODM0NzEyNTMzIj48L3BhdGg+PHBhdGggbWFya2VyLWVuZD0idXJsKCNmbG93Y2hhcnQtcG9pbnRFbmQpIiBzdHlsZT0iZmlsbDpub25lOyIgY2xhc3M9ImVkZ2UtdGhpY2tuZXNzLW5vcm1hbCBlZGdlLXBhdHRlcm4tc29saWQgZmxvd2NoYXJ0LWxpbmsgTFMtRCBMRS1FIiBpZD0iTC1ELUUtMCIgZD0iTTY0NS40MjE1NDk0NzkxNjY2LDM5NEw2MzkuNDI1MTg0NDYxODA1NSwzOTguMTY2NjY2NjY2NjY2N0M2MzMuNDI4ODE5NDQ0NDQ0NSw0MDIuMzMzMzMzMzMzMzMzMyw2MjEuNDM2MDg5NDA5NzIyMiw0MTAuNjY2NjY2NjY2NjY2Nyw2MTUuNDM5NzI0MzkyMzYxMSw0MTlDNjA5LjQ0MzM1OTM3NSw0MjcuMzMzMzMzMzMzMzMzMyw2MDkuNDQzMzU5Mzc1LDQzNS42NjY2NjY2NjY2NjY3LDYwOS40NDMzNTkzNzUsNDQ0QzYwOS40NDMzNTkzNzUsNDUyLjMzMzMzMzMzMzMzMzMsNjA5LjQ0MzM1OTM3NSw0NjAuNjY2NjY2NjY2NjY2Nyw1ODEuNjIwMTE3MTg3NSw0NjkuOTkxMzIwMTc3ODIwN0M1NTMuNzk2ODc1LDQ3OS4zMTU5NzM2ODg5NzQ3NCw0OTguMTUwMzkwNjI1LDQ4OS42MzE5NDczNzc5NDk1LDQ3MC4zMjcxNDg0Mzc1LDQ5NC43ODk5MzQyMjI0MzY4NEw0NDIuNTAzOTA2MjUsNDk5Ljk0NzkyMTA2NjkyNDE1Ij48L3BhdGg+PHBhdGggbWFya2VyLWVuZD0idXJsKCNmbG93Y2hhcnQtcG9pbnRFbmQpIiBzdHlsZT0iZmlsbDpub25lOyIgY2xhc3M9ImVkZ2UtdGhpY2tuZXNzLW5vcm1hbCBlZGdlLXBhdHRlcm4tc29saWQgZmxvd2NoYXJ0LWxpbmsgTFMtRSBMRS1GIiBpZD0iTC1FLUYtMCIgZD0iTTQxMi40NTcyNjM3NjQ4ODA5Niw1MjhMNDE5LjcwNDk0NjM2NjU2NzQsNTMyLjE2NjY2NjY2NjY2NjZDNDI2Ljk1MjYyODk2ODI1NCw1MzYuMzMzMzMzMzMzMzMzNCw0NDEuNDQ3OTk0MTcxNjI3LDU0NC42NjY2NjY2NjY2NjY2LDQ0OC42OTU2NzY3NzMzMTM0NCw1NTNDNDU1Ljk0MzM1OTM3NSw1NjEuMzMzMzMzMzMzMzMzNCw0NTUuOTQzMzU5Mzc1LDU2OS42NjY2NjY2NjY2NjY2LDQ3My45NTI3OTk0NzkxNjY3LDU3OC4xMTY4Mjc1OTg0MTE4QzQ5MS45NjIyMzk1ODMzMzMzLDU4Ni41NjY5ODg1MzAxNTY4LDUyNy45ODExMTk3OTE2NjY2LDU5NS4xMzM5NzcwNjAzMTM0LDU0NS45OTA1NTk4OTU4MzM0LDU5OS40MTc0NzEzMjUzOTE4TDU2NCw2MDMuNzAwOTY1NTkwNDcwMiI+PC9wYXRoPjxwYXRoIG1hcmtlci1lbmQ9InVybCgjZmxvd2NoYXJ0LXBvaW50RW5kKSIgc3R5bGU9ImZpbGw6bm9uZTsiIGNsYXNzPSJlZGdlLXRoaWNrbmVzcy1ub3JtYWwgZWRnZS1wYXR0ZXJuLXNvbGlkIGZsb3djaGFydC1saW5rIExTLUYgTEUtRyIgaWQ9IkwtRi1HLTAiIGQ9Ik02MTUuNjIzMDAwMzcyMDIzOSw2MzdMNjExLjQ3OTc3ODk1NTg1MzIsNjQxLjE2NjY2NjY2NjY2NjZDNjA3LjMzNjU1NzUzOTY4MjUsNjQ1LjMzMzMzMzMzMzMzMzQsNTk5LjA1MDExNDcwNzM0MTMsNjUzLjY2NjY2NjY2NjY2NjYsNTk0LjkwNjg5MzI5MTE3MDYsNjYyQzU5MC43NjM2NzE4NzUsNjcwLjMzMzMzMzMzMzMzMzQsNTkwLjc2MzY3MTg3NSw2NzguNjY2NjY2NjY2NjY2Niw1OTQuOTA2ODkzMjkxMTcwNiw2ODdDNTk5LjA1MDExNDcwNzM0MTMsNjk1LjMzMzMzMzMzMzMzMzQsNjA3LjMzNjU1NzUzOTY4MjUsNzAzLjY2NjY2NjY2NjY2NjYsNjExLjQ3OTc3ODk1NTg1MzIsNzA3LjgzMzMzMzMzMzMzMzRMNjE1LjYyMzAwMDM3MjAyMzksNzEyIj48L3BhdGg+PHBhdGggbWFya2VyLWVuZD0idXJsKCNmbG93Y2hhcnQtcG9pbnRFbmQpIiBzdHlsZT0iZmlsbDpub25lOyIgY2xhc3M9ImVkZ2UtdGhpY2tuZXNzLW5vcm1hbCBlZGdlLXBhdHRlcm4tc29saWQgZmxvd2NoYXJ0LWxpbmsgTFMtQiBMRS1CMSIgaWQ9IkwtQi1CMS0wIiBkPSJNMTQxOS41OTc2NTYyNSwxNTFMMTQxOS41OTc2NTYyNSwxNTUuMTY2NjY2NjY2NjY2NjZDMTQxOS41OTc2NTYyNSwxNTkuMzMzMzMzMzMzMzMzMzQsMTQxOS41OTc2NTYyNSwxNjcuNjY2NjY2NjY2NjY2NjYsMTQxOS41OTc2NTYyNSwxNzZDMTQxOS41OTc2NTYyNSwxODQuMzMzMzMzMzMzMzMzMzQsMTQxOS41OTc2NTYyNSwxOTIuNjY2NjY2NjY2NjY2NjYsMTQxOS41OTc2NTYyNSwyMDFDMTQxOS41OTc2NTYyNSwyMDkuMzMzMzMzMzMzMzMzMzQsMTQxOS41OTc2NTYyNSwyMTcuNjY2NjY2NjY2NjY2NjYsMTQxOS41OTc2NTYyNSwyMjEuODMzMzMzMzMzMzMzMzRMMTQxOS41OTc2NTYyNSwyMjYiPjwvcGF0aD48cGF0aCBtYXJrZXItZW5kPSJ1cmwoI2Zsb3djaGFydC1wb2ludEVuZCkiIHN0eWxlPSJmaWxsOm5vbmU7IiBjbGFzcz0iZWRnZS10aGlja25lc3Mtbm9ybWFsIGVkZ2UtcGF0dGVybi1zb2xpZCBmbG93Y2hhcnQtbGluayBMUy1CIExFLUIyIiBpZD0iTC1CLUIyLTAiIGQ9Ik0xNDc1Ljk4ODI4MTI1LDE0NC4wMDkxMTI1MTk4MDk4M0wxNTA2LjAyNzM0Mzc1LDE0OS4zNDA5MjcwOTk4NDE1NEMxNTM2LjA2NjQwNjI1LDE1NC42NzI3NDE2Nzk4NzMyLDE1OTYuMTQ0NTMxMjUsMTY1LjMzNjM3MDgzOTkzNjYyLDE2MjYuMTgzNTkzNzUsMTc0LjgzNDg1MjA4NjYzNDk4QzE2NTYuMjIyNjU2MjUsMTg0LjMzMzMzMzMzMzMzMzM0LDE2NTYuMjIyNjU2MjUsMTkyLjY2NjY2NjY2NjY2NjY2LDE2NTYuMjIyNjU2MjUsMjAxQzE2NTYuMjIyNjU2MjUsMjA5LjMzMzMzMzMzMzMzMzM0LDE2NTYuMjIyNjU2MjUsMjE3LjY2NjY2NjY2NjY2NjY2LDE2NTYuMjIyNjU2MjUsMjIxLjgzMzMzMzMzMzMzMzM0TDE2NTYuMjIyNjU2MjUsMjI2Ij48L3BhdGg+PHBhdGggbWFya2VyLWVuZD0idXJsKCNmbG93Y2hhcnQtcG9pbnRFbmQpIiBzdHlsZT0iZmlsbDpub25lOyIgY2xhc3M9ImVkZ2UtdGhpY2tuZXNzLW5vcm1hbCBlZGdlLXBhdHRlcm4tc29saWQgZmxvd2NoYXJ0LWxpbmsgTFMtQyBMRS1DMSIgaWQ9IkwtQy1DMS0wIiBkPSJNMTE1OC40ODUxMTkwNDc2MTksMjYwTDExNTkuNDc3MTgyNTM5NjgyNiwyNjQuMTY2NjY2NjY2NjY2N0MxMTYwLjQ2OTI0NjAzMTc0NiwyNjguMzMzMzMzMzMzMzMzMywxMTYyLjQ1MzM3MzAxNTg3MywyNzYuNjY2NjY2NjY2NjY2NywxMTYzLjQ0NTQzNjUwNzkzNjYsMjg1QzExNjQuNDM3NSwyOTMuMzMzMzMzMzMzMzMzMywxMTY0LjQzNzUsMzAxLjY2NjY2NjY2NjY2NjcsMTE2NC40Mzc1LDMxMEMxMTY0LjQzNzUsMzE4LjMzMzMzMzMzMzMzMzMsMTE2NC40Mzc1LDMyNi42NjY2NjY2NjY2NjY3LDExNjQuNDM3NSwzMzVDMTE2NC40Mzc1LDM0My4zMzMzMzMzMzMzMzMzLDExNjQuNDM3NSwzNTEuNjY2NjY2NjY2NjY2NywxMTY0LjQzNzUsMzU1LjgzMzMzMzMzMzMzMzNMMTE2NC40Mzc1LDM2MCI+PC9wYXRoPjxwYXRoIG1hcmtlci1lbmQ9InVybCgjZmxvd2NoYXJ0LXBvaW50RW5kKSIgc3R5bGU9ImZpbGw6bm9uZTsiIGNsYXNzPSJlZGdlLXRoaWNrbmVzcy1ub3JtYWwgZWRnZS1wYXR0ZXJuLXNvbGlkIGZsb3djaGFydC1saW5rIExTLUQgTEUtRDEiIGlkPSJMLUQtRDEtMCIgZD0iTTY2OS44ODY3MTg3NSwzOTRMNjY5Ljg4NjcxODc1LDM5OC4xNjY2NjY2NjY2NjY3QzY2OS44ODY3MTg3NSw0MDIuMzMzMzMzMzMzMzMzMyw2NjkuODg2NzE4NzUsNDEwLjY2NjY2NjY2NjY2NjcsNjY5Ljg4NjcxODc1LDQxOUM2NjkuODg2NzE4NzUsNDI3LjMzMzMzMzMzMzMzMzMsNjY5Ljg4NjcxODc1LDQzNS42NjY2NjY2NjY2NjY3LDY2OS44ODY3MTg3NSw0NDRDNjY5Ljg4NjcxODc1LDQ1Mi4zMzMzMzMzMzMzMzMzLDY2OS44ODY3MTg3NSw0NjAuNjY2NjY2NjY2NjY2Nyw2NjkuODg2NzE4NzUsNDY5QzY2OS44ODY3MTg3NSw0NzcuMzMzMzMzMzMzMzMzMyw2NjkuODg2NzE4NzUsNDg1LjY2NjY2NjY2NjY2NjcsNjY5Ljg4NjcxODc1LDQ4OS44MzMzMzMzMzMzMzMzTDY2OS44ODY3MTg3NSw0OTQiPjwvcGF0aD48cGF0aCBtYXJrZXItZW5kPSJ1cmwoI2Zsb3djaGFydC1wb2ludEVuZCkiIHN0eWxlPSJmaWxsOm5vbmU7IiBjbGFzcz0iZWRnZS10aGlja25lc3Mtbm9ybWFsIGVkZ2UtcGF0dGVybi1zb2xpZCBmbG93Y2hhcnQtbGluayBMUy1EIExFLUQyIiBpZD0iTC1ELUQyLTAiIGQ9Ik03MzUuNjY3OTY4NzUsMzg5LjI0ODc1NzQyNTE0MjQ2TDc2Mi4yOTc1MjYwNDE2NjY2LDM5NC4yMDcyOTc4NTQyODU0Qzc4OC45MjcwODMzMzMzMzM0LDM5OS4xNjU4MzgyODM0MjgzLDg0Mi4xODYxOTc5MTY2NjY2LDQwOS4wODI5MTkxNDE3MTQxNyw4NjguODE1NzU1MjA4MzMzNCw0MTguMjA4MTI2MjM3NTIzOEM4OTUuNDQ1MzEyNSw0MjcuMzMzMzMzMzMzMzMzMyw4OTUuNDQ1MzEyNSw0MzUuNjY2NjY2NjY2NjY2Nyw4OTUuNDQ1MzEyNSw0NDRDODk1LjQ0NTMxMjUsNDUyLjMzMzMzMzMzMzMzMzMsODk1LjQ0NTMxMjUsNDYwLjY2NjY2NjY2NjY2NjcsODk1LjQ0NTMxMjUsNDY5Qzg5NS40NDUzMTI1LDQ3Ny4zMzMzMzMzMzMzMzMzLDg5NS40NDUzMTI1LDQ4NS42NjY2NjY2NjY2NjY3LDg5NS40NDUzMTI1LDQ4OS44MzMzMzMzMzMzMzMzTDg5NS40NDUzMTI1LDQ5NCI+PC9wYXRoPjxwYXRoIG1hcmtlci1lbmQ9InVybCgjZmxvd2NoYXJ0LXBvaW50RW5kKSIgc3R5bGU9ImZpbGw6bm9uZTsiIGNsYXNzPSJlZGdlLXRoaWNrbmVzcy1ub3JtYWwgZWRnZS1wYXR0ZXJuLXNvbGlkIGZsb3djaGFydC1saW5rIExTLUUgTEUtRTEiIGlkPSJMLUUtRTEtMCIgZD0iTTMyMy4yNjk1MzEyNSw1MjAuOTk1Njk2MTA3Nzg0NEwyOTEuNDU1NzI5MTY2NjY2Nyw1MjYuMzI5NzQ2NzU2NDg3QzI1OS42NDE5MjcwODMzMzMzLDUzMS42NjM3OTc0MDUxODk2LDE5Ni4wMTQzMjI5MTY2NjY2Niw1NDIuMzMxODk4NzAyNTk0OCwxNjQuMjAwNTIwODMzMzMzMzQsNTUxLjgzMjYxNjAxNzk2NEMxMzIuMzg2NzE4NzUsNTYxLjMzMzMzMzMzMzMzMzQsMTMyLjM4NjcxODc1LDU2OS42NjY2NjY2NjY2NjY2LDEzMi4zODY3MTg3NSw1NzhDMTMyLjM4NjcxODc1LDU4Ni4zMzMzMzMzMzMzMzM0LDEzMi4zODY3MTg3NSw1OTQuNjY2NjY2NjY2NjY2NiwxMzIuMzg2NzE4NzUsNTk4LjgzMzMzMzMzMzMzMzRMMTMyLjM4NjcxODc1LDYwMyI+PC9wYXRoPjxwYXRoIG1hcmtlci1lbmQ9InVybCgjZmxvd2NoYXJ0LXBvaW50RW5kKSIgc3R5bGU9ImZpbGw6bm9uZTsiIGNsYXNzPSJlZGdlLXRoaWNrbmVzcy1ub3JtYWwgZWRnZS1wYXR0ZXJuLXNvbGlkIGZsb3djaGFydC1saW5rIExTLUUgTEUtRTIiIGlkPSJMLUUtRTItMCIgZD0iTTM4Mi44ODY3MTg3NSw1MjhMMzgyLjg4NjcxODc1LDUzMi4xNjY2NjY2NjY2NjY2QzM4Mi44ODY3MTg3NSw1MzYuMzMzMzMzMzMzMzMzNCwzODIuODg2NzE4NzUsNTQ0LjY2NjY2NjY2NjY2NjYsMzgyLjg4NjcxODc1LDU1M0MzODIuODg2NzE4NzUsNTYxLjMzMzMzMzMzMzMzMzQsMzgyLjg4NjcxODc1LDU2OS42NjY2NjY2NjY2NjY2LDM4Mi44ODY3MTg3NSw1NzhDMzgyLjg4NjcxODc1LDU4Ni4zMzMzMzMzMzMzMzM0LDM4Mi44ODY3MTg3NSw1OTQuNjY2NjY2NjY2NjY2NiwzODIuODg2NzE4NzUsNTk4LjgzMzMzMzMzMzMzMzRMMzgyLjg4NjcxODc1LDYwMyI+PC9wYXRoPjxwYXRoIG1hcmtlci1lbmQ9InVybCgjZmxvd2NoYXJ0LXBvaW50RW5kKSIgc3R5bGU9ImZpbGw6bm9uZTsiIGNsYXNzPSJlZGdlLXRoaWNrbmVzcy1ub3JtYWwgZWRnZS1wYXR0ZXJuLXNvbGlkIGZsb3djaGFydC1saW5rIExTLUEgTEUtQiIgaWQ9IkwtQS1CLTEiIGQ9Ik0xNDkyLjUsMzUuMjIyNzY3MDc5ODc0NTRMMTUzMC4yNjkyMDU3MjkxNjY3LDQwLjUxODk3MjU2NjU2MjExQzE1NjguMDM4NDExNDU4MzMzMyw0NS44MTUxNzgwNTMyNDk2OSwxNjQzLjU3NjgyMjkxNjY2NjcsNTYuNDA3NTg5MDI2NjI0ODQsMTY4MS4zNDYwMjg2NDU4MzMzLDY1Ljg3MDQ2MTE3OTk3OTA5QzE3MTkuMTE1MjM0Mzc1LDc1LjMzMzMzMzMzMzMzMzMzLDE3MTkuMTE1MjM0Mzc1LDgzLjY2NjY2NjY2NjY2NjY3LDE2NzguNTk0MDc1NTIwODMzMyw5My41MTU0MzI4MDMxODM5NEMxNjM4LjA3MjkxNjY2NjY2NjcsMTAzLjM2NDE5ODkzOTcwMTIxLDE1NTcuMDMwNTk4OTU4MzMzMywxMTQuNzI4Mzk3ODc5NDAyNDEsMTUxNi41MDk0NDAxMDQxNjY3LDEyMC40MTA0OTczNDkyNTMwMkwxNDc1Ljk4ODI4MTI1LDEyNi4wOTI1OTY4MTkxMDM2MyI+PC9wYXRoPjxwYXRoIG1hcmtlci1lbmQ9InVybCgjZmxvd2NoYXJ0LXBvaW50RW5kKSIgc3R5bGU9ImZpbGw6bm9uZTsiIGNsYXNzPSJlZGdlLXRoaWNrbmVzcy1ub3JtYWwgZWRnZS1wYXR0ZXJuLXNvbGlkIGZsb3djaGFydC1saW5rIExTLUYgTEUtRyIgaWQ9IkwtRi1HLTEiIGQ9Ik02MzYuNTc0OTYyNzk3NjE5LDYzN0w2MzcuNTY3MDI2Mjg5NjgyNSw2NDEuMTY2NjY2NjY2NjY2NkM2MzguNTU5MDg5NzgxNzQ2LDY0NS4zMzMzMzMzMzMzMzM0LDY0MC41NDMyMTY3NjU4NzMsNjUzLjY2NjY2NjY2NjY2NjYsNjQxLjUzNTI4MDI1NzkzNjUsNjYyQzY0Mi41MjczNDM3NSw2NzAuMzMzMzMzMzMzMzMzNCw2NDIuNTI3MzQzNzUsNjc4LjY2NjY2NjY2NjY2NjYsNjQxLjUzNTI4MDI1NzkzNjUsNjg3QzY0MC41NDMyMTY3NjU4NzMsNjk1LjMzMzMzMzMzMzMzMzQsNjM4LjU1OTA4OTc4MTc0Niw3MDMuNjY2NjY2NjY2NjY2Niw2MzcuNTY3MDI2Mjg5NjgyNSw3MDcuODMzMzMzMzMzMzMzNEw2MzYuNTc0OTYyNzk3NjE5LDcxMiI+PC9wYXRoPjwvZz48ZyBjbGFzcz0iZWRnZUxhYmVscyI+PGcgY2xhc3M9ImVkZ2VMYWJlbCI+PGcgdHJhbnNmb3JtPSJ0cmFuc2xhdGUoMCwgMCkiIGNsYXNzPSJsYWJlbCI+PHJlY3QgaGVpZ2h0PSIwIiB3aWR0aD0iMCIgcnk9IjAiIHJ4PSIwIj48L3JlY3Q+PHRleHQgc3R5bGU9IiI+PHRzcGFuIGNsYXNzPSJyb3ciIHg9IjAiIGR5PSIxZW0iIHhtbDpzcGFjZT0icHJlc2VydmUiPjwvdHNwYW4+PC90ZXh0PjwvZz48L2c+PGcgY2xhc3M9ImVkZ2VMYWJlbCI+PGcgdHJhbnNmb3JtPSJ0cmFuc2xhdGUoMCwgMCkiIGNsYXNzPSJsYWJlbCI+PHJlY3QgaGVpZ2h0PSIwIiB3aWR0aD0iMCIgcnk9IjAiIHJ4PSIwIj48L3JlY3Q+PHRleHQgc3R5bGU9IiI+PHRzcGFuIGNsYXNzPSJyb3ciIHg9IjAiIGR5PSIxZW0iIHhtbDpzcGFjZT0icHJlc2VydmUiPjwvdHNwYW4+PC90ZXh0PjwvZz48L2c+PGcgY2xhc3M9ImVkZ2VMYWJlbCI+PGcgdHJhbnNmb3JtPSJ0cmFuc2xhdGUoMCwgMCkiIGNsYXNzPSJsYWJlbCI+PHJlY3QgaGVpZ2h0PSIwIiB3aWR0aD0iMCIgcnk9IjAiIHJ4PSIwIj48L3JlY3Q+PHRleHQgc3R5bGU9IiI+PHRzcGFuIGNsYXNzPSJyb3ciIHg9IjAiIGR5PSIxZW0iIHhtbDpzcGFjZT0icHJlc2VydmUiPjwvdHNwYW4+PC90ZXh0PjwvZz48L2c+PGcgY2xhc3M9ImVkZ2VMYWJlbCI+PGcgdHJhbnNmb3JtPSJ0cmFuc2xhdGUoMCwgMCkiIGNsYXNzPSJsYWJlbCI+PHJlY3QgaGVpZ2h0PSIwIiB3aWR0aD0iMCIgcnk9IjAiIHJ4PSIwIj48L3JlY3Q+PHRleHQgc3R5bGU9IiI+PHRzcGFuIGNsYXNzPSJyb3ciIHg9IjAiIGR5PSIxZW0iIHhtbDpzcGFjZT0icHJlc2VydmUiPjwvdHNwYW4+PC90ZXh0PjwvZz48L2c+PGcgY2xhc3M9ImVkZ2VMYWJlbCI+PGcgdHJhbnNmb3JtPSJ0cmFuc2xhdGUoMCwgMCkiIGNsYXNzPSJsYWJlbCI+PHJlY3QgaGVpZ2h0PSIwIiB3aWR0aD0iMCIgcnk9IjAiIHJ4PSIwIj48L3JlY3Q+PHRleHQgc3R5bGU9IiI+PHRzcGFuIGNsYXNzPSJyb3ciIHg9IjAiIGR5PSIxZW0iIHhtbDpzcGFjZT0icHJlc2VydmUiPjwvdHNwYW4+PC90ZXh0PjwvZz48L2c+PGcgY2xhc3M9ImVkZ2VMYWJlbCI+PGcgdHJhbnNmb3JtPSJ0cmFuc2xhdGUoMCwgMCkiIGNsYXNzPSJsYWJlbCI+PHJlY3QgaGVpZ2h0PSIwIiB3aWR0aD0iMCIgcnk9IjAiIHJ4PSIwIj48L3JlY3Q+PHRleHQgc3R5bGU9IiI+PHRzcGFuIGNsYXNzPSJyb3ciIHg9IjAiIGR5PSIxZW0iIHhtbDpzcGFjZT0icHJlc2VydmUiPjwvdHNwYW4+PC90ZXh0PjwvZz48L2c+PGcgY2xhc3M9ImVkZ2VMYWJlbCI+PGcgdHJhbnNmb3JtPSJ0cmFuc2xhdGUoMCwgMCkiIGNsYXNzPSJsYWJlbCI+PHJlY3QgaGVpZ2h0PSIwIiB3aWR0aD0iMCIgcnk9IjAiIHJ4PSIwIj48L3JlY3Q+PHRleHQgc3R5bGU9IiI+PHRzcGFuIGNsYXNzPSJyb3ciIHg9IjAiIGR5PSIxZW0iIHhtbDpzcGFjZT0icHJlc2VydmUiPjwvdHNwYW4+PC90ZXh0PjwvZz48L2c+PGcgY2xhc3M9ImVkZ2VMYWJlbCI+PGcgdHJhbnNmb3JtPSJ0cmFuc2xhdGUoMCwgMCkiIGNsYXNzPSJsYWJlbCI+PHJlY3QgaGVpZ2h0PSIwIiB3aWR0aD0iMCIgcnk9IjAiIHJ4PSIwIj48L3JlY3Q+PHRleHQgc3R5bGU9IiI+PHRzcGFuIGNsYXNzPSJyb3ciIHg9IjAiIGR5PSIxZW0iIHhtbDpzcGFjZT0icHJlc2VydmUiPjwvdHNwYW4+PC90ZXh0PjwvZz48L2c+PGcgY2xhc3M9ImVkZ2VMYWJlbCI+PGcgdHJhbnNmb3JtPSJ0cmFuc2xhdGUoMCwgMCkiIGNsYXNzPSJsYWJlbCI+PHJlY3QgaGVpZ2h0PSIwIiB3aWR0aD0iMCIgcnk9IjAiIHJ4PSIwIj48L3JlY3Q+PHRleHQgc3R5bGU9IiI+PHRzcGFuIGNsYXNzPSJyb3ciIHg9IjAiIGR5PSIxZW0iIHhtbDpzcGFjZT0icHJlc2VydmUiPjwvdHNwYW4+PC90ZXh0PjwvZz48L2c+PGcgY2xhc3M9ImVkZ2VMYWJlbCI+PGcgdHJhbnNmb3JtPSJ0cmFuc2xhdGUoMCwgMCkiIGNsYXNzPSJsYWJlbCI+PHJlY3QgaGVpZ2h0PSIwIiB3aWR0aD0iMCIgcnk9IjAiIHJ4PSIwIj48L3JlY3Q+PHRleHQgc3R5bGU9IiI+PHRzcGFuIGNsYXNzPSJyb3ciIHg9IjAiIGR5PSIxZW0iIHhtbDpzcGFjZT0icHJlc2VydmUiPjwvdHNwYW4+PC90ZXh0PjwvZz48L2c+PGcgY2xhc3M9ImVkZ2VMYWJlbCI+PGcgdHJhbnNmb3JtPSJ0cmFuc2xhdGUoMCwgMCkiIGNsYXNzPSJsYWJlbCI+PHJlY3QgaGVpZ2h0PSIwIiB3aWR0aD0iMCIgcnk9IjAiIHJ4PSIwIj48L3JlY3Q+PHRleHQgc3R5bGU9IiI+PHRzcGFuIGNsYXNzPSJyb3ciIHg9IjAiIGR5PSIxZW0iIHhtbDpzcGFjZT0icHJlc2VydmUiPjwvdHNwYW4+PC90ZXh0PjwvZz48L2c+PGcgY2xhc3M9ImVkZ2VMYWJlbCI+PGcgdHJhbnNmb3JtPSJ0cmFuc2xhdGUoMCwgMCkiIGNsYXNzPSJsYWJlbCI+PHJlY3QgaGVpZ2h0PSIwIiB3aWR0aD0iMCIgcnk9IjAiIHJ4PSIwIj48L3JlY3Q+PHRleHQgc3R5bGU9IiI+PHRzcGFuIGNsYXNzPSJyb3ciIHg9IjAiIGR5PSIxZW0iIHhtbDpzcGFjZT0icHJlc2VydmUiPjwvdHNwYW4+PC90ZXh0PjwvZz48L2c+PGcgY2xhc3M9ImVkZ2VMYWJlbCI+PGcgdHJhbnNmb3JtPSJ0cmFuc2xhdGUoMCwgMCkiIGNsYXNzPSJsYWJlbCI+PHJlY3QgaGVpZ2h0PSIwIiB3aWR0aD0iMCIgcnk9IjAiIHJ4PSIwIj48L3JlY3Q+PHRleHQgc3R5bGU9IiI+PHRzcGFuIGNsYXNzPSJyb3ciIHg9IjAiIGR5PSIxZW0iIHhtbDpzcGFjZT0icHJlc2VydmUiPjwvdHNwYW4+PC90ZXh0PjwvZz48L2c+PGcgY2xhc3M9ImVkZ2VMYWJlbCI+PGcgdHJhbnNmb3JtPSJ0cmFuc2xhdGUoMCwgMCkiIGNsYXNzPSJsYWJlbCI+PHJlY3QgaGVpZ2h0PSIwIiB3aWR0aD0iMCIgcnk9IjAiIHJ4PSIwIj48L3JlY3Q+PHRleHQgc3R5bGU9IiI+PHRzcGFuIGNsYXNzPSJyb3ciIHg9IjAiIGR5PSIxZW0iIHhtbDpzcGFjZT0icHJlc2VydmUiPjwvdHNwYW4+PC90ZXh0PjwvZz48L2c+PGcgY2xhc3M9ImVkZ2VMYWJlbCI+PGcgdHJhbnNmb3JtPSJ0cmFuc2xhdGUoMCwgMCkiIGNsYXNzPSJsYWJlbCI+PHJlY3QgaGVpZ2h0PSIwIiB3aWR0aD0iMCIgcnk9IjAiIHJ4PSIwIj48L3JlY3Q+PHRleHQgc3R5bGU9IiI+PHRzcGFuIGNsYXNzPSJyb3ciIHg9IjAiIGR5PSIxZW0iIHhtbDpzcGFjZT0icHJlc2VydmUiPjwvdHNwYW4+PC90ZXh0PjwvZz48L2c+PC9nPjxnIGNsYXNzPSJub2RlcyI+PGcgdHJhbnNmb3JtPSJ0cmFuc2xhdGUoMTMyLjM4NjcxODc1LCA2MjApIiBpZD0iZmxvd2NoYXJ0LUUxLTY0IiBjbGFzcz0ibm9kZSBkZWZhdWx0IGRlZmF1bHQiPjxyZWN0IGhlaWdodD0iMzQiIHdpZHRoPSIxNzguNzczNDM3NSIgeT0iLTE3IiB4PSItODkuMzg2NzE4NzUiIHJ5PSIwIiByeD0iMCIgc3R5bGU9IiIgY2xhc3M9ImJhc2ljIGxhYmVsLWNvbnRhaW5lciI+PC9yZWN0PjxnIHRyYW5zZm9ybT0idHJhbnNsYXRlKC04MS44ODY3MTg3NSwgLTkuNSkiIHN0eWxlPSIiIGNsYXNzPSJsYWJlbCI+PHRleHQgc3R5bGU9IiI+PHRzcGFuIGNsYXNzPSJyb3ciIHg9IjAiIGR5PSIxZW0iIHhtbDpzcGFjZT0icHJlc2VydmUiPkNvbnZlcnQgVG9rZW5zIHRvIFRleHQ8L3RzcGFuPjwvdGV4dD48L2c+PC9nPjxnIHRyYW5zZm9ybT0idHJhbnNsYXRlKDM4Mi44ODY3MTg3NSwgNjIwKSIgaWQ9ImZsb3djaGFydC1FMi02NSIgY2xhc3M9Im5vZGUgZGVmYXVsdCBkZWZhdWx0Ij48cmVjdCBoZWlnaHQ9IjM0IiB3aWR0aD0iMjIyLjIyNjU2MjUiIHk9Ii0xNyIgeD0iLTExMS4xMTMyODEyNSIgcnk9IjAiIHJ4PSIwIiBzdHlsZT0iIiBjbGFzcz0iYmFzaWMgbGFiZWwtY29udGFpbmVyIj48L3JlY3Q+PGcgdHJhbnNmb3JtPSJ0cmFuc2xhdGUoLTEwMy42MTMyODEyNSwgLTkuNSkiIHN0eWxlPSIiIGNsYXNzPSJsYWJlbCI+PHRleHQgc3R5bGU9IiI+PHRzcGFuIGNsYXNzPSJyb3ciIHg9IjAiIGR5PSIxZW0iIHhtbDpzcGFjZT0icHJlc2VydmUiPkdyYW1tYXIgYW5kIFNwZWxsaW5nIENoZWNrPC90c3Bhbj48L3RleHQ+PC9nPjwvZz48ZyB0cmFuc2Zvcm09InRyYW5zbGF0ZSgzODIuODg2NzE4NzUsIDUxMSkiIGlkPSJmbG93Y2hhcnQtRS00NCIgY2xhc3M9Im5vZGUgZGVmYXVsdCBkZWZhdWx0Ij48cmVjdCBoZWlnaHQ9IjM0IiB3aWR0aD0iMTE5LjIzNDM3NSIgeT0iLTE3IiB4PSItNTkuNjE3MTg3NSIgcnk9IjAiIHJ4PSIwIiBzdHlsZT0iIiBjbGFzcz0iYmFzaWMgbGFiZWwtY29udGFpbmVyIj48L3JlY3Q+PGcgdHJhbnNmb3JtPSJ0cmFuc2xhdGUoLTUyLjExNzE4NzUsIC05LjUpIiBzdHlsZT0iIiBjbGFzcz0ibGFiZWwiPjx0ZXh0IHN0eWxlPSIiPjx0c3BhbiBjbGFzcz0icm93IiB4PSIwIiBkeT0iMWVtIiB4bWw6c3BhY2U9InByZXNlcnZlIj5Qb3N0cHJvY2Vzc2luZzwvdHNwYW4+PC90ZXh0PjwvZz48L2c+PGcgdHJhbnNmb3JtPSJ0cmFuc2xhdGUoNjY5Ljg4NjcxODc1LCA1MTEpIiBpZD0iZmxvd2NoYXJ0LUQxLTU4IiBjbGFzcz0ibm9kZSBkZWZhdWx0IGRlZmF1bHQiPjxyZWN0IGhlaWdodD0iMzQiIHdpZHRoPSIxNzEuNzczNDM3NSIgeT0iLTE3IiB4PSItODUuODg2NzE4NzUiIHJ5PSIwIiByeD0iMCIgc3R5bGU9IiIgY2xhc3M9ImJhc2ljIGxhYmVsLWNvbnRhaW5lciI+PC9yZWN0PjxnIHRyYW5zZm9ybT0idHJhbnNsYXRlKC03OC4zODY3MTg3NSwgLTkuNSkiIHN0eWxlPSIiIGNsYXNzPSJsYWJlbCI+PHRleHQgc3R5bGU9IiI+PHRzcGFuIGNsYXNzPSJyb3ciIHg9IjAiIGR5PSIxZW0iIHhtbDpzcGFjZT0icHJlc2VydmUiPklucHV0IFRva2VucyB0byBNb2RlbDwvdHNwYW4+PC90ZXh0PjwvZz48L2c+PGcgdHJhbnNmb3JtPSJ0cmFuc2xhdGUoODk1LjQ0NTMxMjUsIDUxMSkiIGlkPSJmbG93Y2hhcnQtRDItNTkiIGNsYXNzPSJub2RlIGRlZmF1bHQgZGVmYXVsdCI+PHJlY3QgaGVpZ2h0PSIzNCIgd2lkdGg9IjE3OS4zNDM3NSIgeT0iLTE3IiB4PSItODkuNjcxODc1IiByeT0iMCIgcng9IjAiIHN0eWxlPSIiIGNsYXNzPSJiYXNpYyBsYWJlbC1jb250YWluZXIiPjwvcmVjdD48ZyB0cmFuc2Zvcm09InRyYW5zbGF0ZSgtODIuMTcxODc1LCAtOS41KSIgc3R5bGU9IiIgY2xhc3M9ImxhYmVsIj48dGV4dCBzdHlsZT0iIj48dHNwYW4gY2xhc3M9InJvdyIgeD0iMCIgZHk9IjFlbSIgeG1sOnNwYWNlPSJwcmVzZXJ2ZSI+Q29udGV4dCBVbmRlcnN0YW5kaW5nPC90c3Bhbj48L3RleHQ+PC9nPjwvZz48ZyB0cmFuc2Zvcm09InRyYW5zbGF0ZSg2NjkuODg2NzE4NzUsIDM3NykiIGlkPSJmbG93Y2hhcnQtRC00MiIgY2xhc3M9Im5vZGUgZGVmYXVsdCBkZWZhdWx0Ij48cmVjdCBoZWlnaHQ9IjM0IiB3aWR0aD0iMTMxLjU2MjUiIHk9Ii0xNyIgeD0iLTY1Ljc4MTI1IiByeT0iMCIgcng9IjAiIHN0eWxlPSIiIGNsYXNzPSJiYXNpYyBsYWJlbC1jb250YWluZXIiPjwvcmVjdD48ZyB0cmFuc2Zvcm09InRyYW5zbGF0ZSgtNTguMjgxMjUsIC05LjUpIiBzdHlsZT0iIiBjbGFzcz0ibGFiZWwiPjx0ZXh0IHN0eWxlPSIiPjx0c3BhbiBjbGFzcz0icm93IiB4PSIwIiBkeT0iMWVtIiB4bWw6c3BhY2U9InByZXNlcnZlIj5Nb2RlbCBJbmZlcmVuY2U8L3RzcGFuPjwvdGV4dD48L2c+PC9nPjxnIHRyYW5zZm9ybT0idHJhbnNsYXRlKDExNjQuNDM3NSwgMzc3KSIgaWQ9ImZsb3djaGFydC1DMS01NSIgY2xhc3M9Im5vZGUgZGVmYXVsdCBkZWZhdWx0Ij48cmVjdCBoZWlnaHQ9IjM0IiB3aWR0aD0iMTc4LjY0MDYyNSIgeT0iLTE3IiB4PSItODkuMzIwMzEyNSIgcnk9IjAiIHJ4PSIwIiBzdHlsZT0iIiBjbGFzcz0iYmFzaWMgbGFiZWwtY29udGFpbmVyIj48L3JlY3Q+PGcgdHJhbnNmb3JtPSJ0cmFuc2xhdGUoLTgxLjgyMDMxMjUsIC05LjUpIiBzdHlsZT0iIiBjbGFzcz0ibGFiZWwiPjx0ZXh0IHN0eWxlPSIiPjx0c3BhbiBjbGFzcz0icm93IiB4PSIwIiBkeT0iMWVtIiB4bWw6c3BhY2U9InByZXNlcnZlIj5Db252ZXJ0IFRleHQgdG8gVG9rZW5zPC90c3Bhbj48L3RleHQ+PC9nPjwvZz48ZyB0cmFuc2Zvcm09InRyYW5zbGF0ZSgxMTU0LjQzNzUsIDI0MykiIGlkPSJmbG93Y2hhcnQtQy00MCIgY2xhc3M9Im5vZGUgZGVmYXVsdCBkZWZhdWx0Ij48cmVjdCBoZWlnaHQ9IjM0IiB3aWR0aD0iMTA2LjQ3NjU2MjUiIHk9Ii0xNyIgeD0iLTUzLjIzODI4MTI1IiByeT0iMCIgcng9IjAiIHN0eWxlPSIiIGNsYXNzPSJiYXNpYyBsYWJlbC1jb250YWluZXIiPjwvcmVjdD48ZyB0cmFuc2Zvcm09InRyYW5zbGF0ZSgtNDUuNzM4MjgxMjUsIC05LjUpIiBzdHlsZT0iIiBjbGFzcz0ibGFiZWwiPjx0ZXh0IHN0eWxlPSIiPjx0c3BhbiBjbGFzcz0icm93IiB4PSIwIiBkeT0iMWVtIiB4bWw6c3BhY2U9InByZXNlcnZlIj5Ub2tlbml6YXRpb248L3RzcGFuPjwvdGV4dD48L2c+PC9nPjxnIHRyYW5zZm9ybT0idHJhbnNsYXRlKDE0MTkuNTk3NjU2MjUsIDI0MykiIGlkPSJmbG93Y2hhcnQtQjEtNDkiIGNsYXNzPSJub2RlIGRlZmF1bHQgZGVmYXVsdCI+PHJlY3QgaGVpZ2h0PSIzNCIgd2lkdGg9IjE1MS42Nzk2ODc1IiB5PSItMTciIHg9Ii03NS44Mzk4NDM3NSIgcnk9IjAiIHJ4PSIwIiBzdHlsZT0iIiBjbGFzcz0iYmFzaWMgbGFiZWwtY29udGFpbmVyIj48L3JlY3Q+PGcgdHJhbnNmb3JtPSJ0cmFuc2xhdGUoLTY4LjMzOTg0Mzc1LCAtOS41KSIgc3R5bGU9IiIgY2xhc3M9ImxhYmVsIj48dGV4dCBzdHlsZT0iIj48dHNwYW4gY2xhc3M9InJvdyIgeD0iMCIgZHk9IjFlbSIgeG1sOnNwYWNlPSJwcmVzZXJ2ZSI+VGV4dCBOb3JtYWxpemF0aW9uPC90c3Bhbj48L3RleHQ+PC9nPjwvZz48ZyB0cmFuc2Zvcm09InRyYW5zbGF0ZSgxNjU2LjIyMjY1NjI1LCAyNDMpIiBpZD0iZmxvd2NoYXJ0LUIyLTUwIiBjbGFzcz0ibm9kZSBkZWZhdWx0IGRlZmF1bHQiPjxyZWN0IGhlaWdodD0iMzQiIHdpZHRoPSIyMjEuNTcwMzEyNSIgeT0iLTE3IiB4PSItMTEwLjc4NTE1NjI1IiByeT0iMCIgcng9IjAiIHN0eWxlPSIiIGNsYXNzPSJiYXNpYyBsYWJlbC1jb250YWluZXIiPjwvcmVjdD48ZyB0cmFuc2Zvcm09InRyYW5zbGF0ZSgtMTAzLjI4NTE1NjI1LCAtOS41KSIgc3R5bGU9IiIgY2xhc3M9ImxhYmVsIj48dGV4dCBzdHlsZT0iIj48dHNwYW4gY2xhc3M9InJvdyIgeD0iMCIgZHk9IjFlbSIgeG1sOnNwYWNlPSJwcmVzZXJ2ZSI+UmVtb3ZpbmcgU3BlY2lhbCBDaGFyYWN0ZXJzPC90c3Bhbj48L3RleHQ+PC9nPjwvZz48ZyB0cmFuc2Zvcm09InRyYW5zbGF0ZSgxNDE5LjU5NzY1NjI1LCAxMzQpIiBpZD0iZmxvd2NoYXJ0LUItMzgiIGNsYXNzPSJub2RlIGRlZmF1bHQgZGVmYXVsdCI+PHJlY3QgaGVpZ2h0PSIzNCIgd2lkdGg9IjExMi43ODEyNSIgeT0iLTE3IiB4PSItNTYuMzkwNjI1IiByeT0iMCIgcng9IjAiIHN0eWxlPSIiIGNsYXNzPSJiYXNpYyBsYWJlbC1jb250YWluZXIiPjwvcmVjdD48ZyB0cmFuc2Zvcm09InRyYW5zbGF0ZSgtNDguODkwNjI1LCAtOS41KSIgc3R5bGU9IiIgY2xhc3M9ImxhYmVsIj48dGV4dCBzdHlsZT0iIj48dHNwYW4gY2xhc3M9InJvdyIgeD0iMCIgZHk9IjFlbSIgeG1sOnNwYWNlPSJwcmVzZXJ2ZSI+UHJlcHJvY2Vzc2luZzwvdHNwYW4+PC90ZXh0PjwvZz48L2c+PGcgdHJhbnNmb3JtPSJ0cmFuc2xhdGUoMTQxOS41OTc2NTYyNSwgMjUpIiBpZD0iZmxvd2NoYXJ0LUEtMzciIGNsYXNzPSJub2RlIGRlZmF1bHQgZGVmYXVsdCI+PHJlY3QgaGVpZ2h0PSIzNCIgd2lkdGg9IjE0NS44MDQ2ODc1IiB5PSItMTciIHg9Ii03Mi45MDIzNDM3NSIgcnk9IjAiIHJ4PSIwIiBzdHlsZT0iIiBjbGFzcz0iYmFzaWMgbGFiZWwtY29udGFpbmVyIj48L3JlY3Q+PGcgdHJhbnNmb3JtPSJ0cmFuc2xhdGUoLTY1LjQwMjM0Mzc1LCAtOS41KSIgc3R5bGU9IiIgY2xhc3M9ImxhYmVsIj48dGV4dCBzdHlsZT0iIj48dHNwYW4gY2xhc3M9InJvdyIgeD0iMCIgZHk9IjFlbSIgeG1sOnNwYWNlPSJwcmVzZXJ2ZSI+VXNlciBQcm9tcHQgSW5wdXQ8L3RzcGFuPjwvdGV4dD48L2c+PC9nPjxnIHRyYW5zZm9ybT0idHJhbnNsYXRlKDYzMi41MjczNDM3NSwgNjIwKSIgaWQ9ImZsb3djaGFydC1GLTQ2IiBjbGFzcz0ibm9kZSBkZWZhdWx0IGRlZmF1bHQiPjxyZWN0IGhlaWdodD0iMzQiIHdpZHRoPSIxMzcuMDU0Njg3NSIgeT0iLTE3IiB4PSItNjguNTI3MzQzNzUiIHJ5PSIwIiByeD0iMCIgc3R5bGU9IiIgY2xhc3M9ImJhc2ljIGxhYmVsLWNvbnRhaW5lciI+PC9yZWN0PjxnIHRyYW5zZm9ybT0idHJhbnNsYXRlKC02MS4wMjczNDM3NSwgLTkuNSkiIHN0eWxlPSIiIGNsYXNzPSJsYWJlbCI+PHRleHQgc3R5bGU9IiI+PHRzcGFuIGNsYXNzPSJyb3ciIHg9IjAiIGR5PSIxZW0iIHhtbDpzcGFjZT0icHJlc2VydmUiPkdlbmVyYXRlIE91dHB1dDwvdHNwYW4+PC90ZXh0PjwvZz48L2c+PGcgdHJhbnNmb3JtPSJ0cmFuc2xhdGUoNjMyLjUyNzM0Mzc1LCA3MjkpIiBpZD0iZmxvd2NoYXJ0LUctNDgiIGNsYXNzPSJub2RlIGRlZmF1bHQgZGVmYXVsdCI+PHJlY3QgaGVpZ2h0PSIzNCIgd2lkdGg9IjEzMi4xNDg0Mzc1IiB5PSItMTciIHg9Ii02Ni4wNzQyMTg3NSIgcnk9IjAiIHJ4PSIwIiBzdHlsZT0iIiBjbGFzcz0iYmFzaWMgbGFiZWwtY29udGFpbmVyIj48L3JlY3Q+PGcgdHJhbnNmb3JtPSJ0cmFuc2xhdGUoLTU4LjU3NDIxODc1LCAtOS41KSIgc3R5bGU9IiIgY2xhc3M9ImxhYmVsIj48dGV4dCBzdHlsZT0iIj48dHNwYW4gY2xhc3M9InJvdyIgeD0iMCIgZHk9IjFlbSIgeG1sOnNwYWNlPSJwcmVzZXJ2ZSI+Q2hhdEdQVCBPdXRwdXQ8L3RzcGFuPjwvdGV4dD48L2c+PC9nPjwvZz48L2c+PC9nPjwvc3ZnPg==;" vertex="1" parent="1">
                        <mxGeometry x="320" y="40" width="100" height="754" as="geometry"/>
                    </mxCell>
                </UserObject>
                <UserObject label="" mermaidData="{&#10;  &quot;data&quot;: &quot;flowchart TD\n    A[User Prompt] --&gt; B[Model Processing]\n    B --&gt; C[Generate Response]\n    C --&gt; D[ChatGPT Output]\n\n    subgraph Model Processing\n        B1[Tokenization]\n        B2[Inference]\n        B --&gt; B1\n        B --&gt; B2\n    end\n&quot;,&#10;  &quot;config&quot;: {&#10;    &quot;theme&quot;: &quot;neutral&quot;,&#10;    &quot;arrowMarkerAbsolute&quot;: false,&#10;    &quot;flowchart&quot;: {&#10;      &quot;htmlLabels&quot;: false&#10;    },&#10;    &quot;sequence&quot;: {&#10;      &quot;diagramMarginX&quot;: 50,&#10;      &quot;diagramMarginY&quot;: 10,&#10;      &quot;actorMargin&quot;: 50,&#10;      &quot;width&quot;: 150,&#10;      &quot;height&quot;: 65,&#10;      &quot;boxMargin&quot;: 10,&#10;      &quot;boxTextMargin&quot;: 5,&#10;      &quot;noteMargin&quot;: 10,&#10;      &quot;messageMargin&quot;: 35,&#10;      &quot;mirrorActors&quot;: true,&#10;      &quot;bottomMarginAdj&quot;: 1,&#10;      &quot;useMaxWidth&quot;: true,&#10;      &quot;rightAngles&quot;: false,&#10;      &quot;showSequenceNumbers&quot;: false&#10;    },&#10;    &quot;gantt&quot;: {&#10;      &quot;titleTopMargin&quot;: 25,&#10;      &quot;barHeight&quot;: 20,&#10;      &quot;barGap&quot;: 4,&#10;      &quot;topPadding&quot;: 50,&#10;      &quot;leftPadding&quot;: 75,&#10;      &quot;gridLineStartPadding&quot;: 35,&#10;      &quot;fontSize&quot;: 11,&#10;      &quot;fontFamily&quot;: &quot;\&quot;Open-Sans\&quot;, \&quot;sans-serif\&quot;&quot;,&#10;      &quot;numberSectionStyles&quot;: 4,&#10;      &quot;axisFormat&quot;: &quot;%Y-%m-%d&quot;&#10;    }&#10;  }&#10;}" id="3">
                    <mxCell style="shape=image;noLabel=1;verticalAlign=top;imageAspect=1;image=data:image/svg+xml,PHN2ZyB2aWV3Qm94PSIwIDAgNTM0LjA3NDIxODc1IDM1MiIgc3R5bGU9Im1heC13aWR0aDogNTM0LjA3NDIxODc1cHg7IiBoZWlnaHQ9IjM1MiIgYXJpYS1sYWJlbGxlZGJ5PSJjaGFydC10aXRsZS1nZU1lcm1haWRPdXRwdXQtMTcyNTk5MjI4MTkxOCBjaGFydC1kZXNjLWdlTWVybWFpZE91dHB1dC0xNzI1OTkyMjgxOTE4IiByb2xlPSJpbWciIHhtbG5zOnhsaW5rPSJodHRwOi8vd3d3LnczLm9yZy8xOTk5L3hsaW5rIiB4bWxucz0iaHR0cDovL3d3dy53My5vcmcvMjAwMC9zdmciIHdpZHRoPSIxMDAlIiBpZD0iZ2VNZXJtYWlkT3V0cHV0LTE3MjU5OTIyODE5MTgiPjx0aXRsZSBpZD0iY2hhcnQtdGl0bGUtZ2VNZXJtYWlkT3V0cHV0LTE3MjU5OTIyODE5MTgiPjwvdGl0bGU+PGRlc2MgaWQ9ImNoYXJ0LWRlc2MtZ2VNZXJtYWlkT3V0cHV0LTE3MjU5OTIyODE5MTgiPjwvZGVzYz48c3R5bGU+I2dlTWVybWFpZE91dHB1dC0xNzI1OTkyMjgxOTE4IHtmb250LWZhbWlseToidHJlYnVjaGV0IG1zIix2ZXJkYW5hLGFyaWFsLHNhbnMtc2VyaWY7Zm9udC1zaXplOjE2cHg7ZmlsbDojMDAwMDAwO30jZ2VNZXJtYWlkT3V0cHV0LTE3MjU5OTIyODE5MTggLmVycm9yLWljb257ZmlsbDojNTUyMjIyO30jZ2VNZXJtYWlkT3V0cHV0LTE3MjU5OTIyODE5MTggLmVycm9yLXRleHR7ZmlsbDojNTUyMjIyO3N0cm9rZTojNTUyMjIyO30jZ2VNZXJtYWlkT3V0cHV0LTE3MjU5OTIyODE5MTggLmVkZ2UtdGhpY2tuZXNzLW5vcm1hbHtzdHJva2Utd2lkdGg6MnB4O30jZ2VNZXJtYWlkT3V0cHV0LTE3MjU5OTIyODE5MTggLmVkZ2UtdGhpY2tuZXNzLXRoaWNre3N0cm9rZS13aWR0aDozLjVweDt9I2dlTWVybWFpZE91dHB1dC0xNzI1OTkyMjgxOTE4IC5lZGdlLXBhdHRlcm4tc29saWR7c3Ryb2tlLWRhc2hhcnJheTowO30jZ2VNZXJtYWlkT3V0cHV0LTE3MjU5OTIyODE5MTggLmVkZ2UtcGF0dGVybi1kYXNoZWR7c3Ryb2tlLWRhc2hhcnJheTozO30jZ2VNZXJtYWlkT3V0cHV0LTE3MjU5OTIyODE5MTggLmVkZ2UtcGF0dGVybi1kb3R0ZWR7c3Ryb2tlLWRhc2hhcnJheToyO30jZ2VNZXJtYWlkT3V0cHV0LTE3MjU5OTIyODE5MTggLm1hcmtlcntmaWxsOiM2NjY7c3Ryb2tlOiM2NjY7fSNnZU1lcm1haWRPdXRwdXQtMTcyNTk5MjI4MTkxOCAubWFya2VyLmNyb3Nze3N0cm9rZTojNjY2O30jZ2VNZXJtYWlkT3V0cHV0LTE3MjU5OTIyODE5MTggc3Zne2ZvbnQtZmFtaWx5OiJ0cmVidWNoZXQgbXMiLHZlcmRhbmEsYXJpYWwsc2Fucy1zZXJpZjtmb250LXNpemU6MTZweDt9I2dlTWVybWFpZE91dHB1dC0xNzI1OTkyMjgxOTE4IC5sYWJlbHtmb250LWZhbWlseToidHJlYnVjaGV0IG1zIix2ZXJkYW5hLGFyaWFsLHNhbnMtc2VyaWY7Y29sb3I6IzAwMDAwMDt9I2dlTWVybWFpZE91dHB1dC0xNzI1OTkyMjgxOTE4IC5jbHVzdGVyLWxhYmVsIHRleHR7ZmlsbDojMzMzO30jZ2VNZXJtYWlkT3V0cHV0LTE3MjU5OTIyODE5MTggLmNsdXN0ZXItbGFiZWwgc3Bhbntjb2xvcjojMzMzO30jZ2VNZXJtYWlkT3V0cHV0LTE3MjU5OTIyODE5MTggLmxhYmVsIHRleHQsI2dlTWVybWFpZE91dHB1dC0xNzI1OTkyMjgxOTE4IHNwYW57ZmlsbDojMDAwMDAwO2NvbG9yOiMwMDAwMDA7fSNnZU1lcm1haWRPdXRwdXQtMTcyNTk5MjI4MTkxOCAubm9kZSByZWN0LCNnZU1lcm1haWRPdXRwdXQtMTcyNTk5MjI4MTkxOCAubm9kZSBjaXJjbGUsI2dlTWVybWFpZE91dHB1dC0xNzI1OTkyMjgxOTE4IC5ub2RlIGVsbGlwc2UsI2dlTWVybWFpZE91dHB1dC0xNzI1OTkyMjgxOTE4IC5ub2RlIHBvbHlnb24sI2dlTWVybWFpZE91dHB1dC0xNzI1OTkyMjgxOTE4IC5ub2RlIHBhdGh7ZmlsbDojZWVlO3N0cm9rZTojOTk5O3N0cm9rZS13aWR0aDoxcHg7fSNnZU1lcm1haWRPdXRwdXQtMTcyNTk5MjI4MTkxOCAubm9kZSAubGFiZWx7dGV4dC1hbGlnbjpjZW50ZXI7fSNnZU1lcm1haWRPdXRwdXQtMTcyNTk5MjI4MTkxOCAubm9kZS5jbGlja2FibGV7Y3Vyc29yOnBvaW50ZXI7fSNnZU1lcm1haWRPdXRwdXQtMTcyNTk5MjI4MTkxOCAuYXJyb3doZWFkUGF0aHtmaWxsOiMzMzMzMzM7fSNnZU1lcm1haWRPdXRwdXQtMTcyNTk5MjI4MTkxOCAuZWRnZVBhdGggLnBhdGh7c3Ryb2tlOiM2NjY7c3Ryb2tlLXdpZHRoOjIuMHB4O30jZ2VNZXJtYWlkT3V0cHV0LTE3MjU5OTIyODE5MTggLmZsb3djaGFydC1saW5re3N0cm9rZTojNjY2O2ZpbGw6bm9uZTt9I2dlTWVybWFpZE91dHB1dC0xNzI1OTkyMjgxOTE4IC5lZGdlTGFiZWx7YmFja2dyb3VuZC1jb2xvcjp3aGl0ZTt0ZXh0LWFsaWduOmNlbnRlcjt9I2dlTWVybWFpZE91dHB1dC0xNzI1OTkyMjgxOTE4IC5lZGdlTGFiZWwgcmVjdHtvcGFjaXR5OjAuNTtiYWNrZ3JvdW5kLWNvbG9yOndoaXRlO2ZpbGw6d2hpdGU7fSNnZU1lcm1haWRPdXRwdXQtMTcyNTk5MjI4MTkxOCAuY2x1c3RlciByZWN0e2ZpbGw6aHNsKDAsIDAlLCA5OC45MjE1Njg2Mjc1JSk7c3Ryb2tlOiM3MDcwNzA7c3Ryb2tlLXdpZHRoOjFweDt9I2dlTWVybWFpZE91dHB1dC0xNzI1OTkyMjgxOTE4IC5jbHVzdGVyIHRleHR7ZmlsbDojMzMzO30jZ2VNZXJtYWlkT3V0cHV0LTE3MjU5OTIyODE5MTggLmNsdXN0ZXIgc3Bhbntjb2xvcjojMzMzO30jZ2VNZXJtYWlkT3V0cHV0LTE3MjU5OTIyODE5MTggZGl2Lm1lcm1haWRUb29sdGlwe3Bvc2l0aW9uOmFic29sdXRlO3RleHQtYWxpZ246Y2VudGVyO21heC13aWR0aDoyMDBweDtwYWRkaW5nOjJweDtmb250LWZhbWlseToidHJlYnVjaGV0IG1zIix2ZXJkYW5hLGFyaWFsLHNhbnMtc2VyaWY7Zm9udC1zaXplOjEycHg7YmFja2dyb3VuZDpoc2woLTE2MCwgMCUsIDkzLjMzMzMzMzMzMzMlKTtib3JkZXI6MXB4IHNvbGlkICM3MDcwNzA7Ym9yZGVyLXJhZGl1czoycHg7cG9pbnRlci1ldmVudHM6bm9uZTt6LWluZGV4OjEwMDt9I2dlTWVybWFpZE91dHB1dC0xNzI1OTkyMjgxOTE4IDpyb290ey0tbWVybWFpZC1mb250LWZhbWlseToidHJlYnVjaGV0IG1zIix2ZXJkYW5hLGFyaWFsLHNhbnMtc2VyaWY7fTwvc3R5bGU+PGcgdHJhbnNmb3JtPSJ0cmFuc2xhdGUoMCwgMCkiPjxtYXJrZXIgb3JpZW50PSJhdXRvIiBtYXJrZXJIZWlnaHQ9IjEyIiBtYXJrZXJXaWR0aD0iMTIiIG1hcmtlclVuaXRzPSJ1c2VyU3BhY2VPblVzZSIgcmVmWT0iNSIgcmVmWD0iOSIgdmlld0JveD0iMCAwIDEwIDEwIiBjbGFzcz0ibWFya2VyIGZsb3djaGFydCIgaWQ9ImZsb3djaGFydC1wb2ludEVuZCI+PHBhdGggc3R5bGU9InN0cm9rZS13aWR0aDogMTsgc3Ryb2tlLWRhc2hhcnJheTogMSwgMDsiIGNsYXNzPSJhcnJvd01hcmtlclBhdGgiIGQ9Ik0gMCAwIEwgMTAgNSBMIDAgMTAgeiI+PC9wYXRoPjwvbWFya2VyPjxtYXJrZXIgb3JpZW50PSJhdXRvIiBtYXJrZXJIZWlnaHQ9IjEyIiBtYXJrZXJXaWR0aD0iMTIiIG1hcmtlclVuaXRzPSJ1c2VyU3BhY2VPblVzZSIgcmVmWT0iNSIgcmVmWD0iMCIgdmlld0JveD0iMCAwIDEwIDEwIiBjbGFzcz0ibWFya2VyIGZsb3djaGFydCIgaWQ9ImZsb3djaGFydC1wb2ludFN0YXJ0Ij48cGF0aCBzdHlsZT0ic3Ryb2tlLXdpZHRoOiAxOyBzdHJva2UtZGFzaGFycmF5OiAxLCAwOyIgY2xhc3M9ImFycm93TWFya2VyUGF0aCIgZD0iTSAwIDUgTCAxMCAxMCBMIDEwIDAgeiI+PC9wYXRoPjwvbWFya2VyPjxtYXJrZXIgb3JpZW50PSJhdXRvIiBtYXJrZXJIZWlnaHQ9IjExIiBtYXJrZXJXaWR0aD0iMTEiIG1hcmtlclVuaXRzPSJ1c2VyU3BhY2VPblVzZSIgcmVmWT0iNSIgcmVmWD0iMTEiIHZpZXdCb3g9IjAgMCAxMCAxMCIgY2xhc3M9Im1hcmtlciBmbG93Y2hhcnQiIGlkPSJmbG93Y2hhcnQtY2lyY2xlRW5kIj48Y2lyY2xlIHN0eWxlPSJzdHJva2Utd2lkdGg6IDE7IHN0cm9rZS1kYXNoYXJyYXk6IDEsIDA7IiBjbGFzcz0iYXJyb3dNYXJrZXJQYXRoIiByPSI1IiBjeT0iNSIgY3g9IjUiPjwvY2lyY2xlPjwvbWFya2VyPjxtYXJrZXIgb3JpZW50PSJhdXRvIiBtYXJrZXJIZWlnaHQ9IjExIiBtYXJrZXJXaWR0aD0iMTEiIG1hcmtlclVuaXRzPSJ1c2VyU3BhY2VPblVzZSIgcmVmWT0iNSIgcmVmWD0iLTEiIHZpZXdCb3g9IjAgMCAxMCAxMCIgY2xhc3M9Im1hcmtlciBmbG93Y2hhcnQiIGlkPSJmbG93Y2hhcnQtY2lyY2xlU3RhcnQiPjxjaXJjbGUgc3R5bGU9InN0cm9rZS13aWR0aDogMTsgc3Ryb2tlLWRhc2hhcnJheTogMSwgMDsiIGNsYXNzPSJhcnJvd01hcmtlclBhdGgiIHI9IjUiIGN5PSI1IiBjeD0iNSI+PC9jaXJjbGU+PC9tYXJrZXI+PG1hcmtlciBvcmllbnQ9ImF1dG8iIG1hcmtlckhlaWdodD0iMTEiIG1hcmtlcldpZHRoPSIxMSIgbWFya2VyVW5pdHM9InVzZXJTcGFjZU9uVXNlIiByZWZZPSI1LjIiIHJlZlg9IjEyIiB2aWV3Qm94PSIwIDAgMTEgMTEiIGNsYXNzPSJtYXJrZXIgY3Jvc3MgZmxvd2NoYXJ0IiBpZD0iZmxvd2NoYXJ0LWNyb3NzRW5kIj48cGF0aCBzdHlsZT0ic3Ryb2tlLXdpZHRoOiAyOyBzdHJva2UtZGFzaGFycmF5OiAxLCAwOyIgY2xhc3M9ImFycm93TWFya2VyUGF0aCIgZD0iTSAxLDEgbCA5LDkgTSAxMCwxIGwgLTksOSI+PC9wYXRoPjwvbWFya2VyPjxtYXJrZXIgb3JpZW50PSJhdXRvIiBtYXJrZXJIZWlnaHQ9IjExIiBtYXJrZXJXaWR0aD0iMTEiIG1hcmtlclVuaXRzPSJ1c2VyU3BhY2VPblVzZSIgcmVmWT0iNS4yIiByZWZYPSItMSIgdmlld0JveD0iMCAwIDExIDExIiBjbGFzcz0ibWFya2VyIGNyb3NzIGZsb3djaGFydCIgaWQ9ImZsb3djaGFydC1jcm9zc1N0YXJ0Ij48cGF0aCBzdHlsZT0ic3Ryb2tlLXdpZHRoOiAyOyBzdHJva2UtZGFzaGFycmF5OiAxLCAwOyIgY2xhc3M9ImFycm93TWFya2VyUGF0aCIgZD0iTSAxLDEgbCA5LDkgTSAxMCwxIGwgLTksOSI+PC9wYXRoPjwvbWFya2VyPjxnIGNsYXNzPSJyb290Ij48ZyBjbGFzcz0iY2x1c3RlcnMiPjxnIGlkPSJzdWJHcmFwaDAiIGNsYXNzPSJjbHVzdGVyIGRlZmF1bHQiPjxyZWN0IGhlaWdodD0iMTY4IiB3aWR0aD0iMzMwLjk1NzAzMTI1IiB5PSI5MiIgeD0iOCIgcnk9IjAiIHJ4PSIwIiBzdHlsZT0iIj48L3JlY3Q+PGcgdHJhbnNmb3JtPSJ0cmFuc2xhdGUoMTEyLjQ2Mjg5MDYyNSwgOTcpIiBjbGFzcz0iY2x1c3Rlci1sYWJlbCI+PHRleHQgc3R5bGU9IiI+PHRzcGFuIGNsYXNzPSJyb3ciIHg9IjAiIGR5PSIxZW0iIHhtbDpzcGFjZT0icHJlc2VydmUiPk1vZGVsIFByb2Nlc3Npbmc8L3RzcGFuPjwvdGV4dD48L2c+PC9nPjwvZz48ZyBjbGFzcz0iZWRnZVBhdGhzIj48cGF0aCBtYXJrZXItZW5kPSJ1cmwoI2Zsb3djaGFydC1wb2ludEVuZCkiIHN0eWxlPSJmaWxsOm5vbmU7IiBjbGFzcz0iZWRnZS10aGlja25lc3Mtbm9ybWFsIGVkZ2UtcGF0dGVybi1zb2xpZCBmbG93Y2hhcnQtbGluayBMUy1BIExFLUIiIGlkPSJMLUEtQi0wIiBkPSJNMjM1LjQ0MTQwNjI1LDQyTDIzNS40NDE0MDYyNSw0Ni4xNjY2NjY2NjY2NjY2NjRDMjM1LjQ0MTQwNjI1LDUwLjMzMzMzMzMzMzMzMzMzNiwyMzUuNDQxNDA2MjUsNTguNjY2NjY2NjY2NjY2NjY0LDIzNS40NDE0MDYyNSw2N0MyMzUuNDQxNDA2MjUsNzUuMzMzMzMzMzMzMzMzMzMsMjM1LjQ0MTQwNjI1LDgzLjY2NjY2NjY2NjY2NjY3LDIzNS40NDE0MDYyNSw5MkMyMzUuNDQxNDA2MjUsMTAwLjMzMzMzMzMzMzMzMzMzLDIzNS40NDE0MDYyNSwxMDguNjY2NjY2NjY2NjY2NjcsMjM1LjQ0MTQwNjI1LDExMi44MzMzMzMzMzMzMzMzM0wyMzUuNDQxNDA2MjUsMTE3Ij48L3BhdGg+PHBhdGggbWFya2VyLWVuZD0idXJsKCNmbG93Y2hhcnQtcG9pbnRFbmQpIiBzdHlsZT0iZmlsbDpub25lOyIgY2xhc3M9ImVkZ2UtdGhpY2tuZXNzLW5vcm1hbCBlZGdlLXBhdHRlcm4tc29saWQgZmxvd2NoYXJ0LWxpbmsgTFMtQiBMRS1DIiBpZD0iTC1CLUMtMCIgZD0iTTI1Ni4zOTA5OTcwMjM4MDk1LDE1MUwyNjEuNTI1NzAwNjQ0ODQxMjcsMTU1LjE2NjY2NjY2NjY2NjY2QzI2Ni42NjA0MDQyNjU4NzMsMTU5LjMzMzMzMzMzMzMzMzM0LDI3Ni45Mjk4MTE1MDc5MzY1LDE2Ny42NjY2NjY2NjY2NjY2NiwyOTguMjE2OTM2MzgzOTI4NiwxNzZDMzE5LjUwNDA2MTI1OTkyMDY2LDE4NC4zMzMzMzMzMzMzMzMzNCwzNTEuODA4OTAzNzY5ODQxMjcsMTkyLjY2NjY2NjY2NjY2NjY2LDM2Ny45NjEzMjUwMjQ4MDE2LDE5Ni44MzMzMzMzMzMzMzMzNEwzODQuMTEzNzQ2Mjc5NzYxOSwyMDEiPjwvcGF0aD48cGF0aCBtYXJrZXItZW5kPSJ1cmwoI2Zsb3djaGFydC1wb2ludEVuZCkiIHN0eWxlPSJmaWxsOm5vbmU7IiBjbGFzcz0iZWRnZS10aGlja25lc3Mtbm9ybWFsIGVkZ2UtcGF0dGVybi1zb2xpZCBmbG93Y2hhcnQtbGluayBMUy1DIExFLUQiIGlkPSJMLUMtRC0wIiBkPSJNNDUwLjAxNTYyNSwyMzVMNDUwLjAxNTYyNSwyMzkuMTY2NjY2NjY2NjY2NjZDNDUwLjAxNTYyNSwyNDMuMzMzMzMzMzMzMzMzMzQsNDUwLjAxNTYyNSwyNTEuNjY2NjY2NjY2NjY2NjYsNDUwLjAxNTYyNSwyNjBDNDUwLjAxNTYyNSwyNjguMzMzMzMzMzMzMzMzMyw0NTAuMDE1NjI1LDI3Ni42NjY2NjY2NjY2NjY3LDQ1MC4wMTU2MjUsMjg1QzQ1MC4wMTU2MjUsMjkzLjMzMzMzMzMzMzMzMzMsNDUwLjAxNTYyNSwzMDEuNjY2NjY2NjY2NjY2Nyw0NTAuMDE1NjI1LDMwNS44MzMzMzMzMzMzMzMzTDQ1MC4wMTU2MjUsMzEwIj48L3BhdGg+PHBhdGggbWFya2VyLWVuZD0idXJsKCNmbG93Y2hhcnQtcG9pbnRFbmQpIiBzdHlsZT0iZmlsbDpub25lOyIgY2xhc3M9ImVkZ2UtdGhpY2tuZXNzLW5vcm1hbCBlZGdlLXBhdHRlcm4tc29saWQgZmxvd2NoYXJ0LWxpbmsgTFMtQiBMRS1CMSIgaWQ9IkwtQi1CMS0wIiBkPSJNMTc5LjA5NzI4NDIyNjE5MDQ4LDE1MUwxNjUuMjg3NDUwMzk2ODI1NCwxNTUuMTY2NjY2NjY2NjY2NjZDMTUxLjQ3NzYxNjU2NzQ2MDMzLDE1OS4zMzMzMzMzMzMzMzMzNCwxMjMuODU3OTQ4OTA4NzMwMTcsMTY3LjY2NjY2NjY2NjY2NjY2LDExMC4wNDgxMTUwNzkzNjUwOCwxNzZDOTYuMjM4MjgxMjUsMTg0LjMzMzMzMzMzMzMzMzM0LDk2LjIzODI4MTI1LDE5Mi42NjY2NjY2NjY2NjY2Niw5Ni4yMzgyODEyNSwxOTYuODMzMzMzMzMzMzMzMzRMOTYuMjM4MjgxMjUsMjAxIj48L3BhdGg+PHBhdGggbWFya2VyLWVuZD0idXJsKCNmbG93Y2hhcnQtcG9pbnRFbmQpIiBzdHlsZT0iZmlsbDpub25lOyIgY2xhc3M9ImVkZ2UtdGhpY2tuZXNzLW5vcm1hbCBlZGdlLXBhdHRlcm4tc29saWQgZmxvd2NoYXJ0LWxpbmsgTFMtQiBMRS1CMiIgaWQ9IkwtQi1CMi0wIiBkPSJNMjM3Ljc3MTk0OTQwNDc2MTksMTUxTDIzOC4zNDMxNjA5NjIzMDE1NywxNTUuMTY2NjY2NjY2NjY2NjZDMjM4LjkxNDM3MjUxOTg0MTMsMTU5LjMzMzMzMzMzMzMzMzM0LDI0MC4wNTY3OTU2MzQ5MjA2MywxNjcuNjY2NjY2NjY2NjY2NjYsMjQwLjYyODAwNzE5MjQ2MDMzLDE3NkMyNDEuMTk5MjE4NzUsMTg0LjMzMzMzMzMzMzMzMzM0LDI0MS4xOTkyMTg3NSwxOTIuNjY2NjY2NjY2NjY2NjYsMjQxLjE5OTIxODc1LDE5Ni44MzMzMzMzMzMzMzMzNEwyNDEuMTk5MjE4NzUsMjAxIj48L3BhdGg+PC9nPjxnIGNsYXNzPSJlZGdlTGFiZWxzIj48ZyBjbGFzcz0iZWRnZUxhYmVsIj48ZyB0cmFuc2Zvcm09InRyYW5zbGF0ZSgwLCAwKSIgY2xhc3M9ImxhYmVsIj48cmVjdCBoZWlnaHQ9IjAiIHdpZHRoPSIwIiByeT0iMCIgcng9IjAiPjwvcmVjdD48dGV4dCBzdHlsZT0iIj48dHNwYW4gY2xhc3M9InJvdyIgeD0iMCIgZHk9IjFlbSIgeG1sOnNwYWNlPSJwcmVzZXJ2ZSI+PC90c3Bhbj48L3RleHQ+PC9nPjwvZz48ZyBjbGFzcz0iZWRnZUxhYmVsIj48ZyB0cmFuc2Zvcm09InRyYW5zbGF0ZSgwLCAwKSIgY2xhc3M9ImxhYmVsIj48cmVjdCBoZWlnaHQ9IjAiIHdpZHRoPSIwIiByeT0iMCIgcng9IjAiPjwvcmVjdD48dGV4dCBzdHlsZT0iIj48dHNwYW4gY2xhc3M9InJvdyIgeD0iMCIgZHk9IjFlbSIgeG1sOnNwYWNlPSJwcmVzZXJ2ZSI+PC90c3Bhbj48L3RleHQ+PC9nPjwvZz48ZyBjbGFzcz0iZWRnZUxhYmVsIj48ZyB0cmFuc2Zvcm09InRyYW5zbGF0ZSgwLCAwKSIgY2xhc3M9ImxhYmVsIj48cmVjdCBoZWlnaHQ9IjAiIHdpZHRoPSIwIiByeT0iMCIgcng9IjAiPjwvcmVjdD48dGV4dCBzdHlsZT0iIj48dHNwYW4gY2xhc3M9InJvdyIgeD0iMCIgZHk9IjFlbSIgeG1sOnNwYWNlPSJwcmVzZXJ2ZSI+PC90c3Bhbj48L3RleHQ+PC9nPjwvZz48ZyBjbGFzcz0iZWRnZUxhYmVsIj48ZyB0cmFuc2Zvcm09InRyYW5zbGF0ZSgwLCAwKSIgY2xhc3M9ImxhYmVsIj48cmVjdCBoZWlnaHQ9IjAiIHdpZHRoPSIwIiByeT0iMCIgcng9IjAiPjwvcmVjdD48dGV4dCBzdHlsZT0iIj48dHNwYW4gY2xhc3M9InJvdyIgeD0iMCIgZHk9IjFlbSIgeG1sOnNwYWNlPSJwcmVzZXJ2ZSI+PC90c3Bhbj48L3RleHQ+PC9nPjwvZz48ZyBjbGFzcz0iZWRnZUxhYmVsIj48ZyB0cmFuc2Zvcm09InRyYW5zbGF0ZSgwLCAwKSIgY2xhc3M9ImxhYmVsIj48cmVjdCBoZWlnaHQ9IjAiIHdpZHRoPSIwIiByeT0iMCIgcng9IjAiPjwvcmVjdD48dGV4dCBzdHlsZT0iIj48dHNwYW4gY2xhc3M9InJvdyIgeD0iMCIgZHk9IjFlbSIgeG1sOnNwYWNlPSJwcmVzZXJ2ZSI+PC90c3Bhbj48L3RleHQ+PC9nPjwvZz48L2c+PGcgY2xhc3M9Im5vZGVzIj48ZyB0cmFuc2Zvcm09InRyYW5zbGF0ZSg5Ni4yMzgyODEyNSwgMjE4KSIgaWQ9ImZsb3djaGFydC1CMS05NiIgY2xhc3M9Im5vZGUgZGVmYXVsdCBkZWZhdWx0Ij48cmVjdCBoZWlnaHQ9IjM0IiB3aWR0aD0iMTA2LjQ3NjU2MjUiIHk9Ii0xNyIgeD0iLTUzLjIzODI4MTI1IiByeT0iMCIgcng9IjAiIHN0eWxlPSIiIGNsYXNzPSJiYXNpYyBsYWJlbC1jb250YWluZXIiPjwvcmVjdD48ZyB0cmFuc2Zvcm09InRyYW5zbGF0ZSgtNDUuNzM4MjgxMjUsIC05LjUpIiBzdHlsZT0iIiBjbGFzcz0ibGFiZWwiPjx0ZXh0IHN0eWxlPSIiPjx0c3BhbiBjbGFzcz0icm93IiB4PSIwIiBkeT0iMWVtIiB4bWw6c3BhY2U9InByZXNlcnZlIj5Ub2tlbml6YXRpb248L3RzcGFuPjwvdGV4dD48L2c+PC9nPjxnIHRyYW5zZm9ybT0idHJhbnNsYXRlKDI0MS4xOTkyMTg3NSwgMjE4KSIgaWQ9ImZsb3djaGFydC1CMi05NyIgY2xhc3M9Im5vZGUgZGVmYXVsdCBkZWZhdWx0Ij48cmVjdCBoZWlnaHQ9IjM0IiB3aWR0aD0iODMuNDQ1MzEyNSIgeT0iLTE3IiB4PSItNDEuNzIyNjU2MjUiIHJ5PSIwIiByeD0iMCIgc3R5bGU9IiIgY2xhc3M9ImJhc2ljIGxhYmVsLWNvbnRhaW5lciI+PC9yZWN0PjxnIHRyYW5zZm9ybT0idHJhbnNsYXRlKC0zNC4yMjI2NTYyNSwgLTkuNSkiIHN0eWxlPSIiIGNsYXNzPSJsYWJlbCI+PHRleHQgc3R5bGU9IiI+PHRzcGFuIGNsYXNzPSJyb3ciIHg9IjAiIGR5PSIxZW0iIHhtbDpzcGFjZT0icHJlc2VydmUiPkluZmVyZW5jZTwvdHNwYW4+PC90ZXh0PjwvZz48L2c+PGcgdHJhbnNmb3JtPSJ0cmFuc2xhdGUoMjM1LjQ0MTQwNjI1LCAxMzQpIiBpZD0iZmxvd2NoYXJ0LUItOTEiIGNsYXNzPSJub2RlIGRlZmF1bHQgZGVmYXVsdCI+PHJlY3QgaGVpZ2h0PSIzNCIgd2lkdGg9IjEzNy4wMzEyNSIgeT0iLTE3IiB4PSItNjguNTE1NjI1IiByeT0iMCIgcng9IjAiIHN0eWxlPSIiIGNsYXNzPSJiYXNpYyBsYWJlbC1jb250YWluZXIiPjwvcmVjdD48ZyB0cmFuc2Zvcm09InRyYW5zbGF0ZSgtNjEuMDE1NjI1LCAtOS41KSIgc3R5bGU9IiIgY2xhc3M9ImxhYmVsIj48dGV4dCBzdHlsZT0iIj48dHNwYW4gY2xhc3M9InJvdyIgeD0iMCIgZHk9IjFlbSIgeG1sOnNwYWNlPSJwcmVzZXJ2ZSI+TW9kZWwgUHJvY2Vzc2luZzwvdHNwYW4+PC90ZXh0PjwvZz48L2c+PGcgdHJhbnNmb3JtPSJ0cmFuc2xhdGUoMjM1LjQ0MTQwNjI1LCAyNSkiIGlkPSJmbG93Y2hhcnQtQS05MCIgY2xhc3M9Im5vZGUgZGVmYXVsdCBkZWZhdWx0Ij48cmVjdCBoZWlnaHQ9IjM0IiB3aWR0aD0iMTAzLjc4OTA2MjUiIHk9Ii0xNyIgeD0iLTUxLjg5NDUzMTI1IiByeT0iMCIgcng9IjAiIHN0eWxlPSIiIGNsYXNzPSJiYXNpYyBsYWJlbC1jb250YWluZXIiPjwvcmVjdD48ZyB0cmFuc2Zvcm09InRyYW5zbGF0ZSgtNDQuMzk0NTMxMjUsIC05LjUpIiBzdHlsZT0iIiBjbGFzcz0ibGFiZWwiPjx0ZXh0IHN0eWxlPSIiPjx0c3BhbiBjbGFzcz0icm93IiB4PSIwIiBkeT0iMWVtIiB4bWw6c3BhY2U9InByZXNlcnZlIj5Vc2VyIFByb21wdDwvdHNwYW4+PC90ZXh0PjwvZz48L2c+PGcgdHJhbnNmb3JtPSJ0cmFuc2xhdGUoNDUwLjAxNTYyNSwgMjE4KSIgaWQ9ImZsb3djaGFydC1DLTkzIiBjbGFzcz0ibm9kZSBkZWZhdWx0IGRlZmF1bHQiPjxyZWN0IGhlaWdodD0iMzQiIHdpZHRoPSIxNTIuMTE3MTg3NSIgeT0iLTE3IiB4PSItNzYuMDU4NTkzNzUiIHJ5PSIwIiByeD0iMCIgc3R5bGU9IiIgY2xhc3M9ImJhc2ljIGxhYmVsLWNvbnRhaW5lciI+PC9yZWN0PjxnIHRyYW5zZm9ybT0idHJhbnNsYXRlKC02OC41NTg1OTM3NSwgLTkuNSkiIHN0eWxlPSIiIGNsYXNzPSJsYWJlbCI+PHRleHQgc3R5bGU9IiI+PHRzcGFuIGNsYXNzPSJyb3ciIHg9IjAiIGR5PSIxZW0iIHhtbDpzcGFjZT0icHJlc2VydmUiPkdlbmVyYXRlIFJlc3BvbnNlPC90c3Bhbj48L3RleHQ+PC9nPjwvZz48ZyB0cmFuc2Zvcm09InRyYW5zbGF0ZSg0NTAuMDE1NjI1LCAzMjcpIiBpZD0iZmxvd2NoYXJ0LUQtOTUiIGNsYXNzPSJub2RlIGRlZmF1bHQgZGVmYXVsdCI+PHJlY3QgaGVpZ2h0PSIzNCIgd2lkdGg9IjEzMi4xNDg0Mzc1IiB5PSItMTciIHg9Ii02Ni4wNzQyMTg3NSIgcnk9IjAiIHJ4PSIwIiBzdHlsZT0iIiBjbGFzcz0iYmFzaWMgbGFiZWwtY29udGFpbmVyIj48L3JlY3Q+PGcgdHJhbnNmb3JtPSJ0cmFuc2xhdGUoLTU4LjU3NDIxODc1LCAtOS41KSIgc3R5bGU9IiIgY2xhc3M9ImxhYmVsIj48dGV4dCBzdHlsZT0iIj48dHNwYW4gY2xhc3M9InJvdyIgeD0iMCIgZHk9IjFlbSIgeG1sOnNwYWNlPSJwcmVzZXJ2ZSI+Q2hhdEdQVCBPdXRwdXQ8L3RzcGFuPjwvdGV4dD48L2c+PC9nPjwvZz48L2c+PC9nPjwvc3ZnPg==;" vertex="1" parent="1">
                        <mxGeometry x="450" y="261" width="100" height="352" as="geometry"/>
                    </mxCell>
                </UserObject>
                <UserObject label="" mermaidData="{&#10;  &quot;data&quot;: &quot;flowchart TD\n    A[Collect Data] --&gt; B[Preprocess Data]\n    B --&gt; C[Tokenize Data]\n    C --&gt; D[Train Model]\n    D --&gt; E[Evaluate Model]\n    E --&gt; F[Fine-Tune Model]\n    F --&gt; G[Deploy Model]\n\n    subgraph Preprocess Data\n        B1[Clean Text]\n        B2[Format Data]\n        B --&gt; B1\n        B --&gt; B2\n    end\n\n    subgraph Train Model\n        D1[Feed Data to Model]\n        D2[Adjust Weights]\n        D --&gt; D1\n        D --&gt; D2\n    end\n&quot;,&#10;  &quot;config&quot;: {&#10;    &quot;theme&quot;: &quot;neutral&quot;,&#10;    &quot;arrowMarkerAbsolute&quot;: false,&#10;    &quot;flowchart&quot;: {&#10;      &quot;htmlLabels&quot;: false&#10;    },&#10;    &quot;sequence&quot;: {&#10;      &quot;diagramMarginX&quot;: 50,&#10;      &quot;diagramMarginY&quot;: 10,&#10;      &quot;actorMargin&quot;: 50,&#10;      &quot;width&quot;: 150,&#10;      &quot;height&quot;: 65,&#10;      &quot;boxMargin&quot;: 10,&#10;      &quot;boxTextMargin&quot;: 5,&#10;      &quot;noteMargin&quot;: 10,&#10;      &quot;messageMargin&quot;: 35,&#10;      &quot;mirrorActors&quot;: true,&#10;      &quot;bottomMarginAdj&quot;: 1,&#10;      &quot;useMaxWidth&quot;: true,&#10;      &quot;rightAngles&quot;: false,&#10;      &quot;showSequenceNumbers&quot;: false&#10;    },&#10;    &quot;gantt&quot;: {&#10;      &quot;titleTopMargin&quot;: 25,&#10;      &quot;barHeight&quot;: 20,&#10;      &quot;barGap&quot;: 4,&#10;      &quot;topPadding&quot;: 50,&#10;      &quot;leftPadding&quot;: 75,&#10;      &quot;gridLineStartPadding&quot;: 35,&#10;      &quot;fontSize&quot;: 11,&#10;      &quot;fontFamily&quot;: &quot;\&quot;Open-Sans\&quot;, \&quot;sans-serif\&quot;&quot;,&#10;      &quot;numberSectionStyles&quot;: 4,&#10;      &quot;axisFormat&quot;: &quot;%Y-%m-%d&quot;&#10;    }&#10;  }&#10;}" id="4">
                    <mxCell style="shape=image;noLabel=1;verticalAlign=top;imageAspect=1;image=data:image/svg+xml,PHN2ZyB2aWV3Qm94PSIwIDAgNjk2Ljg5MDYyNSA2NTQiIHN0eWxlPSJtYXgtd2lkdGg6IDY5Ni44OTA2MjVweDsiIGhlaWdodD0iNjU0IiBhcmlhLWxhYmVsbGVkYnk9ImNoYXJ0LXRpdGxlLWdlTWVybWFpZE91dHB1dC0xNzI1OTkyMzM0OTA0IGNoYXJ0LWRlc2MtZ2VNZXJtYWlkT3V0cHV0LTE3MjU5OTIzMzQ5MDQiIHJvbGU9ImltZyIgeG1sbnM6eGxpbms9Imh0dHA6Ly93d3cudzMub3JnLzE5OTkveGxpbmsiIHhtbG5zPSJodHRwOi8vd3d3LnczLm9yZy8yMDAwL3N2ZyIgd2lkdGg9IjEwMCUiIGlkPSJnZU1lcm1haWRPdXRwdXQtMTcyNTk5MjMzNDkwNCI+PHRpdGxlIGlkPSJjaGFydC10aXRsZS1nZU1lcm1haWRPdXRwdXQtMTcyNTk5MjMzNDkwNCI+PC90aXRsZT48ZGVzYyBpZD0iY2hhcnQtZGVzYy1nZU1lcm1haWRPdXRwdXQtMTcyNTk5MjMzNDkwNCI+PC9kZXNjPjxzdHlsZT4jZ2VNZXJtYWlkT3V0cHV0LTE3MjU5OTIzMzQ5MDQge2ZvbnQtZmFtaWx5OiJ0cmVidWNoZXQgbXMiLHZlcmRhbmEsYXJpYWwsc2Fucy1zZXJpZjtmb250LXNpemU6MTZweDtmaWxsOiMwMDAwMDA7fSNnZU1lcm1haWRPdXRwdXQtMTcyNTk5MjMzNDkwNCAuZXJyb3ItaWNvbntmaWxsOiM1NTIyMjI7fSNnZU1lcm1haWRPdXRwdXQtMTcyNTk5MjMzNDkwNCAuZXJyb3ItdGV4dHtmaWxsOiM1NTIyMjI7c3Ryb2tlOiM1NTIyMjI7fSNnZU1lcm1haWRPdXRwdXQtMTcyNTk5MjMzNDkwNCAuZWRnZS10aGlja25lc3Mtbm9ybWFse3N0cm9rZS13aWR0aDoycHg7fSNnZU1lcm1haWRPdXRwdXQtMTcyNTk5MjMzNDkwNCAuZWRnZS10aGlja25lc3MtdGhpY2t7c3Ryb2tlLXdpZHRoOjMuNXB4O30jZ2VNZXJtYWlkT3V0cHV0LTE3MjU5OTIzMzQ5MDQgLmVkZ2UtcGF0dGVybi1zb2xpZHtzdHJva2UtZGFzaGFycmF5OjA7fSNnZU1lcm1haWRPdXRwdXQtMTcyNTk5MjMzNDkwNCAuZWRnZS1wYXR0ZXJuLWRhc2hlZHtzdHJva2UtZGFzaGFycmF5OjM7fSNnZU1lcm1haWRPdXRwdXQtMTcyNTk5MjMzNDkwNCAuZWRnZS1wYXR0ZXJuLWRvdHRlZHtzdHJva2UtZGFzaGFycmF5OjI7fSNnZU1lcm1haWRPdXRwdXQtMTcyNTk5MjMzNDkwNCAubWFya2Vye2ZpbGw6IzY2NjtzdHJva2U6IzY2Njt9I2dlTWVybWFpZE91dHB1dC0xNzI1OTkyMzM0OTA0IC5tYXJrZXIuY3Jvc3N7c3Ryb2tlOiM2NjY7fSNnZU1lcm1haWRPdXRwdXQtMTcyNTk5MjMzNDkwNCBzdmd7Zm9udC1mYW1pbHk6InRyZWJ1Y2hldCBtcyIsdmVyZGFuYSxhcmlhbCxzYW5zLXNlcmlmO2ZvbnQtc2l6ZToxNnB4O30jZ2VNZXJtYWlkT3V0cHV0LTE3MjU5OTIzMzQ5MDQgLmxhYmVse2ZvbnQtZmFtaWx5OiJ0cmVidWNoZXQgbXMiLHZlcmRhbmEsYXJpYWwsc2Fucy1zZXJpZjtjb2xvcjojMDAwMDAwO30jZ2VNZXJtYWlkT3V0cHV0LTE3MjU5OTIzMzQ5MDQgLmNsdXN0ZXItbGFiZWwgdGV4dHtmaWxsOiMzMzM7fSNnZU1lcm1haWRPdXRwdXQtMTcyNTk5MjMzNDkwNCAuY2x1c3Rlci1sYWJlbCBzcGFue2NvbG9yOiMzMzM7fSNnZU1lcm1haWRPdXRwdXQtMTcyNTk5MjMzNDkwNCAubGFiZWwgdGV4dCwjZ2VNZXJtYWlkT3V0cHV0LTE3MjU5OTIzMzQ5MDQgc3BhbntmaWxsOiMwMDAwMDA7Y29sb3I6IzAwMDAwMDt9I2dlTWVybWFpZE91dHB1dC0xNzI1OTkyMzM0OTA0IC5ub2RlIHJlY3QsI2dlTWVybWFpZE91dHB1dC0xNzI1OTkyMzM0OTA0IC5ub2RlIGNpcmNsZSwjZ2VNZXJtYWlkT3V0cHV0LTE3MjU5OTIzMzQ5MDQgLm5vZGUgZWxsaXBzZSwjZ2VNZXJtYWlkT3V0cHV0LTE3MjU5OTIzMzQ5MDQgLm5vZGUgcG9seWdvbiwjZ2VNZXJtYWlkT3V0cHV0LTE3MjU5OTIzMzQ5MDQgLm5vZGUgcGF0aHtmaWxsOiNlZWU7c3Ryb2tlOiM5OTk7c3Ryb2tlLXdpZHRoOjFweDt9I2dlTWVybWFpZE91dHB1dC0xNzI1OTkyMzM0OTA0IC5ub2RlIC5sYWJlbHt0ZXh0LWFsaWduOmNlbnRlcjt9I2dlTWVybWFpZE91dHB1dC0xNzI1OTkyMzM0OTA0IC5ub2RlLmNsaWNrYWJsZXtjdXJzb3I6cG9pbnRlcjt9I2dlTWVybWFpZE91dHB1dC0xNzI1OTkyMzM0OTA0IC5hcnJvd2hlYWRQYXRoe2ZpbGw6IzMzMzMzMzt9I2dlTWVybWFpZE91dHB1dC0xNzI1OTkyMzM0OTA0IC5lZGdlUGF0aCAucGF0aHtzdHJva2U6IzY2NjtzdHJva2Utd2lkdGg6Mi4wcHg7fSNnZU1lcm1haWRPdXRwdXQtMTcyNTk5MjMzNDkwNCAuZmxvd2NoYXJ0LWxpbmt7c3Ryb2tlOiM2NjY7ZmlsbDpub25lO30jZ2VNZXJtYWlkT3V0cHV0LTE3MjU5OTIzMzQ5MDQgLmVkZ2VMYWJlbHtiYWNrZ3JvdW5kLWNvbG9yOndoaXRlO3RleHQtYWxpZ246Y2VudGVyO30jZ2VNZXJtYWlkT3V0cHV0LTE3MjU5OTIzMzQ5MDQgLmVkZ2VMYWJlbCByZWN0e29wYWNpdHk6MC41O2JhY2tncm91bmQtY29sb3I6d2hpdGU7ZmlsbDp3aGl0ZTt9I2dlTWVybWFpZE91dHB1dC0xNzI1OTkyMzM0OTA0IC5jbHVzdGVyIHJlY3R7ZmlsbDpoc2woMCwgMCUsIDk4LjkyMTU2ODYyNzUlKTtzdHJva2U6IzcwNzA3MDtzdHJva2Utd2lkdGg6MXB4O30jZ2VNZXJtYWlkT3V0cHV0LTE3MjU5OTIzMzQ5MDQgLmNsdXN0ZXIgdGV4dHtmaWxsOiMzMzM7fSNnZU1lcm1haWRPdXRwdXQtMTcyNTk5MjMzNDkwNCAuY2x1c3RlciBzcGFue2NvbG9yOiMzMzM7fSNnZU1lcm1haWRPdXRwdXQtMTcyNTk5MjMzNDkwNCBkaXYubWVybWFpZFRvb2x0aXB7cG9zaXRpb246YWJzb2x1dGU7dGV4dC1hbGlnbjpjZW50ZXI7bWF4LXdpZHRoOjIwMHB4O3BhZGRpbmc6MnB4O2ZvbnQtZmFtaWx5OiJ0cmVidWNoZXQgbXMiLHZlcmRhbmEsYXJpYWwsc2Fucy1zZXJpZjtmb250LXNpemU6MTJweDtiYWNrZ3JvdW5kOmhzbCgtMTYwLCAwJSwgOTMuMzMzMzMzMzMzMyUpO2JvcmRlcjoxcHggc29saWQgIzcwNzA3MDtib3JkZXItcmFkaXVzOjJweDtwb2ludGVyLWV2ZW50czpub25lO3otaW5kZXg6MTAwO30jZ2VNZXJtYWlkT3V0cHV0LTE3MjU5OTIzMzQ5MDQgOnJvb3R7LS1tZXJtYWlkLWZvbnQtZmFtaWx5OiJ0cmVidWNoZXQgbXMiLHZlcmRhbmEsYXJpYWwsc2Fucy1zZXJpZjt9PC9zdHlsZT48ZyB0cmFuc2Zvcm09InRyYW5zbGF0ZSgwLCAwKSI+PG1hcmtlciBvcmllbnQ9ImF1dG8iIG1hcmtlckhlaWdodD0iMTIiIG1hcmtlcldpZHRoPSIxMiIgbWFya2VyVW5pdHM9InVzZXJTcGFjZU9uVXNlIiByZWZZPSI1IiByZWZYPSI5IiB2aWV3Qm94PSIwIDAgMTAgMTAiIGNsYXNzPSJtYXJrZXIgZmxvd2NoYXJ0IiBpZD0iZmxvd2NoYXJ0LXBvaW50RW5kIj48cGF0aCBzdHlsZT0ic3Ryb2tlLXdpZHRoOiAxOyBzdHJva2UtZGFzaGFycmF5OiAxLCAwOyIgY2xhc3M9ImFycm93TWFya2VyUGF0aCIgZD0iTSAwIDAgTCAxMCA1IEwgMCAxMCB6Ij48L3BhdGg+PC9tYXJrZXI+PG1hcmtlciBvcmllbnQ9ImF1dG8iIG1hcmtlckhlaWdodD0iMTIiIG1hcmtlcldpZHRoPSIxMiIgbWFya2VyVW5pdHM9InVzZXJTcGFjZU9uVXNlIiByZWZZPSI1IiByZWZYPSIwIiB2aWV3Qm94PSIwIDAgMTAgMTAiIGNsYXNzPSJtYXJrZXIgZmxvd2NoYXJ0IiBpZD0iZmxvd2NoYXJ0LXBvaW50U3RhcnQiPjxwYXRoIHN0eWxlPSJzdHJva2Utd2lkdGg6IDE7IHN0cm9rZS1kYXNoYXJyYXk6IDEsIDA7IiBjbGFzcz0iYXJyb3dNYXJrZXJQYXRoIiBkPSJNIDAgNSBMIDEwIDEwIEwgMTAgMCB6Ij48L3BhdGg+PC9tYXJrZXI+PG1hcmtlciBvcmllbnQ9ImF1dG8iIG1hcmtlckhlaWdodD0iMTEiIG1hcmtlcldpZHRoPSIxMSIgbWFya2VyVW5pdHM9InVzZXJTcGFjZU9uVXNlIiByZWZZPSI1IiByZWZYPSIxMSIgdmlld0JveD0iMCAwIDEwIDEwIiBjbGFzcz0ibWFya2VyIGZsb3djaGFydCIgaWQ9ImZsb3djaGFydC1jaXJjbGVFbmQiPjxjaXJjbGUgc3R5bGU9InN0cm9rZS13aWR0aDogMTsgc3Ryb2tlLWRhc2hhcnJheTogMSwgMDsiIGNsYXNzPSJhcnJvd01hcmtlclBhdGgiIHI9IjUiIGN5PSI1IiBjeD0iNSI+PC9jaXJjbGU+PC9tYXJrZXI+PG1hcmtlciBvcmllbnQ9ImF1dG8iIG1hcmtlckhlaWdodD0iMTEiIG1hcmtlcldpZHRoPSIxMSIgbWFya2VyVW5pdHM9InVzZXJTcGFjZU9uVXNlIiByZWZZPSI1IiByZWZYPSItMSIgdmlld0JveD0iMCAwIDEwIDEwIiBjbGFzcz0ibWFya2VyIGZsb3djaGFydCIgaWQ9ImZsb3djaGFydC1jaXJjbGVTdGFydCI+PGNpcmNsZSBzdHlsZT0ic3Ryb2tlLXdpZHRoOiAxOyBzdHJva2UtZGFzaGFycmF5OiAxLCAwOyIgY2xhc3M9ImFycm93TWFya2VyUGF0aCIgcj0iNSIgY3k9IjUiIGN4PSI1Ij48L2NpcmNsZT48L21hcmtlcj48bWFya2VyIG9yaWVudD0iYXV0byIgbWFya2VySGVpZ2h0PSIxMSIgbWFya2VyV2lkdGg9IjExIiBtYXJrZXJVbml0cz0idXNlclNwYWNlT25Vc2UiIHJlZlk9IjUuMiIgcmVmWD0iMTIiIHZpZXdCb3g9IjAgMCAxMSAxMSIgY2xhc3M9Im1hcmtlciBjcm9zcyBmbG93Y2hhcnQiIGlkPSJmbG93Y2hhcnQtY3Jvc3NFbmQiPjxwYXRoIHN0eWxlPSJzdHJva2Utd2lkdGg6IDI7IHN0cm9rZS1kYXNoYXJyYXk6IDEsIDA7IiBjbGFzcz0iYXJyb3dNYXJrZXJQYXRoIiBkPSJNIDEsMSBsIDksOSBNIDEwLDEgbCAtOSw5Ij48L3BhdGg+PC9tYXJrZXI+PG1hcmtlciBvcmllbnQ9ImF1dG8iIG1hcmtlckhlaWdodD0iMTEiIG1hcmtlcldpZHRoPSIxMSIgbWFya2VyVW5pdHM9InVzZXJTcGFjZU9uVXNlIiByZWZZPSI1LjIiIHJlZlg9Ii0xIiB2aWV3Qm94PSIwIDAgMTEgMTEiIGNsYXNzPSJtYXJrZXIgY3Jvc3MgZmxvd2NoYXJ0IiBpZD0iZmxvd2NoYXJ0LWNyb3NzU3RhcnQiPjxwYXRoIHN0eWxlPSJzdHJva2Utd2lkdGg6IDI7IHN0cm9rZS1kYXNoYXJyYXk6IDEsIDA7IiBjbGFzcz0iYXJyb3dNYXJrZXJQYXRoIiBkPSJNIDEsMSBsIDksOSBNIDEwLDEgbCAtOSw5Ij48L3BhdGg+PC9tYXJrZXI+PGcgY2xhc3M9InJvb3QiPjxnIGNsYXNzPSJjbHVzdGVycyI+PGcgaWQ9InN1YkdyYXBoMSIgY2xhc3M9ImNsdXN0ZXIgZGVmYXVsdCI+PHJlY3QgaGVpZ2h0PSIxNjgiIHdpZHRoPSIzOTcuNjA5Mzc1IiB5PSIzMTAiIHg9IjEyOC4xNDA2MjUiIHJ5PSIwIiByeD0iMCIgc3R5bGU9IiI+PC9yZWN0PjxnIHRyYW5zZm9ybT0idHJhbnNsYXRlKDI4NS4wMTU2MjUsIDMxNSkiIGNsYXNzPSJjbHVzdGVyLWxhYmVsIj48dGV4dCBzdHlsZT0iIj48dHNwYW4gY2xhc3M9InJvdyIgeD0iMCIgZHk9IjFlbSIgeG1sOnNwYWNlPSJwcmVzZXJ2ZSI+VHJhaW4gTW9kZWw8L3RzcGFuPjwvdGV4dD48L2c+PC9nPjxnIGlkPSJzdWJHcmFwaDAiIGNsYXNzPSJjbHVzdGVyIGRlZmF1bHQiPjxyZWN0IGhlaWdodD0iMTY4IiB3aWR0aD0iMzMxLjQyMzgyODEyNSIgeT0iOTIiIHg9IjgiIHJ5PSIwIiByeD0iMCIgc3R5bGU9IiI+PC9yZWN0PjxnIHRyYW5zZm9ybT0idHJhbnNsYXRlKDExNi4zMDE3NTc4MTI1LCA5NykiIGNsYXNzPSJjbHVzdGVyLWxhYmVsIj48dGV4dCBzdHlsZT0iIj48dHNwYW4gY2xhc3M9InJvdyIgeD0iMCIgZHk9IjFlbSIgeG1sOnNwYWNlPSJwcmVzZXJ2ZSI+UHJlcHJvY2VzcyBEYXRhPC90c3Bhbj48L3RleHQ+PC9nPjwvZz48L2c+PGcgY2xhc3M9ImVkZ2VQYXRocyI+PHBhdGggbWFya2VyLWVuZD0idXJsKCNmbG93Y2hhcnQtcG9pbnRFbmQpIiBzdHlsZT0iZmlsbDpub25lOyIgY2xhc3M9ImVkZ2UtdGhpY2tuZXNzLW5vcm1hbCBlZGdlLXBhdHRlcm4tc29saWQgZmxvd2NoYXJ0LWxpbmsgTFMtQSBMRS1CIiBpZD0iTC1BLUItMCIgZD0iTTIzNi4wNDI5Njg3NSw0MkwyMzYuMDQyOTY4NzUsNDYuMTY2NjY2NjY2NjY2NjY0QzIzNi4wNDI5Njg3NSw1MC4zMzMzMzMzMzMzMzMzMzYsMjM2LjA0Mjk2ODc1LDU4LjY2NjY2NjY2NjY2NjY2NCwyMzYuMDQyOTY4NzUsNjdDMjM2LjA0Mjk2ODc1LDc1LjMzMzMzMzMzMzMzMzMzLDIzNi4wNDI5Njg3NSw4My42NjY2NjY2NjY2NjY2NywyMzYuMDQyOTY4NzUsOTJDMjM2LjA0Mjk2ODc1LDEwMC4zMzMzMzMzMzMzMzMzMywyMzYuMDQyOTY4NzUsMTA4LjY2NjY2NjY2NjY2NjY3LDIzNi4wNDI5Njg3NSwxMTIuODMzMzMzMzMzMzMzMzNMMjM2LjA0Mjk2ODc1LDExNyI+PC9wYXRoPjxwYXRoIG1hcmtlci1lbmQ9InVybCgjZmxvd2NoYXJ0LXBvaW50RW5kKSIgc3R5bGU9ImZpbGw6bm9uZTsiIGNsYXNzPSJlZGdlLXRoaWNrbmVzcy1ub3JtYWwgZWRnZS1wYXR0ZXJuLXNvbGlkIGZsb3djaGFydC1saW5rIExTLUIgTEUtQyIgaWQ9IkwtQi1DLTAiIGQ9Ik0yNTYuMjYyODgxMzI0NDA0NzYsMTUxTDI2MS4yMTg3NDIyNDk1MDQsMTU1LjE2NjY2NjY2NjY2NjY2QzI2Ni4xNzQ2MDMxNzQ2MDMyLDE1OS4zMzMzMzMzMzMzMzMzNCwyNzYuMDg2MzI1MDI0ODAxNiwxNjcuNjY2NjY2NjY2NjY2NjYsMjk1Ljc3OTgxNjE1ODIzNDE1LDE3Ni4wNTA2OTY4NjU2NTcwN0MzMTUuNDczMzA3MjkxNjY2NywxODQuNDM0NzI3MDY0NjQ3NSwzNDQuOTQ4NTY3NzA4MzMzMywxOTIuODY5NDU0MTI5Mjk0OTUsMzU5LjY4NjE5NzkxNjY2NjcsMTk3LjA4NjgxNzY2MTYxODc0TDM3NC40MjM4MjgxMjUsMjAxLjMwNDE4MTE5Mzk0MjQ3Ij48L3BhdGg+PHBhdGggbWFya2VyLWVuZD0idXJsKCNmbG93Y2hhcnQtcG9pbnRFbmQpIiBzdHlsZT0iZmlsbDpub25lOyIgY2xhc3M9ImVkZ2UtdGhpY2tuZXNzLW5vcm1hbCBlZGdlLXBhdHRlcm4tc29saWQgZmxvd2NoYXJ0LWxpbmsgTFMtQyBMRS1EIiBpZD0iTC1DLUQtMCIgZD0iTTQzMi43Njc1NzgxMjUsMjM1TDQzMi43Njc1NzgxMjUsMjM5LjE2NjY2NjY2NjY2NjY2QzQzMi43Njc1NzgxMjUsMjQzLjMzMzMzMzMzMzMzMzM0LDQzMi43Njc1NzgxMjUsMjUxLjY2NjY2NjY2NjY2NjY2LDQzMi43Njc1NzgxMjUsMjYwQzQzMi43Njc1NzgxMjUsMjY4LjMzMzMzMzMzMzMzMzMsNDMyLjc2NzU3ODEyNSwyNzYuNjY2NjY2NjY2NjY2Nyw0MzIuNzY3NTc4MTI1LDI4NUM0MzIuNzY3NTc4MTI1LDI5My4zMzMzMzMzMzMzMzMzLDQzMi43Njc1NzgxMjUsMzAxLjY2NjY2NjY2NjY2NjcsNDMyLjc2NzU3ODEyNSwzMTBDNDMyLjc2NzU3ODEyNSwzMTguMzMzMzMzMzMzMzMzMyw0MzIuNzY3NTc4MTI1LDMyNi42NjY2NjY2NjY2NjY3LDQzMi43Njc1NzgxMjUsMzMwLjgzMzMzMzMzMzMzMzNMNDMyLjc2NzU3ODEyNSwzMzUiPjwvcGF0aD48cGF0aCBtYXJrZXItZW5kPSJ1cmwoI2Zsb3djaGFydC1wb2ludEVuZCkiIHN0eWxlPSJmaWxsOm5vbmU7IiBjbGFzcz0iZWRnZS10aGlja25lc3Mtbm9ybWFsIGVkZ2UtcGF0dGVybi1zb2xpZCBmbG93Y2hhcnQtbGluayBMUy1EIExFLUUiIGlkPSJMLUQtRS0wIiBkPSJNNDUwLjg4MzA0NTAxNDg4MDk2LDM2OUw0NTUuMzIzMTEwNDI5MDY3NCwzNzMuMTY2NjY2NjY2NjY2N0M0NTkuNzYzMTc1ODQzMjU0LDM3Ny4zMzMzMzMzMzMzMzMzLDQ2OC42NDMzMDY2NzE2MjcsMzg1LjY2NjY2NjY2NjY2NjcsNDg3LjQ5ODEzMjEzMDQ1NjI3LDM5NEM1MDYuMzUyOTU3NTg5Mjg1Nyw0MDIuMzMzMzMzMzMzMzMzMyw1MzUuMTgyNDc3Njc4NTcxNCw0MTAuNjY2NjY2NjY2NjY2Nyw1NDkuNTk3MjM3NzIzMjE0Miw0MTQuODMzMzMzMzMzMzMzM0w1NjQuMDExOTk3NzY3ODU3MSw0MTkiPjwvcGF0aD48cGF0aCBtYXJrZXItZW5kPSJ1cmwoI2Zsb3djaGFydC1wb2ludEVuZCkiIHN0eWxlPSJmaWxsOm5vbmU7IiBjbGFzcz0iZWRnZS10aGlja25lc3Mtbm9ybWFsIGVkZ2UtcGF0dGVybi1zb2xpZCBmbG93Y2hhcnQtbGluayBMUy1FIExFLUYiIGlkPSJMLUUtRi0wIiBkPSJNNjIyLjgyNDIxODc1LDQ1M0w2MjIuODI0MjE4NzUsNDU3LjE2NjY2NjY2NjY2NjdDNjIyLjgyNDIxODc1LDQ2MS4zMzMzMzMzMzMzMzMzLDYyMi44MjQyMTg3NSw0NjkuNjY2NjY2NjY2NjY2Nyw2MjIuODI0MjE4NzUsNDc4QzYyMi44MjQyMTg3NSw0ODYuMzMzMzMzMzMzMzMzMyw2MjIuODI0MjE4NzUsNDk0LjY2NjY2NjY2NjY2NjcsNjIyLjgyNDIxODc1LDUwM0M2MjIuODI0MjE4NzUsNTExLjMzMzMzMzMzMzMzMzMsNjIyLjgyNDIxODc1LDUxOS42NjY2NjY2NjY2NjY2LDYyMi44MjQyMTg3NSw1MjMuODMzMzMzMzMzMzMzNEw2MjIuODI0MjE4NzUsNTI4Ij48L3BhdGg+PHBhdGggbWFya2VyLWVuZD0idXJsKCNmbG93Y2hhcnQtcG9pbnRFbmQpIiBzdHlsZT0iZmlsbDpub25lOyIgY2xhc3M9ImVkZ2UtdGhpY2tuZXNzLW5vcm1hbCBlZGdlLXBhdHRlcm4tc29saWQgZmxvd2NoYXJ0LWxpbmsgTFMtRiBMRS1HIiBpZD0iTC1GLUctMCIgZD0iTTYyMi44MjQyMTg3NSw1NjJMNjIyLjgyNDIxODc1LDU2Ni4xNjY2NjY2NjY2NjY2QzYyMi44MjQyMTg3NSw1NzAuMzMzMzMzMzMzMzMzNCw2MjIuODI0MjE4NzUsNTc4LjY2NjY2NjY2NjY2NjYsNjIyLjgyNDIxODc1LDU4N0M2MjIuODI0MjE4NzUsNTk1LjMzMzMzMzMzMzMzMzQsNjIyLjgyNDIxODc1LDYwMy42NjY2NjY2NjY2NjY2LDYyMi44MjQyMTg3NSw2MDcuODMzMzMzMzMzMzMzNEw2MjIuODI0MjE4NzUsNjEyIj48L3BhdGg+PHBhdGggbWFya2VyLWVuZD0idXJsKCNmbG93Y2hhcnQtcG9pbnRFbmQpIiBzdHlsZT0iZmlsbDpub25lOyIgY2xhc3M9ImVkZ2UtdGhpY2tuZXNzLW5vcm1hbCBlZGdlLXBhdHRlcm4tc29saWQgZmxvd2NoYXJ0LWxpbmsgTFMtQiBMRS1CMSIgaWQ9IkwtQi1CMS0wIiBkPSJNMTc2LjI2OTQzODI0NDA0NzYyLDE1MUwxNjEuNjE5MDYzMTIwMDM5NjcsMTU1LjE2NjY2NjY2NjY2NjY2QzE0Ni45Njg2ODc5OTYwMzE3NSwxNTkuMzMzMzMzMzMzMzMzMzQsMTE3LjY2NzkzNzc0ODAxNTg2LDE2Ny42NjY2NjY2NjY2NjY2NiwxMDMuMDE3NTYyNjI0MDA3OTQsMTc2Qzg4LjM2NzE4NzUsMTg0LjMzMzMzMzMzMzMzMzM0LDg4LjM2NzE4NzUsMTkyLjY2NjY2NjY2NjY2NjY2LDg4LjM2NzE4NzUsMTk2LjgzMzMzMzMzMzMzMzM0TDg4LjM2NzE4NzUsMjAxIj48L3BhdGg+PHBhdGggbWFya2VyLWVuZD0idXJsKCNmbG93Y2hhcnQtcG9pbnRFbmQpIiBzdHlsZT0iZmlsbDpub25lOyIgY2xhc3M9ImVkZ2UtdGhpY2tuZXNzLW5vcm1hbCBlZGdlLXBhdHRlcm4tc29saWQgZmxvd2NoYXJ0LWxpbmsgTFMtQiBMRS1CMiIgaWQ9IkwtQi1CMi0wIiBkPSJNMjM2LjA0Mjk2ODc1LDE1MUwyMzYuMDQyOTY4NzUsMTU1LjE2NjY2NjY2NjY2NjY2QzIzNi4wNDI5Njg3NSwxNTkuMzMzMzMzMzMzMzMzMzQsMjM2LjA0Mjk2ODc1LDE2Ny42NjY2NjY2NjY2NjY2NiwyMzYuMDQyOTY4NzUsMTc2QzIzNi4wNDI5Njg3NSwxODQuMzMzMzMzMzMzMzMzMzQsMjM2LjA0Mjk2ODc1LDE5Mi42NjY2NjY2NjY2NjY2NiwyMzYuMDQyOTY4NzUsMTk2LjgzMzMzMzMzMzMzMzM0TDIzNi4wNDI5Njg3NSwyMDEiPjwvcGF0aD48cGF0aCBtYXJrZXItZW5kPSJ1cmwoI2Zsb3djaGFydC1wb2ludEVuZCkiIHN0eWxlPSJmaWxsOm5vbmU7IiBjbGFzcz0iZWRnZS10aGlja25lc3Mtbm9ybWFsIGVkZ2UtcGF0dGVybi1zb2xpZCBmbG93Y2hhcnQtbGluayBMUy1EIExFLUQxIiBpZD0iTC1ELUQxLTAiIGQ9Ik0zODMuMzM3ODkwNjI1LDM2Mi43OTcyNTczNTE4MjA4TDM1OS41MzAyNzM0Mzc1LDM2Ny45OTc3MTQ0NTk4NTA2N0MzMzUuNzIyNjU2MjUsMzczLjE5ODE3MTU2Nzg4MDU0LDI4OC4xMDc0MjE4NzUsMzgzLjU5OTA4NTc4Mzk0MDMsMjY0LjI5OTgwNDY4NzUsMzkyLjk2NjIwOTU1ODYzNjhDMjQwLjQ5MjE4NzUsNDAyLjMzMzMzMzMzMzMzMzMsMjQwLjQ5MjE4NzUsNDEwLjY2NjY2NjY2NjY2NjcsMjQwLjQ5MjE4NzUsNDE0LjgzMzMzMzMzMzMzMzNMMjQwLjQ5MjE4NzUsNDE5Ij48L3BhdGg+PHBhdGggbWFya2VyLWVuZD0idXJsKCNmbG93Y2hhcnQtcG9pbnRFbmQpIiBzdHlsZT0iZmlsbDpub25lOyIgY2xhc3M9ImVkZ2UtdGhpY2tuZXNzLW5vcm1hbCBlZGdlLXBhdHRlcm4tc29saWQgZmxvd2NoYXJ0LWxpbmsgTFMtRCBMRS1EMiIgaWQ9IkwtRC1EMi0wIiBkPSJNNDMxLjM2Mjc2OTcxNzI2MTksMzY5TDQzMS4wMTg0NTM5MzEwNTE2LDM3My4xNjY2NjY2NjY2NjY3QzQzMC42NzQxMzgxNDQ4NDEyNywzNzcuMzMzMzMzMzMzMzMzMyw0MjkuOTg1NTA2NTcyNDIwNjYsMzg1LjY2NjY2NjY2NjY2NjcsNDI5LjY0MTE5MDc4NjIxMDMsMzk0QzQyOS4yOTY4NzUsNDAyLjMzMzMzMzMzMzMzMzMsNDI5LjI5Njg3NSw0MTAuNjY2NjY2NjY2NjY2Nyw0MjkuMjk2ODc1LDQxNC44MzMzMzMzMzMzMzMzTDQyOS4yOTY4NzUsNDE5Ij48L3BhdGg+PC9nPjxnIGNsYXNzPSJlZGdlTGFiZWxzIj48ZyBjbGFzcz0iZWRnZUxhYmVsIj48ZyB0cmFuc2Zvcm09InRyYW5zbGF0ZSgwLCAwKSIgY2xhc3M9ImxhYmVsIj48cmVjdCBoZWlnaHQ9IjAiIHdpZHRoPSIwIiByeT0iMCIgcng9IjAiPjwvcmVjdD48dGV4dCBzdHlsZT0iIj48dHNwYW4gY2xhc3M9InJvdyIgeD0iMCIgZHk9IjFlbSIgeG1sOnNwYWNlPSJwcmVzZXJ2ZSI+PC90c3Bhbj48L3RleHQ+PC9nPjwvZz48ZyBjbGFzcz0iZWRnZUxhYmVsIj48ZyB0cmFuc2Zvcm09InRyYW5zbGF0ZSgwLCAwKSIgY2xhc3M9ImxhYmVsIj48cmVjdCBoZWlnaHQ9IjAiIHdpZHRoPSIwIiByeT0iMCIgcng9IjAiPjwvcmVjdD48dGV4dCBzdHlsZT0iIj48dHNwYW4gY2xhc3M9InJvdyIgeD0iMCIgZHk9IjFlbSIgeG1sOnNwYWNlPSJwcmVzZXJ2ZSI+PC90c3Bhbj48L3RleHQ+PC9nPjwvZz48ZyBjbGFzcz0iZWRnZUxhYmVsIj48ZyB0cmFuc2Zvcm09InRyYW5zbGF0ZSgwLCAwKSIgY2xhc3M9ImxhYmVsIj48cmVjdCBoZWlnaHQ9IjAiIHdpZHRoPSIwIiByeT0iMCIgcng9IjAiPjwvcmVjdD48dGV4dCBzdHlsZT0iIj48dHNwYW4gY2xhc3M9InJvdyIgeD0iMCIgZHk9IjFlbSIgeG1sOnNwYWNlPSJwcmVzZXJ2ZSI+PC90c3Bhbj48L3RleHQ+PC9nPjwvZz48ZyBjbGFzcz0iZWRnZUxhYmVsIj48ZyB0cmFuc2Zvcm09InRyYW5zbGF0ZSgwLCAwKSIgY2xhc3M9ImxhYmVsIj48cmVjdCBoZWlnaHQ9IjAiIHdpZHRoPSIwIiByeT0iMCIgcng9IjAiPjwvcmVjdD48dGV4dCBzdHlsZT0iIj48dHNwYW4gY2xhc3M9InJvdyIgeD0iMCIgZHk9IjFlbSIgeG1sOnNwYWNlPSJwcmVzZXJ2ZSI+PC90c3Bhbj48L3RleHQ+PC9nPjwvZz48ZyBjbGFzcz0iZWRnZUxhYmVsIj48ZyB0cmFuc2Zvcm09InRyYW5zbGF0ZSgwLCAwKSIgY2xhc3M9ImxhYmVsIj48cmVjdCBoZWlnaHQ9IjAiIHdpZHRoPSIwIiByeT0iMCIgcng9IjAiPjwvcmVjdD48dGV4dCBzdHlsZT0iIj48dHNwYW4gY2xhc3M9InJvdyIgeD0iMCIgZHk9IjFlbSIgeG1sOnNwYWNlPSJwcmVzZXJ2ZSI+PC90c3Bhbj48L3RleHQ+PC9nPjwvZz48ZyBjbGFzcz0iZWRnZUxhYmVsIj48ZyB0cmFuc2Zvcm09InRyYW5zbGF0ZSgwLCAwKSIgY2xhc3M9ImxhYmVsIj48cmVjdCBoZWlnaHQ9IjAiIHdpZHRoPSIwIiByeT0iMCIgcng9IjAiPjwvcmVjdD48dGV4dCBzdHlsZT0iIj48dHNwYW4gY2xhc3M9InJvdyIgeD0iMCIgZHk9IjFlbSIgeG1sOnNwYWNlPSJwcmVzZXJ2ZSI+PC90c3Bhbj48L3RleHQ+PC9nPjwvZz48ZyBjbGFzcz0iZWRnZUxhYmVsIj48ZyB0cmFuc2Zvcm09InRyYW5zbGF0ZSgwLCAwKSIgY2xhc3M9ImxhYmVsIj48cmVjdCBoZWlnaHQ9IjAiIHdpZHRoPSIwIiByeT0iMCIgcng9IjAiPjwvcmVjdD48dGV4dCBzdHlsZT0iIj48dHNwYW4gY2xhc3M9InJvdyIgeD0iMCIgZHk9IjFlbSIgeG1sOnNwYWNlPSJwcmVzZXJ2ZSI+PC90c3Bhbj48L3RleHQ+PC9nPjwvZz48ZyBjbGFzcz0iZWRnZUxhYmVsIj48ZyB0cmFuc2Zvcm09InRyYW5zbGF0ZSgwLCAwKSIgY2xhc3M9ImxhYmVsIj48cmVjdCBoZWlnaHQ9IjAiIHdpZHRoPSIwIiByeT0iMCIgcng9IjAiPjwvcmVjdD48dGV4dCBzdHlsZT0iIj48dHNwYW4gY2xhc3M9InJvdyIgeD0iMCIgZHk9IjFlbSIgeG1sOnNwYWNlPSJwcmVzZXJ2ZSI+PC90c3Bhbj48L3RleHQ+PC9nPjwvZz48ZyBjbGFzcz0iZWRnZUxhYmVsIj48ZyB0cmFuc2Zvcm09InRyYW5zbGF0ZSgwLCAwKSIgY2xhc3M9ImxhYmVsIj48cmVjdCBoZWlnaHQ9IjAiIHdpZHRoPSIwIiByeT0iMCIgcng9IjAiPjwvcmVjdD48dGV4dCBzdHlsZT0iIj48dHNwYW4gY2xhc3M9InJvdyIgeD0iMCIgZHk9IjFlbSIgeG1sOnNwYWNlPSJwcmVzZXJ2ZSI+PC90c3Bhbj48L3RleHQ+PC9nPjwvZz48ZyBjbGFzcz0iZWRnZUxhYmVsIj48ZyB0cmFuc2Zvcm09InRyYW5zbGF0ZSgwLCAwKSIgY2xhc3M9ImxhYmVsIj48cmVjdCBoZWlnaHQ9IjAiIHdpZHRoPSIwIiByeT0iMCIgcng9IjAiPjwvcmVjdD48dGV4dCBzdHlsZT0iIj48dHNwYW4gY2xhc3M9InJvdyIgeD0iMCIgZHk9IjFlbSIgeG1sOnNwYWNlPSJwcmVzZXJ2ZSI+PC90c3Bhbj48L3RleHQ+PC9nPjwvZz48L2c+PGcgY2xhc3M9Im5vZGVzIj48ZyB0cmFuc2Zvcm09InRyYW5zbGF0ZSgyNDAuNDkyMTg3NSwgNDM2KSIgaWQ9ImZsb3djaGFydC1EMS0xNDUiIGNsYXNzPSJub2RlIGRlZmF1bHQgZGVmYXVsdCI+PHJlY3QgaGVpZ2h0PSIzNCIgd2lkdGg9IjE1NC43MDMxMjUiIHk9Ii0xNyIgeD0iLTc3LjM1MTU2MjUiIHJ5PSIwIiByeD0iMCIgc3R5bGU9IiIgY2xhc3M9ImJhc2ljIGxhYmVsLWNvbnRhaW5lciI+PC9yZWN0PjxnIHRyYW5zZm9ybT0idHJhbnNsYXRlKC02OS44NTE1NjI1LCAtOS41KSIgc3R5bGU9IiIgY2xhc3M9ImxhYmVsIj48dGV4dCBzdHlsZT0iIj48dHNwYW4gY2xhc3M9InJvdyIgeD0iMCIgZHk9IjFlbSIgeG1sOnNwYWNlPSJwcmVzZXJ2ZSI+RmVlZCBEYXRhIHRvIE1vZGVsPC90c3Bhbj48L3RleHQ+PC9nPjwvZz48ZyB0cmFuc2Zvcm09InRyYW5zbGF0ZSg0MjkuMjk2ODc1LCA0MzYpIiBpZD0iZmxvd2NoYXJ0LUQyLTE0NiIgY2xhc3M9Im5vZGUgZGVmYXVsdCBkZWZhdWx0Ij48cmVjdCBoZWlnaHQ9IjM0IiB3aWR0aD0iMTIyLjkwNjI1IiB5PSItMTciIHg9Ii02MS40NTMxMjUiIHJ5PSIwIiByeD0iMCIgc3R5bGU9IiIgY2xhc3M9ImJhc2ljIGxhYmVsLWNvbnRhaW5lciI+PC9yZWN0PjxnIHRyYW5zZm9ybT0idHJhbnNsYXRlKC01My45NTMxMjUsIC05LjUpIiBzdHlsZT0iIiBjbGFzcz0ibGFiZWwiPjx0ZXh0IHN0eWxlPSIiPjx0c3BhbiBjbGFzcz0icm93IiB4PSIwIiBkeT0iMWVtIiB4bWw6c3BhY2U9InByZXNlcnZlIj5BZGp1c3QgV2VpZ2h0czwvdHNwYW4+PC90ZXh0PjwvZz48L2c+PGcgdHJhbnNmb3JtPSJ0cmFuc2xhdGUoNDMyLjc2NzU3ODEyNSwgMzUyKSIgaWQ9ImZsb3djaGFydC1ELTEzMiIgY2xhc3M9Im5vZGUgZGVmYXVsdCBkZWZhdWx0Ij48cmVjdCBoZWlnaHQ9IjM0IiB3aWR0aD0iOTguODU5Mzc1IiB5PSItMTciIHg9Ii00OS40Mjk2ODc1IiByeT0iMCIgcng9IjAiIHN0eWxlPSIiIGNsYXNzPSJiYXNpYyBsYWJlbC1jb250YWluZXIiPjwvcmVjdD48ZyB0cmFuc2Zvcm09InRyYW5zbGF0ZSgtNDEuOTI5Njg3NSwgLTkuNSkiIHN0eWxlPSIiIGNsYXNzPSJsYWJlbCI+PHRleHQgc3R5bGU9IiI+PHRzcGFuIGNsYXNzPSJyb3ciIHg9IjAiIGR5PSIxZW0iIHhtbDpzcGFjZT0icHJlc2VydmUiPlRyYWluIE1vZGVsPC90c3Bhbj48L3RleHQ+PC9nPjwvZz48ZyB0cmFuc2Zvcm09InRyYW5zbGF0ZSg4OC4zNjcxODc1LCAyMTgpIiBpZD0iZmxvd2NoYXJ0LUIxLTEzOSIgY2xhc3M9Im5vZGUgZGVmYXVsdCBkZWZhdWx0Ij48cmVjdCBoZWlnaHQ9IjM0IiB3aWR0aD0iOTAuNzM0Mzc1IiB5PSItMTciIHg9Ii00NS4zNjcxODc1IiByeT0iMCIgcng9IjAiIHN0eWxlPSIiIGNsYXNzPSJiYXNpYyBsYWJlbC1jb250YWluZXIiPjwvcmVjdD48ZyB0cmFuc2Zvcm09InRyYW5zbGF0ZSgtMzcuODY3MTg3NSwgLTkuNSkiIHN0eWxlPSIiIGNsYXNzPSJsYWJlbCI+PHRleHQgc3R5bGU9IiI+PHRzcGFuIGNsYXNzPSJyb3ciIHg9IjAiIGR5PSIxZW0iIHhtbDpzcGFjZT0icHJlc2VydmUiPkNsZWFuIFRleHQ8L3RzcGFuPjwvdGV4dD48L2c+PC9nPjxnIHRyYW5zZm9ybT0idHJhbnNsYXRlKDIzNi4wNDI5Njg3NSwgMjE4KSIgaWQ9ImZsb3djaGFydC1CMi0xNDAiIGNsYXNzPSJub2RlIGRlZmF1bHQgZGVmYXVsdCI+PHJlY3QgaGVpZ2h0PSIzNCIgd2lkdGg9IjEwNC42MTcxODc1IiB5PSItMTciIHg9Ii01Mi4zMDg1OTM3NSIgcnk9IjAiIHJ4PSIwIiBzdHlsZT0iIiBjbGFzcz0iYmFzaWMgbGFiZWwtY29udGFpbmVyIj48L3JlY3Q+PGcgdHJhbnNmb3JtPSJ0cmFuc2xhdGUoLTQ0LjgwODU5Mzc1LCAtOS41KSIgc3R5bGU9IiIgY2xhc3M9ImxhYmVsIj48dGV4dCBzdHlsZT0iIj48dHNwYW4gY2xhc3M9InJvdyIgeD0iMCIgZHk9IjFlbSIgeG1sOnNwYWNlPSJwcmVzZXJ2ZSI+Rm9ybWF0IERhdGE8L3RzcGFuPjwvdGV4dD48L2c+PC9nPjxnIHRyYW5zZm9ybT0idHJhbnNsYXRlKDIzNi4wNDI5Njg3NSwgMTM0KSIgaWQ9ImZsb3djaGFydC1CLTEyOCIgY2xhc3M9Im5vZGUgZGVmYXVsdCBkZWZhdWx0Ij48cmVjdCBoZWlnaHQ9IjM0IiB3aWR0aD0iMTI5LjgyMDMxMjUiIHk9Ii0xNyIgeD0iLTY0LjkxMDE1NjI1IiByeT0iMCIgcng9IjAiIHN0eWxlPSIiIGNsYXNzPSJiYXNpYyBsYWJlbC1jb250YWluZXIiPjwvcmVjdD48ZyB0cmFuc2Zvcm09InRyYW5zbGF0ZSgtNTcuNDEwMTU2MjUsIC05LjUpIiBzdHlsZT0iIiBjbGFzcz0ibGFiZWwiPjx0ZXh0IHN0eWxlPSIiPjx0c3BhbiBjbGFzcz0icm93IiB4PSIwIiBkeT0iMWVtIiB4bWw6c3BhY2U9InByZXNlcnZlIj5QcmVwcm9jZXNzIERhdGE8L3RzcGFuPjwvdGV4dD48L2c+PC9nPjxnIHRyYW5zZm9ybT0idHJhbnNsYXRlKDIzNi4wNDI5Njg3NSwgMjUpIiBpZD0iZmxvd2NoYXJ0LUEtMTI3IiBjbGFzcz0ibm9kZSBkZWZhdWx0IGRlZmF1bHQiPjxyZWN0IGhlaWdodD0iMzQiIHdpZHRoPSIxMDMuOTY4NzUiIHk9Ii0xNyIgeD0iLTUxLjk4NDM3NSIgcnk9IjAiIHJ4PSIwIiBzdHlsZT0iIiBjbGFzcz0iYmFzaWMgbGFiZWwtY29udGFpbmVyIj48L3JlY3Q+PGcgdHJhbnNmb3JtPSJ0cmFuc2xhdGUoLTQ0LjQ4NDM3NSwgLTkuNSkiIHN0eWxlPSIiIGNsYXNzPSJsYWJlbCI+PHRleHQgc3R5bGU9IiI+PHRzcGFuIGNsYXNzPSJyb3ciIHg9IjAiIGR5PSIxZW0iIHhtbDpzcGFjZT0icHJlc2VydmUiPkNvbGxlY3QgRGF0YTwvdHNwYW4+PC90ZXh0PjwvZz48L2c+PGcgdHJhbnNmb3JtPSJ0cmFuc2xhdGUoNDMyLjc2NzU3ODEyNSwgMjE4KSIgaWQ9ImZsb3djaGFydC1DLTEzMCIgY2xhc3M9Im5vZGUgZGVmYXVsdCBkZWZhdWx0Ij48cmVjdCBoZWlnaHQ9IjM0IiB3aWR0aD0iMTE2LjY4NzUiIHk9Ii0xNyIgeD0iLTU4LjM0Mzc1IiByeT0iMCIgcng9IjAiIHN0eWxlPSIiIGNsYXNzPSJiYXNpYyBsYWJlbC1jb250YWluZXIiPjwvcmVjdD48ZyB0cmFuc2Zvcm09InRyYW5zbGF0ZSgtNTAuODQzNzUsIC05LjUpIiBzdHlsZT0iIiBjbGFzcz0ibGFiZWwiPjx0ZXh0IHN0eWxlPSIiPjx0c3BhbiBjbGFzcz0icm93IiB4PSIwIiBkeT0iMWVtIiB4bWw6c3BhY2U9InByZXNlcnZlIj5Ub2tlbml6ZSBEYXRhPC90c3Bhbj48L3RleHQ+PC9nPjwvZz48ZyB0cmFuc2Zvcm09InRyYW5zbGF0ZSg2MjIuODI0MjE4NzUsIDQzNikiIGlkPSJmbG93Y2hhcnQtRS0xMzQiIGNsYXNzPSJub2RlIGRlZmF1bHQgZGVmYXVsdCI+PHJlY3QgaGVpZ2h0PSIzNCIgd2lkdGg9IjEyNC4xNDg0Mzc1IiB5PSItMTciIHg9Ii02Mi4wNzQyMTg3NSIgcnk9IjAiIHJ4PSIwIiBzdHlsZT0iIiBjbGFzcz0iYmFzaWMgbGFiZWwtY29udGFpbmVyIj48L3JlY3Q+PGcgdHJhbnNmb3JtPSJ0cmFuc2xhdGUoLTU0LjU3NDIxODc1LCAtOS41KSIgc3R5bGU9IiIgY2xhc3M9ImxhYmVsIj48dGV4dCBzdHlsZT0iIj48dHNwYW4gY2xhc3M9InJvdyIgeD0iMCIgZHk9IjFlbSIgeG1sOnNwYWNlPSJwcmVzZXJ2ZSI+RXZhbHVhdGUgTW9kZWw8L3RzcGFuPjwvdGV4dD48L2c+PC9nPjxnIHRyYW5zZm9ybT0idHJhbnNsYXRlKDYyMi44MjQyMTg3NSwgNTQ1KSIgaWQ9ImZsb3djaGFydC1GLTEzNiIgY2xhc3M9Im5vZGUgZGVmYXVsdCBkZWZhdWx0Ij48cmVjdCBoZWlnaHQ9IjM0IiB3aWR0aD0iMTMyLjEzMjgxMjUiIHk9Ii0xNyIgeD0iLTY2LjA2NjQwNjI1IiByeT0iMCIgcng9IjAiIHN0eWxlPSIiIGNsYXNzPSJiYXNpYyBsYWJlbC1jb250YWluZXIiPjwvcmVjdD48ZyB0cmFuc2Zvcm09InRyYW5zbGF0ZSgtNTguNTY2NDA2MjUsIC05LjUpIiBzdHlsZT0iIiBjbGFzcz0ibGFiZWwiPjx0ZXh0IHN0eWxlPSIiPjx0c3BhbiBjbGFzcz0icm93IiB4PSIwIiBkeT0iMWVtIiB4bWw6c3BhY2U9InByZXNlcnZlIj5GaW5lLVR1bmUgTW9kZWw8L3RzcGFuPjwvdGV4dD48L2c+PC9nPjxnIHRyYW5zZm9ybT0idHJhbnNsYXRlKDYyMi44MjQyMTg3NSwgNjI5KSIgaWQ9ImZsb3djaGFydC1HLTEzOCIgY2xhc3M9Im5vZGUgZGVmYXVsdCBkZWZhdWx0Ij48cmVjdCBoZWlnaHQ9IjM0IiB3aWR0aD0iMTExLjA0Njg3NSIgeT0iLTE3IiB4PSItNTUuNTIzNDM3NSIgcnk9IjAiIHJ4PSIwIiBzdHlsZT0iIiBjbGFzcz0iYmFzaWMgbGFiZWwtY29udGFpbmVyIj48L3JlY3Q+PGcgdHJhbnNmb3JtPSJ0cmFuc2xhdGUoLTQ4LjAyMzQzNzUsIC05LjUpIiBzdHlsZT0iIiBjbGFzcz0ibGFiZWwiPjx0ZXh0IHN0eWxlPSIiPjx0c3BhbiBjbGFzcz0icm93IiB4PSIwIiBkeT0iMWVtIiB4bWw6c3BhY2U9InByZXNlcnZlIj5EZXBsb3kgTW9kZWw8L3RzcGFuPjwvdGV4dD48L2c+PC9nPjwvZz48L2c+PC9nPjwvc3ZnPg==;" vertex="1" parent="1">
                        <mxGeometry x="580" y="110" width="100" height="654" as="geometry"/>
                    </mxCell>
                </UserObject>
                <UserObject label="" mermaidData="{&#10;  &quot;data&quot;: &quot;flowchart TD\n    A[Collect Text Data] --&gt; B[Clean and Prepare Data]\n    B --&gt; C[Convert Text to Tokens]\n    C --&gt; D[Train the Model]\n    D --&gt; E[Test the Model]\n    E --&gt; F[Improve the Model]\n    F --&gt; G[Deploy the Model]\n\n    subgraph Clean and Prepare Data\n        B1[Remove Unwanted Text]\n        B2[Fix Errors and Inconsistencies]\n        B3[Organize into Structured Format]\n        B --&gt; B1\n        B --&gt; B2\n        B --&gt; B3\n    end\n\n    subgraph Convert Text to Tokens\n        C1[Break Text into Words or Subwords]\n        C2[Assign Numeric Values to Tokens]\n        C --&gt; C1\n        C --&gt; C2\n    end\n\n    subgraph Train the Model\n        D1[Feed Tokens into Model]\n        D2[Adjust Model Weights]\n        D3[Monitor Training Progress]\n        D --&gt; D1\n        D --&gt; D2\n        D --&gt; D3\n    end\n\n    subgraph Test the Model\n        E1[Evaluate on Validation Data]\n        E2[Measure Accuracy and Performance]\n        E3[Identify Weak Areas]\n        E --&gt; E1\n        E --&gt; E2\n        E --&gt; E3\n    end\n\n    subgraph Improve the Model\n        F1[Tweak Model Parameters]\n        F2[Retrain with Adjustments]\n        F3[Iterate Based on Feedback]\n        F --&gt; F1\n        F --&gt; F2\n        F --&gt; F3\n    end\n\n    subgraph Deploy the Model\n        G1[Integrate into Application]\n        G2[Monitor Performance in Real World]\n        G3[Update as Needed]\n        G --&gt; G1\n        G --&gt; G2\n        G --&gt; G3\n    end\n&quot;,&#10;  &quot;config&quot;: {&#10;    &quot;theme&quot;: &quot;neutral&quot;,&#10;    &quot;arrowMarkerAbsolute&quot;: false,&#10;    &quot;flowchart&quot;: {&#10;      &quot;htmlLabels&quot;: false&#10;    },&#10;    &quot;sequence&quot;: {&#10;      &quot;diagramMarginX&quot;: 50,&#10;      &quot;diagramMarginY&quot;: 10,&#10;      &quot;actorMargin&quot;: 50,&#10;      &quot;width&quot;: 150,&#10;      &quot;height&quot;: 65,&#10;      &quot;boxMargin&quot;: 10,&#10;      &quot;boxTextMargin&quot;: 5,&#10;      &quot;noteMargin&quot;: 10,&#10;      &quot;messageMargin&quot;: 35,&#10;      &quot;mirrorActors&quot;: true,&#10;      &quot;bottomMarginAdj&quot;: 1,&#10;      &quot;useMaxWidth&quot;: true,&#10;      &quot;rightAngles&quot;: false,&#10;      &quot;showSequenceNumbers&quot;: false&#10;    },&#10;    &quot;gantt&quot;: {&#10;      &quot;titleTopMargin&quot;: 25,&#10;      &quot;barHeight&quot;: 20,&#10;      &quot;barGap&quot;: 4,&#10;      &quot;topPadding&quot;: 50,&#10;      &quot;leftPadding&quot;: 75,&#10;      &quot;gridLineStartPadding&quot;: 35,&#10;      &quot;fontSize&quot;: 11,&#10;      &quot;fontFamily&quot;: &quot;\&quot;Open-Sans\&quot;, \&quot;sans-serif\&quot;&quot;,&#10;      &quot;numberSectionStyles&quot;: 4,&#10;      &quot;axisFormat&quot;: &quot;%Y-%m-%d&quot;&#10;    }&#10;  }&#10;}" id="6">
                    <mxCell style="shape=image;noLabel=1;verticalAlign=top;imageAspect=1;image=data:image/svg+xml,PHN2ZyB2aWV3Qm94PSIwIDAgNDY1Mi43MTQ4NDM3NSA5MzgiIHN0eWxlPSJtYXgtd2lkdGg6IDQ2NTIuNzE0ODQzNzVweDsiIGhlaWdodD0iOTM4IiBhcmlhLWxhYmVsbGVkYnk9ImNoYXJ0LXRpdGxlLWdlTWVybWFpZE91dHB1dC0xNzI1OTkyNDM2NTM0IGNoYXJ0LWRlc2MtZ2VNZXJtYWlkT3V0cHV0LTE3MjU5OTI0MzY1MzQiIHJvbGU9ImltZyIgeG1sbnM6eGxpbms9Imh0dHA6Ly93d3cudzMub3JnLzE5OTkveGxpbmsiIHhtbG5zPSJodHRwOi8vd3d3LnczLm9yZy8yMDAwL3N2ZyIgd2lkdGg9IjEwMCUiIGlkPSJnZU1lcm1haWRPdXRwdXQtMTcyNTk5MjQzNjUzNCI+PHRpdGxlIGlkPSJjaGFydC10aXRsZS1nZU1lcm1haWRPdXRwdXQtMTcyNTk5MjQzNjUzNCI+PC90aXRsZT48ZGVzYyBpZD0iY2hhcnQtZGVzYy1nZU1lcm1haWRPdXRwdXQtMTcyNTk5MjQzNjUzNCI+PC9kZXNjPjxzdHlsZT4jZ2VNZXJtYWlkT3V0cHV0LTE3MjU5OTI0MzY1MzQge2ZvbnQtZmFtaWx5OiJ0cmVidWNoZXQgbXMiLHZlcmRhbmEsYXJpYWwsc2Fucy1zZXJpZjtmb250LXNpemU6MTZweDtmaWxsOiMwMDAwMDA7fSNnZU1lcm1haWRPdXRwdXQtMTcyNTk5MjQzNjUzNCAuZXJyb3ItaWNvbntmaWxsOiM1NTIyMjI7fSNnZU1lcm1haWRPdXRwdXQtMTcyNTk5MjQzNjUzNCAuZXJyb3ItdGV4dHtmaWxsOiM1NTIyMjI7c3Ryb2tlOiM1NTIyMjI7fSNnZU1lcm1haWRPdXRwdXQtMTcyNTk5MjQzNjUzNCAuZWRnZS10aGlja25lc3Mtbm9ybWFse3N0cm9rZS13aWR0aDoycHg7fSNnZU1lcm1haWRPdXRwdXQtMTcyNTk5MjQzNjUzNCAuZWRnZS10aGlja25lc3MtdGhpY2t7c3Ryb2tlLXdpZHRoOjMuNXB4O30jZ2VNZXJtYWlkT3V0cHV0LTE3MjU5OTI0MzY1MzQgLmVkZ2UtcGF0dGVybi1zb2xpZHtzdHJva2UtZGFzaGFycmF5OjA7fSNnZU1lcm1haWRPdXRwdXQtMTcyNTk5MjQzNjUzNCAuZWRnZS1wYXR0ZXJuLWRhc2hlZHtzdHJva2UtZGFzaGFycmF5OjM7fSNnZU1lcm1haWRPdXRwdXQtMTcyNTk5MjQzNjUzNCAuZWRnZS1wYXR0ZXJuLWRvdHRlZHtzdHJva2UtZGFzaGFycmF5OjI7fSNnZU1lcm1haWRPdXRwdXQtMTcyNTk5MjQzNjUzNCAubWFya2Vye2ZpbGw6IzY2NjtzdHJva2U6IzY2Njt9I2dlTWVybWFpZE91dHB1dC0xNzI1OTkyNDM2NTM0IC5tYXJrZXIuY3Jvc3N7c3Ryb2tlOiM2NjY7fSNnZU1lcm1haWRPdXRwdXQtMTcyNTk5MjQzNjUzNCBzdmd7Zm9udC1mYW1pbHk6InRyZWJ1Y2hldCBtcyIsdmVyZGFuYSxhcmlhbCxzYW5zLXNlcmlmO2ZvbnQtc2l6ZToxNnB4O30jZ2VNZXJtYWlkT3V0cHV0LTE3MjU5OTI0MzY1MzQgLmxhYmVse2ZvbnQtZmFtaWx5OiJ0cmVidWNoZXQgbXMiLHZlcmRhbmEsYXJpYWwsc2Fucy1zZXJpZjtjb2xvcjojMDAwMDAwO30jZ2VNZXJtYWlkT3V0cHV0LTE3MjU5OTI0MzY1MzQgLmNsdXN0ZXItbGFiZWwgdGV4dHtmaWxsOiMzMzM7fSNnZU1lcm1haWRPdXRwdXQtMTcyNTk5MjQzNjUzNCAuY2x1c3Rlci1sYWJlbCBzcGFue2NvbG9yOiMzMzM7fSNnZU1lcm1haWRPdXRwdXQtMTcyNTk5MjQzNjUzNCAubGFiZWwgdGV4dCwjZ2VNZXJtYWlkT3V0cHV0LTE3MjU5OTI0MzY1MzQgc3BhbntmaWxsOiMwMDAwMDA7Y29sb3I6IzAwMDAwMDt9I2dlTWVybWFpZE91dHB1dC0xNzI1OTkyNDM2NTM0IC5ub2RlIHJlY3QsI2dlTWVybWFpZE91dHB1dC0xNzI1OTkyNDM2NTM0IC5ub2RlIGNpcmNsZSwjZ2VNZXJtYWlkT3V0cHV0LTE3MjU5OTI0MzY1MzQgLm5vZGUgZWxsaXBzZSwjZ2VNZXJtYWlkT3V0cHV0LTE3MjU5OTI0MzY1MzQgLm5vZGUgcG9seWdvbiwjZ2VNZXJtYWlkT3V0cHV0LTE3MjU5OTI0MzY1MzQgLm5vZGUgcGF0aHtmaWxsOiNlZWU7c3Ryb2tlOiM5OTk7c3Ryb2tlLXdpZHRoOjFweDt9I2dlTWVybWFpZE91dHB1dC0xNzI1OTkyNDM2NTM0IC5ub2RlIC5sYWJlbHt0ZXh0LWFsaWduOmNlbnRlcjt9I2dlTWVybWFpZE91dHB1dC0xNzI1OTkyNDM2NTM0IC5ub2RlLmNsaWNrYWJsZXtjdXJzb3I6cG9pbnRlcjt9I2dlTWVybWFpZE91dHB1dC0xNzI1OTkyNDM2NTM0IC5hcnJvd2hlYWRQYXRoe2ZpbGw6IzMzMzMzMzt9I2dlTWVybWFpZE91dHB1dC0xNzI1OTkyNDM2NTM0IC5lZGdlUGF0aCAucGF0aHtzdHJva2U6IzY2NjtzdHJva2Utd2lkdGg6Mi4wcHg7fSNnZU1lcm1haWRPdXRwdXQtMTcyNTk5MjQzNjUzNCAuZmxvd2NoYXJ0LWxpbmt7c3Ryb2tlOiM2NjY7ZmlsbDpub25lO30jZ2VNZXJtYWlkT3V0cHV0LTE3MjU5OTI0MzY1MzQgLmVkZ2VMYWJlbHtiYWNrZ3JvdW5kLWNvbG9yOndoaXRlO3RleHQtYWxpZ246Y2VudGVyO30jZ2VNZXJtYWlkT3V0cHV0LTE3MjU5OTI0MzY1MzQgLmVkZ2VMYWJlbCByZWN0e29wYWNpdHk6MC41O2JhY2tncm91bmQtY29sb3I6d2hpdGU7ZmlsbDp3aGl0ZTt9I2dlTWVybWFpZE91dHB1dC0xNzI1OTkyNDM2NTM0IC5jbHVzdGVyIHJlY3R7ZmlsbDpoc2woMCwgMCUsIDk4LjkyMTU2ODYyNzUlKTtzdHJva2U6IzcwNzA3MDtzdHJva2Utd2lkdGg6MXB4O30jZ2VNZXJtYWlkT3V0cHV0LTE3MjU5OTI0MzY1MzQgLmNsdXN0ZXIgdGV4dHtmaWxsOiMzMzM7fSNnZU1lcm1haWRPdXRwdXQtMTcyNTk5MjQzNjUzNCAuY2x1c3RlciBzcGFue2NvbG9yOiMzMzM7fSNnZU1lcm1haWRPdXRwdXQtMTcyNTk5MjQzNjUzNCBkaXYubWVybWFpZFRvb2x0aXB7cG9zaXRpb246YWJzb2x1dGU7dGV4dC1hbGlnbjpjZW50ZXI7bWF4LXdpZHRoOjIwMHB4O3BhZGRpbmc6MnB4O2ZvbnQtZmFtaWx5OiJ0cmVidWNoZXQgbXMiLHZlcmRhbmEsYXJpYWwsc2Fucy1zZXJpZjtmb250LXNpemU6MTJweDtiYWNrZ3JvdW5kOmhzbCgtMTYwLCAwJSwgOTMuMzMzMzMzMzMzMyUpO2JvcmRlcjoxcHggc29saWQgIzcwNzA3MDtib3JkZXItcmFkaXVzOjJweDtwb2ludGVyLWV2ZW50czpub25lO3otaW5kZXg6MTAwO30jZ2VNZXJtYWlkT3V0cHV0LTE3MjU5OTI0MzY1MzQgOnJvb3R7LS1tZXJtYWlkLWZvbnQtZmFtaWx5OiJ0cmVidWNoZXQgbXMiLHZlcmRhbmEsYXJpYWwsc2Fucy1zZXJpZjt9PC9zdHlsZT48ZyB0cmFuc2Zvcm09InRyYW5zbGF0ZSgwLCAwKSI+PG1hcmtlciBvcmllbnQ9ImF1dG8iIG1hcmtlckhlaWdodD0iMTIiIG1hcmtlcldpZHRoPSIxMiIgbWFya2VyVW5pdHM9InVzZXJTcGFjZU9uVXNlIiByZWZZPSI1IiByZWZYPSI5IiB2aWV3Qm94PSIwIDAgMTAgMTAiIGNsYXNzPSJtYXJrZXIgZmxvd2NoYXJ0IiBpZD0iZmxvd2NoYXJ0LXBvaW50RW5kIj48cGF0aCBzdHlsZT0ic3Ryb2tlLXdpZHRoOiAxOyBzdHJva2UtZGFzaGFycmF5OiAxLCAwOyIgY2xhc3M9ImFycm93TWFya2VyUGF0aCIgZD0iTSAwIDAgTCAxMCA1IEwgMCAxMCB6Ij48L3BhdGg+PC9tYXJrZXI+PG1hcmtlciBvcmllbnQ9ImF1dG8iIG1hcmtlckhlaWdodD0iMTIiIG1hcmtlcldpZHRoPSIxMiIgbWFya2VyVW5pdHM9InVzZXJTcGFjZU9uVXNlIiByZWZZPSI1IiByZWZYPSIwIiB2aWV3Qm94PSIwIDAgMTAgMTAiIGNsYXNzPSJtYXJrZXIgZmxvd2NoYXJ0IiBpZD0iZmxvd2NoYXJ0LXBvaW50U3RhcnQiPjxwYXRoIHN0eWxlPSJzdHJva2Utd2lkdGg6IDE7IHN0cm9rZS1kYXNoYXJyYXk6IDEsIDA7IiBjbGFzcz0iYXJyb3dNYXJrZXJQYXRoIiBkPSJNIDAgNSBMIDEwIDEwIEwgMTAgMCB6Ij48L3BhdGg+PC9tYXJrZXI+PG1hcmtlciBvcmllbnQ9ImF1dG8iIG1hcmtlckhlaWdodD0iMTEiIG1hcmtlcldpZHRoPSIxMSIgbWFya2VyVW5pdHM9InVzZXJTcGFjZU9uVXNlIiByZWZZPSI1IiByZWZYPSIxMSIgdmlld0JveD0iMCAwIDEwIDEwIiBjbGFzcz0ibWFya2VyIGZsb3djaGFydCIgaWQ9ImZsb3djaGFydC1jaXJjbGVFbmQiPjxjaXJjbGUgc3R5bGU9InN0cm9rZS13aWR0aDogMTsgc3Ryb2tlLWRhc2hhcnJheTogMSwgMDsiIGNsYXNzPSJhcnJvd01hcmtlclBhdGgiIHI9IjUiIGN5PSI1IiBjeD0iNSI+PC9jaXJjbGU+PC9tYXJrZXI+PG1hcmtlciBvcmllbnQ9ImF1dG8iIG1hcmtlckhlaWdodD0iMTEiIG1hcmtlcldpZHRoPSIxMSIgbWFya2VyVW5pdHM9InVzZXJTcGFjZU9uVXNlIiByZWZZPSI1IiByZWZYPSItMSIgdmlld0JveD0iMCAwIDEwIDEwIiBjbGFzcz0ibWFya2VyIGZsb3djaGFydCIgaWQ9ImZsb3djaGFydC1jaXJjbGVTdGFydCI+PGNpcmNsZSBzdHlsZT0ic3Ryb2tlLXdpZHRoOiAxOyBzdHJva2UtZGFzaGFycmF5OiAxLCAwOyIgY2xhc3M9ImFycm93TWFya2VyUGF0aCIgcj0iNSIgY3k9IjUiIGN4PSI1Ij48L2NpcmNsZT48L21hcmtlcj48bWFya2VyIG9yaWVudD0iYXV0byIgbWFya2VySGVpZ2h0PSIxMSIgbWFya2VyV2lkdGg9IjExIiBtYXJrZXJVbml0cz0idXNlclNwYWNlT25Vc2UiIHJlZlk9IjUuMiIgcmVmWD0iMTIiIHZpZXdCb3g9IjAgMCAxMSAxMSIgY2xhc3M9Im1hcmtlciBjcm9zcyBmbG93Y2hhcnQiIGlkPSJmbG93Y2hhcnQtY3Jvc3NFbmQiPjxwYXRoIHN0eWxlPSJzdHJva2Utd2lkdGg6IDI7IHN0cm9rZS1kYXNoYXJyYXk6IDEsIDA7IiBjbGFzcz0iYXJyb3dNYXJrZXJQYXRoIiBkPSJNIDEsMSBsIDksOSBNIDEwLDEgbCAtOSw5Ij48L3BhdGg+PC9tYXJrZXI+PG1hcmtlciBvcmllbnQ9ImF1dG8iIG1hcmtlckhlaWdodD0iMTEiIG1hcmtlcldpZHRoPSIxMSIgbWFya2VyVW5pdHM9InVzZXJTcGFjZU9uVXNlIiByZWZZPSI1LjIiIHJlZlg9Ii0xIiB2aWV3Qm94PSIwIDAgMTEgMTEiIGNsYXNzPSJtYXJrZXIgY3Jvc3MgZmxvd2NoYXJ0IiBpZD0iZmxvd2NoYXJ0LWNyb3NzU3RhcnQiPjxwYXRoIHN0eWxlPSJzdHJva2Utd2lkdGg6IDI7IHN0cm9rZS1kYXNoYXJyYXk6IDEsIDA7IiBjbGFzcz0iYXJyb3dNYXJrZXJQYXRoIiBkPSJNIDEsMSBsIDksOSBNIDEwLDEgbCAtOSw5Ij48L3BhdGg+PC9tYXJrZXI+PGcgY2xhc3M9InJvb3QiPjxnIGNsYXNzPSJjbHVzdGVycyI+PGcgaWQ9InN1YkdyYXBoNSIgY2xhc3M9ImNsdXN0ZXIgZGVmYXVsdCI+PHJlY3QgaGVpZ2h0PSIxOTMiIHdpZHRoPSI3ODAuNjg3NSIgeT0iNzM3IiB4PSI4IiByeT0iMCIgcng9IjAiIHN0eWxlPSIiPjwvcmVjdD48ZyB0cmFuc2Zvcm09InRyYW5zbGF0ZSgzMzYuMDAzOTA2MjUsIDc0MikiIGNsYXNzPSJjbHVzdGVyLWxhYmVsIj48dGV4dCBzdHlsZT0iIj48dHNwYW4gY2xhc3M9InJvdyIgeD0iMCIgZHk9IjFlbSIgeG1sOnNwYWNlPSJwcmVzZXJ2ZSI+RGVwbG95IHRoZSBNb2RlbDwvdHNwYW4+PC90ZXh0PjwvZz48L2c+PGcgaWQ9InN1YkdyYXBoNCIgY2xhc3M9ImNsdXN0ZXIgZGVmYXVsdCI+PHJlY3QgaGVpZ2h0PSIyMTgiIHdpZHRoPSI3NjcuMDcwMzEyNSIgeT0iNjAzIiB4PSI4MDguNjg3NSIgcnk9IjAiIHJ4PSIwIiBzdHlsZT0iIj48L3JlY3Q+PGcgdHJhbnNmb3JtPSJ0cmFuc2xhdGUoMTEyNS4xOTkyMTg3NSwgNjA4KSIgY2xhc3M9ImNsdXN0ZXItbGFiZWwiPjx0ZXh0IHN0eWxlPSIiPjx0c3BhbiBjbGFzcz0icm93IiB4PSIwIiBkeT0iMWVtIiB4bWw6c3BhY2U9InByZXNlcnZlIj5JbXByb3ZlIHRoZSBNb2RlbDwvdHNwYW4+PC90ZXh0PjwvZz48L2c+PGcgaWQ9InN1YkdyYXBoMyIgY2xhc3M9ImNsdXN0ZXIgZGVmYXVsdCI+PHJlY3QgaGVpZ2h0PSIyMTgiIHdpZHRoPSI4MTAuNjE3MTg3NSIgeT0iNDY5IiB4PSIxNTk1Ljc1NzgxMjUiIHJ5PSIwIiByeD0iMCIgc3R5bGU9IiI+PC9yZWN0PjxnIHRyYW5zZm9ybT0idHJhbnNsYXRlKDE5NDguMTI4OTA2MjUsIDQ3NCkiIGNsYXNzPSJjbHVzdGVyLWxhYmVsIj48dGV4dCBzdHlsZT0iIj48dHNwYW4gY2xhc3M9InJvdyIgeD0iMCIgZHk9IjFlbSIgeG1sOnNwYWNlPSJwcmVzZXJ2ZSI+VGVzdCB0aGUgTW9kZWw8L3RzcGFuPjwvdGV4dD48L2c+PC9nPjxnIGlkPSJzdWJHcmFwaDIiIGNsYXNzPSJjbHVzdGVyIGRlZmF1bHQiPjxyZWN0IGhlaWdodD0iMjE4IiB3aWR0aD0iNzE4LjY0MDYyNSIgeT0iMzM1IiB4PSIyNDI2LjM3NSIgcnk9IjAiIHJ4PSIwIiBzdHlsZT0iIj48L3JlY3Q+PGcgdHJhbnNmb3JtPSJ0cmFuc2xhdGUoMjcyOS40NDkyMTg3NSwgMzQwKSIgY2xhc3M9ImNsdXN0ZXItbGFiZWwiPjx0ZXh0IHN0eWxlPSIiPjx0c3BhbiBjbGFzcz0icm93IiB4PSIwIiBkeT0iMWVtIiB4bWw6c3BhY2U9InByZXNlcnZlIj5UcmFpbiB0aGUgTW9kZWw8L3RzcGFuPjwvdGV4dD48L2c+PC9nPjxnIGlkPSJzdWJHcmFwaDEiIGNsYXNzPSJjbHVzdGVyIGRlZmF1bHQiPjxyZWN0IGhlaWdodD0iMjE4IiB3aWR0aD0iNjMwLjcyNjU2MjUiIHk9IjIwMSIgeD0iMzE2NS4wMTU2MjUiIHJ5PSIwIiByeD0iMCIgc3R5bGU9IiI+PC9yZWN0PjxnIHRyYW5zZm9ybT0idHJhbnNsYXRlKDMzOTguNTU4NTkzNzUsIDIwNikiIGNsYXNzPSJjbHVzdGVyLWxhYmVsIj48dGV4dCBzdHlsZT0iIj48dHNwYW4gY2xhc3M9InJvdyIgeD0iMCIgZHk9IjFlbSIgeG1sOnNwYWNlPSJwcmVzZXJ2ZSI+Q29udmVydCBUZXh0IHRvIFRva2VuczwvdHNwYW4+PC90ZXh0PjwvZz48L2c+PGcgaWQ9InN1YkdyYXBoMCIgY2xhc3M9ImNsdXN0ZXIgZGVmYXVsdCI+PHJlY3QgaGVpZ2h0PSIxOTMiIHdpZHRoPSI4MjguOTcyNjU2MjUiIHk9IjkyIiB4PSIzODE1Ljc0MjE4NzUiIHJ5PSIwIiByeD0iMCIgc3R5bGU9IiI+PC9yZWN0PjxnIHRyYW5zZm9ybT0idHJhbnNsYXRlKDQxNDUuNDEyMTA5Mzc1LCA5NykiIGNsYXNzPSJjbHVzdGVyLWxhYmVsIj48dGV4dCBzdHlsZT0iIj48dHNwYW4gY2xhc3M9InJvdyIgeD0iMCIgZHk9IjFlbSIgeG1sOnNwYWNlPSJwcmVzZXJ2ZSI+Q2xlYW4gYW5kIFByZXBhcmUgRGF0YTwvdHNwYW4+PC90ZXh0PjwvZz48L2c+PC9nPjxnIGNsYXNzPSJlZGdlUGF0aHMiPjxwYXRoIG1hcmtlci1lbmQ9InVybCgjZmxvd2NoYXJ0LXBvaW50RW5kKSIgc3R5bGU9ImZpbGw6bm9uZTsiIGNsYXNzPSJlZGdlLXRoaWNrbmVzcy1ub3JtYWwgZWRnZS1wYXR0ZXJuLXNvbGlkIGZsb3djaGFydC1saW5rIExTLUEgTEUtQiIgaWQ9IkwtQS1CLTAiIGQ9Ik00MDcwLjI3NzM0Mzc1LDQyTDQwNzAuMjc3MzQzNzUsNDYuMTY2NjY2NjY2NjY2NjY0QzQwNzAuMjc3MzQzNzUsNTAuMzMzMzMzMzMzMzMzMzM2LDQwNzAuMjc3MzQzNzUsNTguNjY2NjY2NjY2NjY2NjY0LDQwNzAuMjc3MzQzNzUsNjdDNDA3MC4yNzczNDM3NSw3NS4zMzMzMzMzMzMzMzMzMyw0MDcwLjI3NzM0Mzc1LDgzLjY2NjY2NjY2NjY2NjY3LDQwNzAuMjc3MzQzNzUsOTJDNDA3MC4yNzczNDM3NSwxMDAuMzMzMzMzMzMzMzMzMzMsNDA3MC4yNzczNDM3NSwxMDguNjY2NjY2NjY2NjY2NjcsNDA3MC4yNzczNDM3NSwxMTIuODMzMzMzMzMzMzMzMzNMNDA3MC4yNzczNDM3NSwxMTciPjwvcGF0aD48cGF0aCBtYXJrZXItZW5kPSJ1cmwoI2Zsb3djaGFydC1wb2ludEVuZCkiIHN0eWxlPSJmaWxsOm5vbmU7IiBjbGFzcz0iZWRnZS10aGlja25lc3Mtbm9ybWFsIGVkZ2UtcGF0dGVybi1zb2xpZCBmbG93Y2hhcnQtbGluayBMUy1CIExFLUMiIGlkPSJMLUItQy0wIiBkPSJNMzk5My4wMTc2MjQ2Mjc5NzYsMTUxTDM5NzQuMDgxNDE4OTYwODEzNiwxNTUuMTY2NjY2NjY2NjY2NjZDMzk1NS4xNDUyMTMyOTM2NTA2LDE1OS4zMzMzMzMzMzMzMzMzNCwzOTE3LjI3MjgwMTk1OTMyNTUsMTY3LjY2NjY2NjY2NjY2NjY2LDM4OTguMzM2NTk2MjkyMTYzLDE3NkMzODc5LjQwMDM5MDYyNSwxODQuMzMzMzMzMzMzMzMzMzQsMzg3OS40MDAzOTA2MjUsMTkyLjY2NjY2NjY2NjY2NjY2LDM4MDMuMDM4MDg1OTM3NSwyMDIuNjkxMzI2MjQ4NDk3MjNDMzcyNi42NzU3ODEyNSwyMTIuNzE1OTg1ODMwMzI3OCwzNTczLjk1MTE3MTg3NSwyMjQuNDMxOTcxNjYwNjU1NjUsMzQ5Ny41ODg4NjcxODc1LDIzMC4yODk5NjQ1NzU4MTk1NEwzNDIxLjIyNjU2MjUsMjM2LjE0Nzk1NzQ5MDk4MzQzIj48L3BhdGg+PHBhdGggbWFya2VyLWVuZD0idXJsKCNmbG93Y2hhcnQtcG9pbnRFbmQpIiBzdHlsZT0iZmlsbDpub25lOyIgY2xhc3M9ImVkZ2UtdGhpY2tuZXNzLW5vcm1hbCBlZGdlLXBhdHRlcm4tc29saWQgZmxvd2NoYXJ0LWxpbmsgTFMtQyBMRS1EIiBpZD0iTC1DLUQtMCIgZD0iTTMyOTguMTMwNzY2MzY5MDQ3NywyNjBMMzI4OS44NTI0NjE1NTc1MzkzLDI2NC4xNjY2NjY2NjY2NjY3QzMyODEuNTc0MTU2NzQ2MDMyLDI2OC4zMzMzMzMzMzMzMzMzLDMyNjUuMDE3NTQ3MTIzMDE2LDI3Ni42NjY2NjY2NjY2NjY3LDMyNTYuNzM5MjQyMzExNTA3NSwyODVDMzI0OC40NjA5Mzc1LDI5My4zMzMzMzMzMzMzMzMzLDMyNDguNDYwOTM3NSwzMDEuNjY2NjY2NjY2NjY2NywzMjQ4LjQ2MDkzNzUsMzEwQzMyNDguNDYwOTM3NSwzMTguMzMzMzMzMzMzMzMzMywzMjQ4LjQ2MDkzNzUsMzI2LjY2NjY2NjY2NjY2NjcsMzE2MS45ODYzMjgxMjUsMzM3LjA2NzQwOTEyNTg1NkMzMDc1LjUxMTcxODc1LDM0Ny40NjgxNTE1ODUwNDUzLDI5MDIuNTYyNSwzNTkuOTM2MzAzMTcwMDkwNjQsMjgxNi4wODc4OTA2MjUsMzY2LjE3MDM3ODk2MjYxMzNMMjcyOS42MTMyODEyNSwzNzIuNDA0NDU0NzU1MTM2Ij48L3BhdGg+PHBhdGggbWFya2VyLWVuZD0idXJsKCNmbG93Y2hhcnQtcG9pbnRFbmQpIiBzdHlsZT0iZmlsbDpub25lOyIgY2xhc3M9ImVkZ2UtdGhpY2tuZXNzLW5vcm1hbCBlZGdlLXBhdHRlcm4tc29saWQgZmxvd2NoYXJ0LWxpbmsgTFMtRCBMRS1FIiBpZD0iTC1ELUUtMCIgZD0iTTI2MDIuMTIxMDkzNzUsMzkyLjE4MzY1OTkwNjI5MjZMMjU4My4zNTcwOTYzNTQxNjY1LDM5Ni42NTMwNDk5MjE5MTA1QzI1NjQuNTkzMDk4OTU4MzMzNSw0MDEuMTIyNDM5OTM3NTI4NDQsMjUyNy4wNjUxMDQxNjY2NjY1LDQxMC4wNjEyMTk5Njg3NjQyLDI1MDguMzAxMTA2NzcwODMzNSw0MTguNjk3Mjc2NjUxMDQ4NzVDMjQ4OS41MzcxMDkzNzUsNDI3LjMzMzMzMzMzMzMzMzMsMjQ4OS41MzcxMDkzNzUsNDM1LjY2NjY2NjY2NjY2NjcsMjQ4OS41MzcxMDkzNzUsNDQ0QzI0ODkuNTM3MTA5Mzc1LDQ1Mi4zMzMzMzMzMzMzMzMzLDI0ODkuNTM3MTA5Mzc1LDQ2MC42NjY2NjY2NjY2NjY3LDIzOTguNTc5NzUyNjA0MTY2NSw0NzEuMTM1NDE5NTg2NjE1OEMyMzA3LjYyMjM5NTgzMzMzMzUsNDgxLjYwNDE3MjUwNjU2NDksMjEyNS43MDc2ODIyOTE2NjY1LDQ5NC4yMDgzNDUwMTMxMjk3LDIwMzQuNzUwMzI1NTIwODMzMyw1MDAuNTEwNDMxMjY2NDEyMUwxOTQzLjc5Mjk2ODc1LDUwNi44MTI1MTc1MTk2OTQ1NSI+PC9wYXRoPjxwYXRoIG1hcmtlci1lbmQ9InVybCgjZmxvd2NoYXJ0LXBvaW50RW5kKSIgc3R5bGU9ImZpbGw6bm9uZTsiIGNsYXNzPSJlZGdlLXRoaWNrbmVzcy1ub3JtYWwgZWRnZS1wYXR0ZXJuLXNvbGlkIGZsb3djaGFydC1saW5rIExTLUUgTEUtRiIgaWQ9IkwtRS1GLTAiIGQ9Ik0xODIyLjkxNzk2ODc1LDUyMi43MTIzMzkxMzcwMTc1TDE3OTYuODY5NzkxNjY2NjY2Nyw1MjcuNzYwMjgyNjE0MTgxMkMxNzcwLjgyMTYxNDU4MzMzMzMsNTMyLjgwODIyNjA5MTM0NSwxNzE4LjcyNTI2MDQxNjY2NjcsNTQyLjkwNDExMzA0NTY3MjUsMTY5Mi42NzcwODMzMzMzMzMzLDU1Mi4xMTg3MjMxODk1MDI5QzE2NjYuNjI4OTA2MjUsNTYxLjMzMzMzMzMzMzMzMzQsMTY2Ni42Mjg5MDYyNSw1NjkuNjY2NjY2NjY2NjY2NiwxNjY2LjYyODkwNjI1LDU3OEMxNjY2LjYyODkwNjI1LDU4Ni4zMzMzMzMzMzMzMzM0LDE2NjYuNjI4OTA2MjUsNTk0LjY2NjY2NjY2NjY2NjYsMTU3OC40NjQ1MTgyMjkxNjY3LDYwNC45Njg5NDk1MzY3MjY5QzE0OTAuMzAwMTMwMjA4MzMzMyw2MTUuMjcxMjMyNDA2Nzg3MSwxMzEzLjk3MTM1NDE2NjY2NjcsNjI3LjU0MjQ2NDgxMzU3NDMsMTIyNS44MDY5NjYxNDU4MzMzLDYzMy42NzgwODEwMTY5Njc5TDExMzcuNjQyNTc4MTI1LDYzOS44MTM2OTcyMjAzNjE0Ij48L3BhdGg+PHBhdGggbWFya2VyLWVuZD0idXJsKCNmbG93Y2hhcnQtcG9pbnRFbmQpIiBzdHlsZT0iZmlsbDpub25lOyIgY2xhc3M9ImVkZ2UtdGhpY2tuZXNzLW5vcm1hbCBlZGdlLXBhdHRlcm4tc29saWQgZmxvd2NoYXJ0LWxpbmsgTFMtRiBMRS1HIiBpZD0iTC1GLUctMCIgZD0iTTk4OC41OTU3MDMxMjUsNjYxLjYwMjQ1NTMyMjQ1NTNMOTY5LjU5NTM3NzYwNDE2NjYsNjY1LjgzNTM3OTQzNTM3OTRDOTUwLjU5NTA1MjA4MzMzMzQsNjcwLjA2ODMwMzU0ODMwMzYsOTEyLjU5NDQwMTA0MTY2NjYsNjc4LjUzNDE1MTc3NDE1MTcsODkzLjU5NDA3NTUyMDgzMzQsNjg2LjkzMzc0MjU1Mzc0MjVDODc0LjU5Mzc1LDY5NS4zMzMzMzMzMzMzMzM0LDg3NC41OTM3NSw3MDMuNjY2NjY2NjY2NjY2Niw4NzQuNTkzNzUsNzEyQzg3NC41OTM3NSw3MjAuMzMzMzMzMzMzMzMzNCw4NzQuNTkzNzUsNzI4LjY2NjY2NjY2NjY2NjYsODExLjM0NTcwMzEyNSw3MzguNzQ1MzExMjg2NTI3M0M3NDguMDk3NjU2MjUsNzQ4LjgyMzk1NTkwNjM4OCw2MjEuNjAxNTYyNSw3NjAuNjQ3OTExODEyNzc2LDU1OC4zNTM1MTU2MjUsNzY2LjU1OTg4OTc2NTk3MDFMNDk1LjEwNTQ2ODc1LDc3Mi40NzE4Njc3MTkxNjQiPjwvcGF0aD48cGF0aCBtYXJrZXItZW5kPSJ1cmwoI2Zsb3djaGFydC1wb2ludEVuZCkiIHN0eWxlPSJmaWxsOm5vbmU7IiBjbGFzcz0iZWRnZS10aGlja25lc3Mtbm9ybWFsIGVkZ2UtcGF0dGVybi1zb2xpZCBmbG93Y2hhcnQtbGluayBMUy1CIExFLUIxIiBpZD0iTC1CLUIxLTAiIGQ9Ik00MDE4LjY1NTk3MDk4MjE0MjcsMTUxTDQwMDYuMDAzNjczNzM1MTE5LDE1NS4xNjY2NjY2NjY2NjY2NkMzOTkzLjM1MTM3NjQ4ODA5NTQsMTU5LjMzMzMzMzMzMzMzMzM0LDM5NjguMDQ2NzgxOTk0MDQ3NywxNjcuNjY2NjY2NjY2NjY2NjYsMzk1NS4zOTQ0ODQ3NDcwMjM0LDE3NkMzOTQyLjc0MjE4NzUsMTg0LjMzMzMzMzMzMzMzMzM0LDM5NDIuNzQyMTg3NSwxOTIuNjY2NjY2NjY2NjY2NjYsMzk0Mi43NDIxODc1LDIwMUMzOTQyLjc0MjE4NzUsMjA5LjMzMzMzMzMzMzMzMzM0LDM5NDIuNzQyMTg3NSwyMTcuNjY2NjY2NjY2NjY2NjYsMzk0Mi43NDIxODc1LDIyMS44MzMzMzMzMzMzMzMzNEwzOTQyLjc0MjE4NzUsMjI2Ij48L3BhdGg+PHBhdGggbWFya2VyLWVuZD0idXJsKCNmbG93Y2hhcnQtcG9pbnRFbmQpIiBzdHlsZT0iZmlsbDpub25lOyIgY2xhc3M9ImVkZ2UtdGhpY2tuZXNzLW5vcm1hbCBlZGdlLXBhdHRlcm4tc29saWQgZmxvd2NoYXJ0LWxpbmsgTFMtQiBMRS1CMiIgaWQ9IkwtQi1CMi0wIiBkPSJNNDEyMS44OTg3MTY1MTc4NTcsMTUxTDQxMzQuNTUxMDEzNzY0ODgxLDE1NS4xNjY2NjY2NjY2NjY2NkM0MTQ3LjIwMzMxMTAxMTkwNSwxNTkuMzMzMzMzMzMzMzMzMzQsNDE3Mi41MDc5MDU1MDU5NTIsMTY3LjY2NjY2NjY2NjY2NjY2LDQxODUuMTYwMjAyNzUyOTc2LDE3NkM0MTk3LjgxMjUsMTg0LjMzMzMzMzMzMzMzMzM0LDQxOTcuODEyNSwxOTIuNjY2NjY2NjY2NjY2NjYsNDE5Ny44MTI1LDIwMUM0MTk3LjgxMjUsMjA5LjMzMzMzMzMzMzMzMzM0LDQxOTcuODEyNSwyMTcuNjY2NjY2NjY2NjY2NjYsNDE5Ny44MTI1LDIyMS44MzMzMzMzMzMzMzMzNEw0MTk3LjgxMjUsMjI2Ij48L3BhdGg+PHBhdGggbWFya2VyLWVuZD0idXJsKCNmbG93Y2hhcnQtcG9pbnRFbmQpIiBzdHlsZT0iZmlsbDpub25lOyIgY2xhc3M9ImVkZ2UtdGhpY2tuZXNzLW5vcm1hbCBlZGdlLXBhdHRlcm4tc29saWQgZmxvd2NoYXJ0LWxpbmsgTFMtQiBMRS1CMyIgaWQ9IkwtQi1CMy0wIiBkPSJNNDE2Mi41OTM3NSwxNDMuMzM4ODIxNjY5ODM0MjNMNDIxNi40MDQyOTY4NzUsMTQ4Ljc4MjM1MTM5MTUyODUyQzQyNzAuMjE0ODQzNzUsMTU0LjIyNTg4MTExMzIyMjgsNDM3Ny44MzU5Mzc1LDE2NS4xMTI5NDA1NTY2MTE0Miw0NDMxLjY0NjQ4NDM3NSwxNzQuNzIzMTM2OTQ0OTcyMzdDNDQ4NS40NTcwMzEyNSwxODQuMzMzMzMzMzMzMzMzMzQsNDQ4NS40NTcwMzEyNSwxOTIuNjY2NjY2NjY2NjY2NjYsNDQ4NS40NTcwMzEyNSwyMDFDNDQ4NS40NTcwMzEyNSwyMDkuMzMzMzMzMzMzMzMzMzQsNDQ4NS40NTcwMzEyNSwyMTcuNjY2NjY2NjY2NjY2NjYsNDQ4NS40NTcwMzEyNSwyMjEuODMzMzMzMzMzMzMzMzRMNDQ4NS40NTcwMzEyNSwyMjYiPjwvcGF0aD48cGF0aCBtYXJrZXItZW5kPSJ1cmwoI2Zsb3djaGFydC1wb2ludEVuZCkiIHN0eWxlPSJmaWxsOm5vbmU7IiBjbGFzcz0iZWRnZS10aGlja25lc3Mtbm9ybWFsIGVkZ2UtcGF0dGVybi1zb2xpZCBmbG93Y2hhcnQtbGluayBMUy1DIExFLUMxIiBpZD0iTC1DLUMxLTAiIGQ9Ik0zMzMxLjkwNjI1LDI2MEwzMzMxLjkwNjI1LDI2NC4xNjY2NjY2NjY2NjY3QzMzMzEuOTA2MjUsMjY4LjMzMzMzMzMzMzMzMzMsMzMzMS45MDYyNSwyNzYuNjY2NjY2NjY2NjY2NywzMzMxLjkwNjI1LDI4NUMzMzMxLjkwNjI1LDI5My4zMzMzMzMzMzMzMzMzLDMzMzEuOTA2MjUsMzAxLjY2NjY2NjY2NjY2NjcsMzMzMS45MDYyNSwzMTBDMzMzMS45MDYyNSwzMTguMzMzMzMzMzMzMzMzMywzMzMxLjkwNjI1LDMyNi42NjY2NjY2NjY2NjY3LDMzMzEuOTA2MjUsMzM1QzMzMzEuOTA2MjUsMzQzLjMzMzMzMzMzMzMzMzMsMzMzMS45MDYyNSwzNTEuNjY2NjY2NjY2NjY2NywzMzMxLjkwNjI1LDM1NS44MzMzMzMzMzMzMzMzTDMzMzEuOTA2MjUsMzYwIj48L3BhdGg+PHBhdGggbWFya2VyLWVuZD0idXJsKCNmbG93Y2hhcnQtcG9pbnRFbmQpIiBzdHlsZT0iZmlsbDpub25lOyIgY2xhc3M9ImVkZ2UtdGhpY2tuZXNzLW5vcm1hbCBlZGdlLXBhdHRlcm4tc29saWQgZmxvd2NoYXJ0LWxpbmsgTFMtQyBMRS1DMiIgaWQ9IkwtQy1DMi0wIiBkPSJNMzQyMS4yMjY1NjI1LDI1NS4yODUyMTM1NjQ3ODU4TDM0NTcuMjMzNzIzOTU4MzMzNSwyNjAuMjM3Njc3OTcwNjU0ODNDMzQ5My4yNDA4ODU0MTY2NjY1LDI2NS4xOTAxNDIzNzY1MjM4NSwzNTY1LjI1NTIwODMzMzMzMzUsMjc1LjA5NTA3MTE4ODI2MTk1LDM2MDEuMjYyMzY5NzkxNjY2NSwyODQuMjE0MjAyMjYwNzk3NjZDMzYzNy4yNjk1MzEyNSwyOTMuMzMzMzMzMzMzMzMzMywzNjM3LjI2OTUzMTI1LDMwMS42NjY2NjY2NjY2NjY3LDM2MzcuMjY5NTMxMjUsMzEwQzM2MzcuMjY5NTMxMjUsMzE4LjMzMzMzMzMzMzMzMzMsMzYzNy4yNjk1MzEyNSwzMjYuNjY2NjY2NjY2NjY2NywzNjM3LjI2OTUzMTI1LDMzNUMzNjM3LjI2OTUzMTI1LDM0My4zMzMzMzMzMzMzMzMzLDM2MzcuMjY5NTMxMjUsMzUxLjY2NjY2NjY2NjY2NjcsMzYzNy4yNjk1MzEyNSwzNTUuODMzMzMzMzMzMzMzM0wzNjM3LjI2OTUzMTI1LDM2MCI+PC9wYXRoPjxwYXRoIG1hcmtlci1lbmQ9InVybCgjZmxvd2NoYXJ0LXBvaW50RW5kKSIgc3R5bGU9ImZpbGw6bm9uZTsiIGNsYXNzPSJlZGdlLXRoaWNrbmVzcy1ub3JtYWwgZWRnZS1wYXR0ZXJuLXNvbGlkIGZsb3djaGFydC1saW5rIExTLUQgTEUtRDEiIGlkPSJMLUQtRDEtMCIgZD0iTTI2MjAuMDYxMTA0OTEwNzE0LDM5NEwyNjA4LjgzNDEyMzg4MzkyODQsMzk4LjE2NjY2NjY2NjY2NjdDMjU5Ny42MDcxNDI4NTcxNDI3LDQwMi4zMzMzMzMzMzMzMzMzLDI1NzUuMTUzMTgwODAzNTcxLDQxMC42NjY2NjY2NjY2NjY3LDI1NjMuOTI2MTk5Nzc2Nzg2LDQxOUMyNTUyLjY5OTIxODc1LDQyNy4zMzMzMzMzMzMzMzMzLDI1NTIuNjk5MjE4NzUsNDM1LjY2NjY2NjY2NjY2NjcsMjU1Mi42OTkyMTg3NSw0NDRDMjU1Mi42OTkyMTg3NSw0NTIuMzMzMzMzMzMzMzMzMywyNTUyLjY5OTIxODc1LDQ2MC42NjY2NjY2NjY2NjY3LDI1NTIuNjk5MjE4NzUsNDY5QzI1NTIuNjk5MjE4NzUsNDc3LjMzMzMzMzMzMzMzMzMsMjU1Mi42OTkyMTg3NSw0ODUuNjY2NjY2NjY2NjY2NywyNTUyLjY5OTIxODc1LDQ4OS44MzMzMzMzMzMzMzMzTDI1NTIuNjk5MjE4NzUsNDk0Ij48L3BhdGg+PHBhdGggbWFya2VyLWVuZD0idXJsKCNmbG93Y2hhcnQtcG9pbnRFbmQpIiBzdHlsZT0iZmlsbDpub25lOyIgY2xhc3M9ImVkZ2UtdGhpY2tuZXNzLW5vcm1hbCBlZGdlLXBhdHRlcm4tc29saWQgZmxvd2NoYXJ0LWxpbmsgTFMtRCBMRS1EMiIgaWQ9IkwtRC1EMi0wIiBkPSJNMjcxMS42NzMyNzAwODkyODYsMzk0TDI3MjIuOTAwMjUxMTE2MDcxNiwzOTguMTY2NjY2NjY2NjY2N0MyNzM0LjEyNzIzMjE0Mjg1NzMsNDAyLjMzMzMzMzMzMzMzMzMsMjc1Ni41ODExOTQxOTY0MjksNDEwLjY2NjY2NjY2NjY2NjcsMjc2Ny44MDgxNzUyMjMyMTQsNDE5QzI3NzkuMDM1MTU2MjUsNDI3LjMzMzMzMzMzMzMzMzMsMjc3OS4wMzUxNTYyNSw0MzUuNjY2NjY2NjY2NjY2NywyNzc5LjAzNTE1NjI1LDQ0NEMyNzc5LjAzNTE1NjI1LDQ1Mi4zMzMzMzMzMzMzMzMzLDI3NzkuMDM1MTU2MjUsNDYwLjY2NjY2NjY2NjY2NjcsMjc3OS4wMzUxNTYyNSw0NjlDMjc3OS4wMzUxNTYyNSw0NzcuMzMzMzMzMzMzMzMzMywyNzc5LjAzNTE1NjI1LDQ4NS42NjY2NjY2NjY2NjY3LDI3NzkuMDM1MTU2MjUsNDg5LjgzMzMzMzMzMzMzMzNMMjc3OS4wMzUxNTYyNSw0OTQiPjwvcGF0aD48cGF0aCBtYXJrZXItZW5kPSJ1cmwoI2Zsb3djaGFydC1wb2ludEVuZCkiIHN0eWxlPSJmaWxsOm5vbmU7IiBjbGFzcz0iZWRnZS10aGlja25lc3Mtbm9ybWFsIGVkZ2UtcGF0dGVybi1zb2xpZCBmbG93Y2hhcnQtbGluayBMUy1EIExFLUQzIiBpZD0iTC1ELUQzLTAiIGQ9Ik0yNzI5LjYxMzI4MTI1LDM4NC43MzQyOTc3NzI0NjE1NkwyNzc2LjY4Mjk0MjcwODMzMzUsMzkwLjQ0NTI0ODE0MzcxNzk1QzI4MjMuNzUyNjA0MTY2NjY2NSwzOTYuMTU2MTk4NTE0OTc0NCwyOTE3Ljg5MTkyNzA4MzMzMzUsNDA3LjU3ODA5OTI1NzQ4NzE3LDI5NjQuOTYxNTg4NTQxNjY2NSw0MTcuNDU1NzE2Mjk1NDEwMjRDMzAxMi4wMzEyNSw0MjcuMzMzMzMzMzMzMzMzMywzMDEyLjAzMTI1LDQzNS42NjY2NjY2NjY2NjY3LDMwMTIuMDMxMjUsNDQ0QzMwMTIuMDMxMjUsNDUyLjMzMzMzMzMzMzMzMzMsMzAxMi4wMzEyNSw0NjAuNjY2NjY2NjY2NjY2NywzMDEyLjAzMTI1LDQ2OUMzMDEyLjAzMTI1LDQ3Ny4zMzMzMzMzMzMzMzMzLDMwMTIuMDMxMjUsNDg1LjY2NjY2NjY2NjY2NjcsMzAxMi4wMzEyNSw0ODkuODMzMzMzMzMzMzMzM0wzMDEyLjAzMTI1LDQ5NCI+PC9wYXRoPjxwYXRoIG1hcmtlci1lbmQ9InVybCgjZmxvd2NoYXJ0LXBvaW50RW5kKSIgc3R5bGU9ImZpbGw6bm9uZTsiIGNsYXNzPSJlZGdlLXRoaWNrbmVzcy1ub3JtYWwgZWRnZS1wYXR0ZXJuLXNvbGlkIGZsb3djaGFydC1saW5rIExTLUUgTEUtRTEiIGlkPSJMLUUtRTEtMCIgZD0iTTE4MjQuMzE4NzMxMzk4ODA5Niw1MjhMMTgwOS44NDg5NDI4MzIzNDEyLDUzMi4xNjY2NjY2NjY2NjY2QzE3OTUuMzc5MTU0MjY1ODczLDUzNi4zMzMzMzMzMzMzMzM0LDE3NjYuNDM5NTc3MTMyOTM2NCw1NDQuNjY2NjY2NjY2NjY2NiwxNzUxLjk2OTc4ODU2NjQ2ODIsNTUzQzE3MzcuNSw1NjEuMzMzMzMzMzMzMzMzNCwxNzM3LjUsNTY5LjY2NjY2NjY2NjY2NjYsMTczNy41LDU3OEMxNzM3LjUsNTg2LjMzMzMzMzMzMzMzMzQsMTczNy41LDU5NC42NjY2NjY2NjY2NjY2LDE3MzcuNSw2MDNDMTczNy41LDYxMS4zMzMzMzMzMzMzMzM0LDE3MzcuNSw2MTkuNjY2NjY2NjY2NjY2NiwxNzM3LjUsNjIzLjgzMzMzMzMzMzMzMzRMMTczNy41LDYyOCI+PC9wYXRoPjxwYXRoIG1hcmtlci1lbmQ9InVybCgjZmxvd2NoYXJ0LXBvaW50RW5kKSIgc3R5bGU9ImZpbGw6bm9uZTsiIGNsYXNzPSJlZGdlLXRoaWNrbmVzcy1ub3JtYWwgZWRnZS1wYXR0ZXJuLXNvbGlkIGZsb3djaGFydC1saW5rIExTLUUgTEUtRTIiIGlkPSJMLUUtRTItMCIgZD0iTTE5NDIuMzkyMjA2MTAxMTkwNCw1MjhMMTk1Ni44NjE5OTQ2Njc2NTg4LDUzMi4xNjY2NjY2NjY2NjY2QzE5NzEuMzMxNzgzMjM0MTI3LDUzNi4zMzMzMzMzMzMzMzM0LDIwMDAuMjcxMzYwMzY3MDYzNiw1NDQuNjY2NjY2NjY2NjY2NiwyMDE0Ljc0MTE0ODkzMzUzMTgsNTUzQzIwMjkuMjEwOTM3NSw1NjEuMzMzMzMzMzMzMzMzNCwyMDI5LjIxMDkzNzUsNTY5LjY2NjY2NjY2NjY2NjYsMjAyOS4yMTA5Mzc1LDU3OEMyMDI5LjIxMDkzNzUsNTg2LjMzMzMzMzMzMzMzMzQsMjAyOS4yMTA5Mzc1LDU5NC42NjY2NjY2NjY2NjY2LDIwMjkuMjEwOTM3NSw2MDNDMjAyOS4yMTA5Mzc1LDYxMS4zMzMzMzMzMzMzMzM0LDIwMjkuMjEwOTM3NSw2MTkuNjY2NjY2NjY2NjY2NiwyMDI5LjIxMDkzNzUsNjIzLjgzMzMzMzMzMzMzMzRMMjAyOS4yMTA5Mzc1LDYyOCI+PC9wYXRoPjxwYXRoIG1hcmtlci1lbmQ9InVybCgjZmxvd2NoYXJ0LXBvaW50RW5kKSIgc3R5bGU9ImZpbGw6bm9uZTsiIGNsYXNzPSJlZGdlLXRoaWNrbmVzcy1ub3JtYWwgZWRnZS1wYXR0ZXJuLXNvbGlkIGZsb3djaGFydC1saW5rIExTLUUgTEUtRTMiIGlkPSJMLUUtRTMtMCIgZD0iTTE5NDMuNzkyOTY4NzUsNTE3LjE5OTkwMDc3NDcyMDVMMjAwMS45NTcwMzEyNSw1MjMuMTY2NTgzOTc4OTMzOEMyMDYwLjEyMTA5Mzc1LDUyOS4xMzMyNjcxODMxNDcsMjE3Ni40NDkyMTg3NSw1NDEuMDY2NjMzNTkxNTczNSwyMjM0LjYxMzI4MTI1LDU1MS4xOTk5ODM0NjI0NTM0QzIyOTIuNzc3MzQzNzUsNTYxLjMzMzMzMzMzMzMzMzQsMjI5Mi43NzczNDM3NSw1NjkuNjY2NjY2NjY2NjY2NiwyMjkyLjc3NzM0Mzc1LDU3OEMyMjkyLjc3NzM0Mzc1LDU4Ni4zMzMzMzMzMzMzMzM0LDIyOTIuNzc3MzQzNzUsNTk0LjY2NjY2NjY2NjY2NjYsMjI5Mi43NzczNDM3NSw2MDNDMjI5Mi43NzczNDM3NSw2MTEuMzMzMzMzMzMzMzMzNCwyMjkyLjc3NzM0Mzc1LDYxOS42NjY2NjY2NjY2NjY2LDIyOTIuNzc3MzQzNzUsNjIzLjgzMzMzMzMzMzMzMzRMMjI5Mi43NzczNDM3NSw2MjgiPjwvcGF0aD48cGF0aCBtYXJrZXItZW5kPSJ1cmwoI2Zsb3djaGFydC1wb2ludEVuZCkiIHN0eWxlPSJmaWxsOm5vbmU7IiBjbGFzcz0iZWRnZS10aGlja25lc3Mtbm9ybWFsIGVkZ2UtcGF0dGVybi1zb2xpZCBmbG93Y2hhcnQtbGluayBMUy1GIExFLUYxIiBpZD0iTC1GLUYxLTAiIGQ9Ik0xMDEzLjQ4NzU4MzcwNTM1NzEsNjYyTDEwMDEuMzIyOTg2NDIxMTMwOCw2NjYuMTY2NjY2NjY2NjY2NkM5ODkuMTU4Mzg5MTM2OTA0Nyw2NzAuMzMzMzMzMzMzMzMzNCw5NjQuODI5MTk0NTY4NDUyMyw2NzguNjY2NjY2NjY2NjY2Niw5NTIuNjY0NTk3Mjg0MjI2MSw2ODdDOTQwLjUsNjk1LjMzMzMzMzMzMzMzMzQsOTQwLjUsNzAzLjY2NjY2NjY2NjY2NjYsOTQwLjUsNzEyQzk0MC41LDcyMC4zMzMzMzMzMzMzMzM0LDk0MC41LDcyOC42NjY2NjY2NjY2NjY2LDk0MC41LDczN0M5NDAuNSw3NDUuMzMzMzMzMzMzMzMzNCw5NDAuNSw3NTMuNjY2NjY2NjY2NjY2Niw5NDAuNSw3NTcuODMzMzMzMzMzMzMzNEw5NDAuNSw3NjIiPjwvcGF0aD48cGF0aCBtYXJrZXItZW5kPSJ1cmwoI2Zsb3djaGFydC1wb2ludEVuZCkiIHN0eWxlPSJmaWxsOm5vbmU7IiBjbGFzcz0iZWRnZS10aGlja25lc3Mtbm9ybWFsIGVkZ2UtcGF0dGVybi1zb2xpZCBmbG93Y2hhcnQtbGluayBMUy1GIExFLUYyIiBpZD0iTC1GLUYyLTAiIGQ9Ik0xMTEyLjc1MDY5NzU0NDY0Myw2NjJMMTEyNC45MTUyOTQ4Mjg4NjksNjY2LjE2NjY2NjY2NjY2NjZDMTEzNy4wNzk4OTIxMTMwOTUyLDY3MC4zMzMzMzMzMzMzMzM0LDExNjEuNDA5MDg2NjgxNTQ3Nyw2NzguNjY2NjY2NjY2NjY2NiwxMTczLjU3MzY4Mzk2NTc3MzksNjg3QzExODUuNzM4MjgxMjUsNjk1LjMzMzMzMzMzMzMzMzQsMTE4NS43MzgyODEyNSw3MDMuNjY2NjY2NjY2NjY2NiwxMTg1LjczODI4MTI1LDcxMkMxMTg1LjczODI4MTI1LDcyMC4zMzMzMzMzMzMzMzM0LDExODUuNzM4MjgxMjUsNzI4LjY2NjY2NjY2NjY2NjYsMTE4NS43MzgyODEyNSw3MzdDMTE4NS43MzgyODEyNSw3NDUuMzMzMzMzMzMzMzMzNCwxMTg1LjczODI4MTI1LDc1My42NjY2NjY2NjY2NjY2LDExODUuNzM4MjgxMjUsNzU3LjgzMzMzMzMzMzMzMzRMMTE4NS43MzgyODEyNSw3NjIiPjwvcGF0aD48cGF0aCBtYXJrZXItZW5kPSJ1cmwoI2Zsb3djaGFydC1wb2ludEVuZCkiIHN0eWxlPSJmaWxsOm5vbmU7IiBjbGFzcz0iZWRnZS10aGlja25lc3Mtbm9ybWFsIGVkZ2UtcGF0dGVybi1zb2xpZCBmbG93Y2hhcnQtbGluayBMUy1GIExFLUYzIiBpZD0iTC1GLUYzLTAiIGQ9Ik0xMTM3LjY0MjU3ODEyNSw2NTMuMzYxMzAwODI0ODg1M0wxMTg3LjYxMjMwNDY4NzUsNjU4Ljk2Nzc1MDY4NzQwNDRDMTIzNy41ODIwMzEyNSw2NjQuNTc0MjAwNTQ5OTIzNiwxMzM3LjUyMTQ4NDM3NSw2NzUuNzg3MTAwMjc0OTYxNywxMzg3LjQ5MTIxMDkzNzUsNjg1LjU2MDIxNjgwNDE0NzRDMTQzNy40NjA5Mzc1LDY5NS4zMzMzMzMzMzMzMzM0LDE0MzcuNDYwOTM3NSw3MDMuNjY2NjY2NjY2NjY2NiwxNDM3LjQ2MDkzNzUsNzEyQzE0MzcuNDYwOTM3NSw3MjAuMzMzMzMzMzMzMzMzNCwxNDM3LjQ2MDkzNzUsNzI4LjY2NjY2NjY2NjY2NjYsMTQzNy40NjA5Mzc1LDczN0MxNDM3LjQ2MDkzNzUsNzQ1LjMzMzMzMzMzMzMzMzQsMTQzNy40NjA5Mzc1LDc1My42NjY2NjY2NjY2NjY2LDE0MzcuNDYwOTM3NSw3NTcuODMzMzMzMzMzMzMzNEwxNDM3LjQ2MDkzNzUsNzYyIj48L3BhdGg+PHBhdGggbWFya2VyLWVuZD0idXJsKCNmbG93Y2hhcnQtcG9pbnRFbmQpIiBzdHlsZT0iZmlsbDpub25lOyIgY2xhc3M9ImVkZ2UtdGhpY2tuZXNzLW5vcm1hbCBlZGdlLXBhdHRlcm4tc29saWQgZmxvd2NoYXJ0LWxpbmsgTFMtRyBMRS1HMSIgaWQ9IkwtRy1HMS0wIiBkPSJNMzU1LjQyNTc4MTI1LDc4OS4zNzk5Njc2NTQwOTIzTDMxOS45Njc0NDc5MTY2NjY3LDc5NC42NDk5NzMwNDUwNzY5QzI4NC41MDkxMTQ1ODMzMzMzLDc5OS45MTk5Nzg0MzYwNjE2LDIxMy41OTI0NDc5MTY2NjY2Niw4MTAuNDU5OTg5MjE4MDMwNywxNzguMTM0MTE0NTgzMzMzMzQsODE5Ljg5NjY2MTI3NTY4MkMxNDIuNjc1NzgxMjUsODI5LjMzMzMzMzMzMzMzMzQsMTQyLjY3NTc4MTI1LDgzNy42NjY2NjY2NjY2NjY2LDE0Mi42NzU3ODEyNSw4NDZDMTQyLjY3NTc4MTI1LDg1NC4zMzMzMzMzMzMzMzM0LDE0Mi42NzU3ODEyNSw4NjIuNjY2NjY2NjY2NjY2NiwxNDIuNjc1NzgxMjUsODY2LjgzMzMzMzMzMzMzMzRMMTQyLjY3NTc4MTI1LDg3MSI+PC9wYXRoPjxwYXRoIG1hcmtlci1lbmQ9InVybCgjZmxvd2NoYXJ0LXBvaW50RW5kKSIgc3R5bGU9ImZpbGw6bm9uZTsiIGNsYXNzPSJlZGdlLXRoaWNrbmVzcy1ub3JtYWwgZWRnZS1wYXR0ZXJuLXNvbGlkIGZsb3djaGFydC1saW5rIExTLUcgTEUtRzIiIGlkPSJMLUctRzItMCIgZD0iTTQyNS4yNjU2MjUsNzk2TDQyNS4yNjU2MjUsODAwLjE2NjY2NjY2NjY2NjZDNDI1LjI2NTYyNSw4MDQuMzMzMzMzMzMzMzMzNCw0MjUuMjY1NjI1LDgxMi42NjY2NjY2NjY2NjY2LDQyNS4yNjU2MjUsODIxQzQyNS4yNjU2MjUsODI5LjMzMzMzMzMzMzMzMzQsNDI1LjI2NTYyNSw4MzcuNjY2NjY2NjY2NjY2Niw0MjUuMjY1NjI1LDg0NkM0MjUuMjY1NjI1LDg1NC4zMzMzMzMzMzMzMzM0LDQyNS4yNjU2MjUsODYyLjY2NjY2NjY2NjY2NjYsNDI1LjI2NTYyNSw4NjYuODMzMzMzMzMzMzMzNEw0MjUuMjY1NjI1LDg3MSI+PC9wYXRoPjxwYXRoIG1hcmtlci1lbmQ9InVybCgjZmxvd2NoYXJ0LXBvaW50RW5kKSIgc3R5bGU9ImZpbGw6bm9uZTsiIGNsYXNzPSJlZGdlLXRoaWNrbmVzcy1ub3JtYWwgZWRnZS1wYXR0ZXJuLXNvbGlkIGZsb3djaGFydC1saW5rIExTLUcgTEUtRzMiIGlkPSJMLUctRzMtMCIgZD0iTTQ5NS4xMDU0Njg3NSw3OTAuNDcyOTc5Nzg2NDA1MUw1MjYuMDc2ODIyOTE2NjY2Niw3OTUuNTYwODE2NDg4NjcwOUM1NTcuMDQ4MTc3MDgzMzMzNCw4MDAuNjQ4NjUzMTkwOTM2OCw2MTguOTkwODg1NDE2NjY2Niw4MTAuODI0MzI2NTk1NDY4NCw2NDkuOTYyMjM5NTgzMzMzNCw4MjAuMDc4ODI5OTY0NDAwOUM2ODAuOTMzNTkzNzUsODI5LjMzMzMzMzMzMzMzMzQsNjgwLjkzMzU5Mzc1LDgzNy42NjY2NjY2NjY2NjY2LDY4MC45MzM1OTM3NSw4NDZDNjgwLjkzMzU5Mzc1LDg1NC4zMzMzMzMzMzMzMzM0LDY4MC45MzM1OTM3NSw4NjIuNjY2NjY2NjY2NjY2Niw2ODAuOTMzNTkzNzUsODY2LjgzMzMzMzMzMzMzMzRMNjgwLjkzMzU5Mzc1LDg3MSI+PC9wYXRoPjwvZz48ZyBjbGFzcz0iZWRnZUxhYmVscyI+PGcgY2xhc3M9ImVkZ2VMYWJlbCI+PGcgdHJhbnNmb3JtPSJ0cmFuc2xhdGUoMCwgMCkiIGNsYXNzPSJsYWJlbCI+PHJlY3QgaGVpZ2h0PSIwIiB3aWR0aD0iMCIgcnk9IjAiIHJ4PSIwIj48L3JlY3Q+PHRleHQgc3R5bGU9IiI+PHRzcGFuIGNsYXNzPSJyb3ciIHg9IjAiIGR5PSIxZW0iIHhtbDpzcGFjZT0icHJlc2VydmUiPjwvdHNwYW4+PC90ZXh0PjwvZz48L2c+PGcgY2xhc3M9ImVkZ2VMYWJlbCI+PGcgdHJhbnNmb3JtPSJ0cmFuc2xhdGUoMCwgMCkiIGNsYXNzPSJsYWJlbCI+PHJlY3QgaGVpZ2h0PSIwIiB3aWR0aD0iMCIgcnk9IjAiIHJ4PSIwIj48L3JlY3Q+PHRleHQgc3R5bGU9IiI+PHRzcGFuIGNsYXNzPSJyb3ciIHg9IjAiIGR5PSIxZW0iIHhtbDpzcGFjZT0icHJlc2VydmUiPjwvdHNwYW4+PC90ZXh0PjwvZz48L2c+PGcgY2xhc3M9ImVkZ2VMYWJlbCI+PGcgdHJhbnNmb3JtPSJ0cmFuc2xhdGUoMCwgMCkiIGNsYXNzPSJsYWJlbCI+PHJlY3QgaGVpZ2h0PSIwIiB3aWR0aD0iMCIgcnk9IjAiIHJ4PSIwIj48L3JlY3Q+PHRleHQgc3R5bGU9IiI+PHRzcGFuIGNsYXNzPSJyb3ciIHg9IjAiIGR5PSIxZW0iIHhtbDpzcGFjZT0icHJlc2VydmUiPjwvdHNwYW4+PC90ZXh0PjwvZz48L2c+PGcgY2xhc3M9ImVkZ2VMYWJlbCI+PGcgdHJhbnNmb3JtPSJ0cmFuc2xhdGUoMCwgMCkiIGNsYXNzPSJsYWJlbCI+PHJlY3QgaGVpZ2h0PSIwIiB3aWR0aD0iMCIgcnk9IjAiIHJ4PSIwIj48L3JlY3Q+PHRleHQgc3R5bGU9IiI+PHRzcGFuIGNsYXNzPSJyb3ciIHg9IjAiIGR5PSIxZW0iIHhtbDpzcGFjZT0icHJlc2VydmUiPjwvdHNwYW4+PC90ZXh0PjwvZz48L2c+PGcgY2xhc3M9ImVkZ2VMYWJlbCI+PGcgdHJhbnNmb3JtPSJ0cmFuc2xhdGUoMCwgMCkiIGNsYXNzPSJsYWJlbCI+PHJlY3QgaGVpZ2h0PSIwIiB3aWR0aD0iMCIgcnk9IjAiIHJ4PSIwIj48L3JlY3Q+PHRleHQgc3R5bGU9IiI+PHRzcGFuIGNsYXNzPSJyb3ciIHg9IjAiIGR5PSIxZW0iIHhtbDpzcGFjZT0icHJlc2VydmUiPjwvdHNwYW4+PC90ZXh0PjwvZz48L2c+PGcgY2xhc3M9ImVkZ2VMYWJlbCI+PGcgdHJhbnNmb3JtPSJ0cmFuc2xhdGUoMCwgMCkiIGNsYXNzPSJsYWJlbCI+PHJlY3QgaGVpZ2h0PSIwIiB3aWR0aD0iMCIgcnk9IjAiIHJ4PSIwIj48L3JlY3Q+PHRleHQgc3R5bGU9IiI+PHRzcGFuIGNsYXNzPSJyb3ciIHg9IjAiIGR5PSIxZW0iIHhtbDpzcGFjZT0icHJlc2VydmUiPjwvdHNwYW4+PC90ZXh0PjwvZz48L2c+PGcgY2xhc3M9ImVkZ2VMYWJlbCI+PGcgdHJhbnNmb3JtPSJ0cmFuc2xhdGUoMCwgMCkiIGNsYXNzPSJsYWJlbCI+PHJlY3QgaGVpZ2h0PSIwIiB3aWR0aD0iMCIgcnk9IjAiIHJ4PSIwIj48L3JlY3Q+PHRleHQgc3R5bGU9IiI+PHRzcGFuIGNsYXNzPSJyb3ciIHg9IjAiIGR5PSIxZW0iIHhtbDpzcGFjZT0icHJlc2VydmUiPjwvdHNwYW4+PC90ZXh0PjwvZz48L2c+PGcgY2xhc3M9ImVkZ2VMYWJlbCI+PGcgdHJhbnNmb3JtPSJ0cmFuc2xhdGUoMCwgMCkiIGNsYXNzPSJsYWJlbCI+PHJlY3QgaGVpZ2h0PSIwIiB3aWR0aD0iMCIgcnk9IjAiIHJ4PSIwIj48L3JlY3Q+PHRleHQgc3R5bGU9IiI+PHRzcGFuIGNsYXNzPSJyb3ciIHg9IjAiIGR5PSIxZW0iIHhtbDpzcGFjZT0icHJlc2VydmUiPjwvdHNwYW4+PC90ZXh0PjwvZz48L2c+PGcgY2xhc3M9ImVkZ2VMYWJlbCI+PGcgdHJhbnNmb3JtPSJ0cmFuc2xhdGUoMCwgMCkiIGNsYXNzPSJsYWJlbCI+PHJlY3QgaGVpZ2h0PSIwIiB3aWR0aD0iMCIgcnk9IjAiIHJ4PSIwIj48L3JlY3Q+PHRleHQgc3R5bGU9IiI+PHRzcGFuIGNsYXNzPSJyb3ciIHg9IjAiIGR5PSIxZW0iIHhtbDpzcGFjZT0icHJlc2VydmUiPjwvdHNwYW4+PC90ZXh0PjwvZz48L2c+PGcgY2xhc3M9ImVkZ2VMYWJlbCI+PGcgdHJhbnNmb3JtPSJ0cmFuc2xhdGUoMCwgMCkiIGNsYXNzPSJsYWJlbCI+PHJlY3QgaGVpZ2h0PSIwIiB3aWR0aD0iMCIgcnk9IjAiIHJ4PSIwIj48L3JlY3Q+PHRleHQgc3R5bGU9IiI+PHRzcGFuIGNsYXNzPSJyb3ciIHg9IjAiIGR5PSIxZW0iIHhtbDpzcGFjZT0icHJlc2VydmUiPjwvdHNwYW4+PC90ZXh0PjwvZz48L2c+PGcgY2xhc3M9ImVkZ2VMYWJlbCI+PGcgdHJhbnNmb3JtPSJ0cmFuc2xhdGUoMCwgMCkiIGNsYXNzPSJsYWJlbCI+PHJlY3QgaGVpZ2h0PSIwIiB3aWR0aD0iMCIgcnk9IjAiIHJ4PSIwIj48L3JlY3Q+PHRleHQgc3R5bGU9IiI+PHRzcGFuIGNsYXNzPSJyb3ciIHg9IjAiIGR5PSIxZW0iIHhtbDpzcGFjZT0icHJlc2VydmUiPjwvdHNwYW4+PC90ZXh0PjwvZz48L2c+PGcgY2xhc3M9ImVkZ2VMYWJlbCI+PGcgdHJhbnNmb3JtPSJ0cmFuc2xhdGUoMCwgMCkiIGNsYXNzPSJsYWJlbCI+PHJlY3QgaGVpZ2h0PSIwIiB3aWR0aD0iMCIgcnk9IjAiIHJ4PSIwIj48L3JlY3Q+PHRleHQgc3R5bGU9IiI+PHRzcGFuIGNsYXNzPSJyb3ciIHg9IjAiIGR5PSIxZW0iIHhtbDpzcGFjZT0icHJlc2VydmUiPjwvdHNwYW4+PC90ZXh0PjwvZz48L2c+PGcgY2xhc3M9ImVkZ2VMYWJlbCI+PGcgdHJhbnNmb3JtPSJ0cmFuc2xhdGUoMCwgMCkiIGNsYXNzPSJsYWJlbCI+PHJlY3QgaGVpZ2h0PSIwIiB3aWR0aD0iMCIgcnk9IjAiIHJ4PSIwIj48L3JlY3Q+PHRleHQgc3R5bGU9IiI+PHRzcGFuIGNsYXNzPSJyb3ciIHg9IjAiIGR5PSIxZW0iIHhtbDpzcGFjZT0icHJlc2VydmUiPjwvdHNwYW4+PC90ZXh0PjwvZz48L2c+PGcgY2xhc3M9ImVkZ2VMYWJlbCI+PGcgdHJhbnNmb3JtPSJ0cmFuc2xhdGUoMCwgMCkiIGNsYXNzPSJsYWJlbCI+PHJlY3QgaGVpZ2h0PSIwIiB3aWR0aD0iMCIgcnk9IjAiIHJ4PSIwIj48L3JlY3Q+PHRleHQgc3R5bGU9IiI+PHRzcGFuIGNsYXNzPSJyb3ciIHg9IjAiIGR5PSIxZW0iIHhtbDpzcGFjZT0icHJlc2VydmUiPjwvdHNwYW4+PC90ZXh0PjwvZz48L2c+PGcgY2xhc3M9ImVkZ2VMYWJlbCI+PGcgdHJhbnNmb3JtPSJ0cmFuc2xhdGUoMCwgMCkiIGNsYXNzPSJsYWJlbCI+PHJlY3QgaGVpZ2h0PSIwIiB3aWR0aD0iMCIgcnk9IjAiIHJ4PSIwIj48L3JlY3Q+PHRleHQgc3R5bGU9IiI+PHRzcGFuIGNsYXNzPSJyb3ciIHg9IjAiIGR5PSIxZW0iIHhtbDpzcGFjZT0icHJlc2VydmUiPjwvdHNwYW4+PC90ZXh0PjwvZz48L2c+PGcgY2xhc3M9ImVkZ2VMYWJlbCI+PGcgdHJhbnNmb3JtPSJ0cmFuc2xhdGUoMCwgMCkiIGNsYXNzPSJsYWJlbCI+PHJlY3QgaGVpZ2h0PSIwIiB3aWR0aD0iMCIgcnk9IjAiIHJ4PSIwIj48L3JlY3Q+PHRleHQgc3R5bGU9IiI+PHRzcGFuIGNsYXNzPSJyb3ciIHg9IjAiIGR5PSIxZW0iIHhtbDpzcGFjZT0icHJlc2VydmUiPjwvdHNwYW4+PC90ZXh0PjwvZz48L2c+PGcgY2xhc3M9ImVkZ2VMYWJlbCI+PGcgdHJhbnNmb3JtPSJ0cmFuc2xhdGUoMCwgMCkiIGNsYXNzPSJsYWJlbCI+PHJlY3QgaGVpZ2h0PSIwIiB3aWR0aD0iMCIgcnk9IjAiIHJ4PSIwIj48L3JlY3Q+PHRleHQgc3R5bGU9IiI+PHRzcGFuIGNsYXNzPSJyb3ciIHg9IjAiIGR5PSIxZW0iIHhtbDpzcGFjZT0icHJlc2VydmUiPjwvdHNwYW4+PC90ZXh0PjwvZz48L2c+PGcgY2xhc3M9ImVkZ2VMYWJlbCI+PGcgdHJhbnNmb3JtPSJ0cmFuc2xhdGUoMCwgMCkiIGNsYXNzPSJsYWJlbCI+PHJlY3QgaGVpZ2h0PSIwIiB3aWR0aD0iMCIgcnk9IjAiIHJ4PSIwIj48L3JlY3Q+PHRleHQgc3R5bGU9IiI+PHRzcGFuIGNsYXNzPSJyb3ciIHg9IjAiIGR5PSIxZW0iIHhtbDpzcGFjZT0icHJlc2VydmUiPjwvdHNwYW4+PC90ZXh0PjwvZz48L2c+PGcgY2xhc3M9ImVkZ2VMYWJlbCI+PGcgdHJhbnNmb3JtPSJ0cmFuc2xhdGUoMCwgMCkiIGNsYXNzPSJsYWJlbCI+PHJlY3QgaGVpZ2h0PSIwIiB3aWR0aD0iMCIgcnk9IjAiIHJ4PSIwIj48L3JlY3Q+PHRleHQgc3R5bGU9IiI+PHRzcGFuIGNsYXNzPSJyb3ciIHg9IjAiIGR5PSIxZW0iIHhtbDpzcGFjZT0icHJlc2VydmUiPjwvdHNwYW4+PC90ZXh0PjwvZz48L2c+PGcgY2xhc3M9ImVkZ2VMYWJlbCI+PGcgdHJhbnNmb3JtPSJ0cmFuc2xhdGUoMCwgMCkiIGNsYXNzPSJsYWJlbCI+PHJlY3QgaGVpZ2h0PSIwIiB3aWR0aD0iMCIgcnk9IjAiIHJ4PSIwIj48L3JlY3Q+PHRleHQgc3R5bGU9IiI+PHRzcGFuIGNsYXNzPSJyb3ciIHg9IjAiIGR5PSIxZW0iIHhtbDpzcGFjZT0icHJlc2VydmUiPjwvdHNwYW4+PC90ZXh0PjwvZz48L2c+PGcgY2xhc3M9ImVkZ2VMYWJlbCI+PGcgdHJhbnNmb3JtPSJ0cmFuc2xhdGUoMCwgMCkiIGNsYXNzPSJsYWJlbCI+PHJlY3QgaGVpZ2h0PSIwIiB3aWR0aD0iMCIgcnk9IjAiIHJ4PSIwIj48L3JlY3Q+PHRleHQgc3R5bGU9IiI+PHRzcGFuIGNsYXNzPSJyb3ciIHg9IjAiIGR5PSIxZW0iIHhtbDpzcGFjZT0icHJlc2VydmUiPjwvdHNwYW4+PC90ZXh0PjwvZz48L2c+PGcgY2xhc3M9ImVkZ2VMYWJlbCI+PGcgdHJhbnNmb3JtPSJ0cmFuc2xhdGUoMCwgMCkiIGNsYXNzPSJsYWJlbCI+PHJlY3QgaGVpZ2h0PSIwIiB3aWR0aD0iMCIgcnk9IjAiIHJ4PSIwIj48L3JlY3Q+PHRleHQgc3R5bGU9IiI+PHRzcGFuIGNsYXNzPSJyb3ciIHg9IjAiIGR5PSIxZW0iIHhtbDpzcGFjZT0icHJlc2VydmUiPjwvdHNwYW4+PC90ZXh0PjwvZz48L2c+PGcgY2xhc3M9ImVkZ2VMYWJlbCI+PGcgdHJhbnNmb3JtPSJ0cmFuc2xhdGUoMCwgMCkiIGNsYXNzPSJsYWJlbCI+PHJlY3QgaGVpZ2h0PSIwIiB3aWR0aD0iMCIgcnk9IjAiIHJ4PSIwIj48L3JlY3Q+PHRleHQgc3R5bGU9IiI+PHRzcGFuIGNsYXNzPSJyb3ciIHg9IjAiIGR5PSIxZW0iIHhtbDpzcGFjZT0icHJlc2VydmUiPjwvdHNwYW4+PC90ZXh0PjwvZz48L2c+PC9nPjxnIGNsYXNzPSJub2RlcyI+PGcgdHJhbnNmb3JtPSJ0cmFuc2xhdGUoMTQyLjY3NTc4MTI1LCA4ODgpIiBpZD0iZmxvd2NoYXJ0LUcxLTMyMCIgY2xhc3M9Im5vZGUgZGVmYXVsdCBkZWZhdWx0Ij48cmVjdCBoZWlnaHQ9IjM0IiB3aWR0aD0iMTk5LjM1MTU2MjUiIHk9Ii0xNyIgeD0iLTk5LjY3NTc4MTI1IiByeT0iMCIgcng9IjAiIHN0eWxlPSIiIGNsYXNzPSJiYXNpYyBsYWJlbC1jb250YWluZXIiPjwvcmVjdD48ZyB0cmFuc2Zvcm09InRyYW5zbGF0ZSgtOTIuMTc1NzgxMjUsIC05LjUpIiBzdHlsZT0iIiBjbGFzcz0ibGFiZWwiPjx0ZXh0IHN0eWxlPSIiPjx0c3BhbiBjbGFzcz0icm93IiB4PSIwIiBkeT0iMWVtIiB4bWw6c3BhY2U9InByZXNlcnZlIj5JbnRlZ3JhdGUgaW50byBBcHBsaWNhdGlvbjwvdHNwYW4+PC90ZXh0PjwvZz48L2c+PGcgdHJhbnNmb3JtPSJ0cmFuc2xhdGUoNDI1LjI2NTYyNSwgODg4KSIgaWQ9ImZsb3djaGFydC1HMi0zMjEiIGNsYXNzPSJub2RlIGRlZmF1bHQgZGVmYXVsdCI+PHJlY3QgaGVpZ2h0PSIzNCIgd2lkdGg9IjI2NS44MjgxMjUiIHk9Ii0xNyIgeD0iLTEzMi45MTQwNjI1IiByeT0iMCIgcng9IjAiIHN0eWxlPSIiIGNsYXNzPSJiYXNpYyBsYWJlbC1jb250YWluZXIiPjwvcmVjdD48ZyB0cmFuc2Zvcm09InRyYW5zbGF0ZSgtMTI1LjQxNDA2MjUsIC05LjUpIiBzdHlsZT0iIiBjbGFzcz0ibGFiZWwiPjx0ZXh0IHN0eWxlPSIiPjx0c3BhbiBjbGFzcz0icm93IiB4PSIwIiBkeT0iMWVtIiB4bWw6c3BhY2U9InByZXNlcnZlIj5Nb25pdG9yIFBlcmZvcm1hbmNlIGluIFJlYWwgV29ybGQ8L3RzcGFuPjwvdGV4dD48L2c+PC9nPjxnIHRyYW5zZm9ybT0idHJhbnNsYXRlKDY4MC45MzM1OTM3NSwgODg4KSIgaWQ9ImZsb3djaGFydC1HMy0zMjIiIGNsYXNzPSJub2RlIGRlZmF1bHQgZGVmYXVsdCI+PHJlY3QgaGVpZ2h0PSIzNCIgd2lkdGg9IjE0NS41MDc4MTI1IiB5PSItMTciIHg9Ii03Mi43NTM5MDYyNSIgcnk9IjAiIHJ4PSIwIiBzdHlsZT0iIiBjbGFzcz0iYmFzaWMgbGFiZWwtY29udGFpbmVyIj48L3JlY3Q+PGcgdHJhbnNmb3JtPSJ0cmFuc2xhdGUoLTY1LjI1MzkwNjI1LCAtOS41KSIgc3R5bGU9IiIgY2xhc3M9ImxhYmVsIj48dGV4dCBzdHlsZT0iIj48dHNwYW4gY2xhc3M9InJvdyIgeD0iMCIgZHk9IjFlbSIgeG1sOnNwYWNlPSJwcmVzZXJ2ZSI+VXBkYXRlIGFzIE5lZWRlZDwvdHNwYW4+PC90ZXh0PjwvZz48L2c+PGcgdHJhbnNmb3JtPSJ0cmFuc2xhdGUoNDI1LjI2NTYyNSwgNzc5KSIgaWQ9ImZsb3djaGFydC1HLTI3NyIgY2xhc3M9Im5vZGUgZGVmYXVsdCBkZWZhdWx0Ij48cmVjdCBoZWlnaHQ9IjM0IiB3aWR0aD0iMTM5LjY3OTY4NzUiIHk9Ii0xNyIgeD0iLTY5LjgzOTg0Mzc1IiByeT0iMCIgcng9IjAiIHN0eWxlPSIiIGNsYXNzPSJiYXNpYyBsYWJlbC1jb250YWluZXIiPjwvcmVjdD48ZyB0cmFuc2Zvcm09InRyYW5zbGF0ZSgtNjIuMzM5ODQzNzUsIC05LjUpIiBzdHlsZT0iIiBjbGFzcz0ibGFiZWwiPjx0ZXh0IHN0eWxlPSIiPjx0c3BhbiBjbGFzcz0icm93IiB4PSIwIiBkeT0iMWVtIiB4bWw6c3BhY2U9InByZXNlcnZlIj5EZXBsb3kgdGhlIE1vZGVsPC90c3Bhbj48L3RleHQ+PC9nPjwvZz48ZyB0cmFuc2Zvcm09InRyYW5zbGF0ZSg5NDAuNSwgNzc5KSIgaWQ9ImZsb3djaGFydC1GMS0zMTEiIGNsYXNzPSJub2RlIGRlZmF1bHQgZGVmYXVsdCI+PHJlY3QgaGVpZ2h0PSIzNCIgd2lkdGg9IjE5My42MjUiIHk9Ii0xNyIgeD0iLTk2LjgxMjUiIHJ5PSIwIiByeD0iMCIgc3R5bGU9IiIgY2xhc3M9ImJhc2ljIGxhYmVsLWNvbnRhaW5lciI+PC9yZWN0PjxnIHRyYW5zZm9ybT0idHJhbnNsYXRlKC04OS4zMTI1LCAtOS41KSIgc3R5bGU9IiIgY2xhc3M9ImxhYmVsIj48dGV4dCBzdHlsZT0iIj48dHNwYW4gY2xhc3M9InJvdyIgeD0iMCIgZHk9IjFlbSIgeG1sOnNwYWNlPSJwcmVzZXJ2ZSI+VHdlYWsgTW9kZWwgUGFyYW1ldGVyczwvdHNwYW4+PC90ZXh0PjwvZz48L2c+PGcgdHJhbnNmb3JtPSJ0cmFuc2xhdGUoMTE4NS43MzgyODEyNSwgNzc5KSIgaWQ9ImZsb3djaGFydC1GMi0zMTIiIGNsYXNzPSJub2RlIGRlZmF1bHQgZGVmYXVsdCI+PHJlY3QgaGVpZ2h0PSIzNCIgd2lkdGg9IjE5Ni44NTE1NjI1IiB5PSItMTciIHg9Ii05OC40MjU3ODEyNSIgcnk9IjAiIHJ4PSIwIiBzdHlsZT0iIiBjbGFzcz0iYmFzaWMgbGFiZWwtY29udGFpbmVyIj48L3JlY3Q+PGcgdHJhbnNmb3JtPSJ0cmFuc2xhdGUoLTkwLjkyNTc4MTI1LCAtOS41KSIgc3R5bGU9IiIgY2xhc3M9ImxhYmVsIj48dGV4dCBzdHlsZT0iIj48dHNwYW4gY2xhc3M9InJvdyIgeD0iMCIgZHk9IjFlbSIgeG1sOnNwYWNlPSJwcmVzZXJ2ZSI+UmV0cmFpbiB3aXRoIEFkanVzdG1lbnRzPC90c3Bhbj48L3RleHQ+PC9nPjwvZz48ZyB0cmFuc2Zvcm09InRyYW5zbGF0ZSgxNDM3LjQ2MDkzNzUsIDc3OSkiIGlkPSJmbG93Y2hhcnQtRjMtMzEzIiBjbGFzcz0ibm9kZSBkZWZhdWx0IGRlZmF1bHQiPjxyZWN0IGhlaWdodD0iMzQiIHdpZHRoPSIyMDYuNTkzNzUiIHk9Ii0xNyIgeD0iLTEwMy4yOTY4NzUiIHJ5PSIwIiByeD0iMCIgc3R5bGU9IiIgY2xhc3M9ImJhc2ljIGxhYmVsLWNvbnRhaW5lciI+PC9yZWN0PjxnIHRyYW5zZm9ybT0idHJhbnNsYXRlKC05NS43OTY4NzUsIC05LjUpIiBzdHlsZT0iIiBjbGFzcz0ibGFiZWwiPjx0ZXh0IHN0eWxlPSIiPjx0c3BhbiBjbGFzcz0icm93IiB4PSIwIiBkeT0iMWVtIiB4bWw6c3BhY2U9InByZXNlcnZlIj5JdGVyYXRlIEJhc2VkIG9uIEZlZWRiYWNrPC90c3Bhbj48L3RleHQ+PC9nPjwvZz48ZyB0cmFuc2Zvcm09InRyYW5zbGF0ZSgxMDYzLjExOTE0MDYyNSwgNjQ1KSIgaWQ9ImZsb3djaGFydC1GLTI3NSIgY2xhc3M9Im5vZGUgZGVmYXVsdCBkZWZhdWx0Ij48cmVjdCBoZWlnaHQ9IjM0IiB3aWR0aD0iMTQ5LjA0Njg3NSIgeT0iLTE3IiB4PSItNzQuNTIzNDM3NSIgcnk9IjAiIHJ4PSIwIiBzdHlsZT0iIiBjbGFzcz0iYmFzaWMgbGFiZWwtY29udGFpbmVyIj48L3JlY3Q+PGcgdHJhbnNmb3JtPSJ0cmFuc2xhdGUoLTY3LjAyMzQzNzUsIC05LjUpIiBzdHlsZT0iIiBjbGFzcz0ibGFiZWwiPjx0ZXh0IHN0eWxlPSIiPjx0c3BhbiBjbGFzcz0icm93IiB4PSIwIiBkeT0iMWVtIiB4bWw6c3BhY2U9InByZXNlcnZlIj5JbXByb3ZlIHRoZSBNb2RlbDwvdHNwYW4+PC90ZXh0PjwvZz48L2c+PGcgdHJhbnNmb3JtPSJ0cmFuc2xhdGUoMTczNy41LCA2NDUpIiBpZD0iZmxvd2NoYXJ0LUUxLTMwMiIgY2xhc3M9Im5vZGUgZGVmYXVsdCBkZWZhdWx0Ij48cmVjdCBoZWlnaHQ9IjM0IiB3aWR0aD0iMjEzLjQ4NDM3NSIgeT0iLTE3IiB4PSItMTA2Ljc0MjE4NzUiIHJ5PSIwIiByeD0iMCIgc3R5bGU9IiIgY2xhc3M9ImJhc2ljIGxhYmVsLWNvbnRhaW5lciI+PC9yZWN0PjxnIHRyYW5zZm9ybT0idHJhbnNsYXRlKC05OS4yNDIxODc1LCAtOS41KSIgc3R5bGU9IiIgY2xhc3M9ImxhYmVsIj48dGV4dCBzdHlsZT0iIj48dHNwYW4gY2xhc3M9InJvdyIgeD0iMCIgZHk9IjFlbSIgeG1sOnNwYWNlPSJwcmVzZXJ2ZSI+RXZhbHVhdGUgb24gVmFsaWRhdGlvbiBEYXRhPC90c3Bhbj48L3RleHQ+PC9nPjwvZz48ZyB0cmFuc2Zvcm09InRyYW5zbGF0ZSgyMDI5LjIxMDkzNzUsIDY0NSkiIGlkPSJmbG93Y2hhcnQtRTItMzAzIiBjbGFzcz0ibm9kZSBkZWZhdWx0IGRlZmF1bHQiPjxyZWN0IGhlaWdodD0iMzQiIHdpZHRoPSIyNjkuOTM3NSIgeT0iLTE3IiB4PSItMTM0Ljk2ODc1IiByeT0iMCIgcng9IjAiIHN0eWxlPSIiIGNsYXNzPSJiYXNpYyBsYWJlbC1jb250YWluZXIiPjwvcmVjdD48ZyB0cmFuc2Zvcm09InRyYW5zbGF0ZSgtMTI3LjQ2ODc1LCAtOS41KSIgc3R5bGU9IiIgY2xhc3M9ImxhYmVsIj48dGV4dCBzdHlsZT0iIj48dHNwYW4gY2xhc3M9InJvdyIgeD0iMCIgZHk9IjFlbSIgeG1sOnNwYWNlPSJwcmVzZXJ2ZSI+TWVhc3VyZSBBY2N1cmFjeSBhbmQgUGVyZm9ybWFuY2U8L3RzcGFuPjwvdGV4dD48L2c+PC9nPjxnIHRyYW5zZm9ybT0idHJhbnNsYXRlKDIyOTIuNzc3MzQzNzUsIDY0NSkiIGlkPSJmbG93Y2hhcnQtRTMtMzA0IiBjbGFzcz0ibm9kZSBkZWZhdWx0IGRlZmF1bHQiPjxyZWN0IGhlaWdodD0iMzQiIHdpZHRoPSIxNTcuMTk1MzEyNSIgeT0iLTE3IiB4PSItNzguNTk3NjU2MjUiIHJ5PSIwIiByeD0iMCIgc3R5bGU9IiIgY2xhc3M9ImJhc2ljIGxhYmVsLWNvbnRhaW5lciI+PC9yZWN0PjxnIHRyYW5zZm9ybT0idHJhbnNsYXRlKC03MS4wOTc2NTYyNSwgLTkuNSkiIHN0eWxlPSIiIGNsYXNzPSJsYWJlbCI+PHRleHQgc3R5bGU9IiI+PHRzcGFuIGNsYXNzPSJyb3ciIHg9IjAiIGR5PSIxZW0iIHhtbDpzcGFjZT0icHJlc2VydmUiPklkZW50aWZ5IFdlYWsgQXJlYXM8L3RzcGFuPjwvdGV4dD48L2c+PC9nPjxnIHRyYW5zZm9ybT0idHJhbnNsYXRlKDE4ODMuMzU1NDY4NzUsIDUxMSkiIGlkPSJmbG93Y2hhcnQtRS0yNzMiIGNsYXNzPSJub2RlIGRlZmF1bHQgZGVmYXVsdCI+PHJlY3QgaGVpZ2h0PSIzNCIgd2lkdGg9IjEyMC44NzUiIHk9Ii0xNyIgeD0iLTYwLjQzNzUiIHJ5PSIwIiByeD0iMCIgc3R5bGU9IiIgY2xhc3M9ImJhc2ljIGxhYmVsLWNvbnRhaW5lciI+PC9yZWN0PjxnIHRyYW5zZm9ybT0idHJhbnNsYXRlKC01Mi45Mzc1LCAtOS41KSIgc3R5bGU9IiIgY2xhc3M9ImxhYmVsIj48dGV4dCBzdHlsZT0iIj48dHNwYW4gY2xhc3M9InJvdyIgeD0iMCIgZHk9IjFlbSIgeG1sOnNwYWNlPSJwcmVzZXJ2ZSI+VGVzdCB0aGUgTW9kZWw8L3RzcGFuPjwvdGV4dD48L2c+PC9nPjxnIHRyYW5zZm9ybT0idHJhbnNsYXRlKDI1NTIuNjk5MjE4NzUsIDUxMSkiIGlkPSJmbG93Y2hhcnQtRDEtMjkzIiBjbGFzcz0ibm9kZSBkZWZhdWx0IGRlZmF1bHQiPjxyZWN0IGhlaWdodD0iMzQiIHdpZHRoPSIxODIuNjQ4NDM3NSIgeT0iLTE3IiB4PSItOTEuMzI0MjE4NzUiIHJ5PSIwIiByeD0iMCIgc3R5bGU9IiIgY2xhc3M9ImJhc2ljIGxhYmVsLWNvbnRhaW5lciI+PC9yZWN0PjxnIHRyYW5zZm9ybT0idHJhbnNsYXRlKC04My44MjQyMTg3NSwgLTkuNSkiIHN0eWxlPSIiIGNsYXNzPSJsYWJlbCI+PHRleHQgc3R5bGU9IiI+PHRzcGFuIGNsYXNzPSJyb3ciIHg9IjAiIGR5PSIxZW0iIHhtbDpzcGFjZT0icHJlc2VydmUiPkZlZWQgVG9rZW5zIGludG8gTW9kZWw8L3RzcGFuPjwvdGV4dD48L2c+PC9nPjxnIHRyYW5zZm9ybT0idHJhbnNsYXRlKDI3NzkuMDM1MTU2MjUsIDUxMSkiIGlkPSJmbG93Y2hhcnQtRDItMjk0IiBjbGFzcz0ibm9kZSBkZWZhdWx0IGRlZmF1bHQiPjxyZWN0IGhlaWdodD0iMzQiIHdpZHRoPSIxNzAuMDIzNDM3NSIgeT0iLTE3IiB4PSItODUuMDExNzE4NzUiIHJ5PSIwIiByeD0iMCIgc3R5bGU9IiIgY2xhc3M9ImJhc2ljIGxhYmVsLWNvbnRhaW5lciI+PC9yZWN0PjxnIHRyYW5zZm9ybT0idHJhbnNsYXRlKC03Ny41MTE3MTg3NSwgLTkuNSkiIHN0eWxlPSIiIGNsYXNzPSJsYWJlbCI+PHRleHQgc3R5bGU9IiI+PHRzcGFuIGNsYXNzPSJyb3ciIHg9IjAiIGR5PSIxZW0iIHhtbDpzcGFjZT0icHJlc2VydmUiPkFkanVzdCBNb2RlbCBXZWlnaHRzPC90c3Bhbj48L3RleHQ+PC9nPjwvZz48ZyB0cmFuc2Zvcm09InRyYW5zbGF0ZSgzMDEyLjAzMTI1LCA1MTEpIiBpZD0iZmxvd2NoYXJ0LUQzLTI5NSIgY2xhc3M9Im5vZGUgZGVmYXVsdCBkZWZhdWx0Ij48cmVjdCBoZWlnaHQ9IjM0IiB3aWR0aD0iMTk1Ljk2ODc1IiB5PSItMTciIHg9Ii05Ny45ODQzNzUiIHJ5PSIwIiByeD0iMCIgc3R5bGU9IiIgY2xhc3M9ImJhc2ljIGxhYmVsLWNvbnRhaW5lciI+PC9yZWN0PjxnIHRyYW5zZm9ybT0idHJhbnNsYXRlKC05MC40ODQzNzUsIC05LjUpIiBzdHlsZT0iIiBjbGFzcz0ibGFiZWwiPjx0ZXh0IHN0eWxlPSIiPjx0c3BhbiBjbGFzcz0icm93IiB4PSIwIiBkeT0iMWVtIiB4bWw6c3BhY2U9InByZXNlcnZlIj5Nb25pdG9yIFRyYWluaW5nIFByb2dyZXNzPC90c3Bhbj48L3RleHQ+PC9nPjwvZz48ZyB0cmFuc2Zvcm09InRyYW5zbGF0ZSgyNjY1Ljg2NzE4NzUsIDM3NykiIGlkPSJmbG93Y2hhcnQtRC0yNzEiIGNsYXNzPSJub2RlIGRlZmF1bHQgZGVmYXVsdCI+PHJlY3QgaGVpZ2h0PSIzNCIgd2lkdGg9IjEyNy40OTIxODc1IiB5PSItMTciIHg9Ii02My43NDYwOTM3NSIgcnk9IjAiIHJ4PSIwIiBzdHlsZT0iIiBjbGFzcz0iYmFzaWMgbGFiZWwtY29udGFpbmVyIj48L3JlY3Q+PGcgdHJhbnNmb3JtPSJ0cmFuc2xhdGUoLTU2LjI0NjA5Mzc1LCAtOS41KSIgc3R5bGU9IiIgY2xhc3M9ImxhYmVsIj48dGV4dCBzdHlsZT0iIj48dHNwYW4gY2xhc3M9InJvdyIgeD0iMCIgZHk9IjFlbSIgeG1sOnNwYWNlPSJwcmVzZXJ2ZSI+VHJhaW4gdGhlIE1vZGVsPC90c3Bhbj48L3RleHQ+PC9nPjwvZz48ZyB0cmFuc2Zvcm09InRyYW5zbGF0ZSgzMzMxLjkwNjI1LCAzNzcpIiBpZD0iZmxvd2NoYXJ0LUMxLTI4NyIgY2xhc3M9Im5vZGUgZGVmYXVsdCBkZWZhdWx0Ij48cmVjdCBoZWlnaHQ9IjM0IiB3aWR0aD0iMjYzLjc4MTI1IiB5PSItMTciIHg9Ii0xMzEuODkwNjI1IiByeT0iMCIgcng9IjAiIHN0eWxlPSIiIGNsYXNzPSJiYXNpYyBsYWJlbC1jb250YWluZXIiPjwvcmVjdD48ZyB0cmFuc2Zvcm09InRyYW5zbGF0ZSgtMTI0LjM5MDYyNSwgLTkuNSkiIHN0eWxlPSIiIGNsYXNzPSJsYWJlbCI+PHRleHQgc3R5bGU9IiI+PHRzcGFuIGNsYXNzPSJyb3ciIHg9IjAiIGR5PSIxZW0iIHhtbDpzcGFjZT0icHJlc2VydmUiPkJyZWFrIFRleHQgaW50byBXb3JkcyBvciBTdWJ3b3JkczwvdHNwYW4+PC90ZXh0PjwvZz48L2c+PGcgdHJhbnNmb3JtPSJ0cmFuc2xhdGUoMzYzNy4yNjk1MzEyNSwgMzc3KSIgaWQ9ImZsb3djaGFydC1DMi0yODgiIGNsYXNzPSJub2RlIGRlZmF1bHQgZGVmYXVsdCI+PHJlY3QgaGVpZ2h0PSIzNCIgd2lkdGg9IjI0Ni45NDUzMTI1IiB5PSItMTciIHg9Ii0xMjMuNDcyNjU2MjUiIHJ5PSIwIiByeD0iMCIgc3R5bGU9IiIgY2xhc3M9ImJhc2ljIGxhYmVsLWNvbnRhaW5lciI+PC9yZWN0PjxnIHRyYW5zZm9ybT0idHJhbnNsYXRlKC0xMTUuOTcyNjU2MjUsIC05LjUpIiBzdHlsZT0iIiBjbGFzcz0ibGFiZWwiPjx0ZXh0IHN0eWxlPSIiPjx0c3BhbiBjbGFzcz0icm93IiB4PSIwIiBkeT0iMWVtIiB4bWw6c3BhY2U9InByZXNlcnZlIj5Bc3NpZ24gTnVtZXJpYyBWYWx1ZXMgdG8gVG9rZW5zPC90c3Bhbj48L3RleHQ+PC9nPjwvZz48ZyB0cmFuc2Zvcm09InRyYW5zbGF0ZSgzMzMxLjkwNjI1LCAyNDMpIiBpZD0iZmxvd2NoYXJ0LUMtMjY5IiBjbGFzcz0ibm9kZSBkZWZhdWx0IGRlZmF1bHQiPjxyZWN0IGhlaWdodD0iMzQiIHdpZHRoPSIxNzguNjQwNjI1IiB5PSItMTciIHg9Ii04OS4zMjAzMTI1IiByeT0iMCIgcng9IjAiIHN0eWxlPSIiIGNsYXNzPSJiYXNpYyBsYWJlbC1jb250YWluZXIiPjwvcmVjdD48ZyB0cmFuc2Zvcm09InRyYW5zbGF0ZSgtODEuODIwMzEyNSwgLTkuNSkiIHN0eWxlPSIiIGNsYXNzPSJsYWJlbCI+PHRleHQgc3R5bGU9IiI+PHRzcGFuIGNsYXNzPSJyb3ciIHg9IjAiIGR5PSIxZW0iIHhtbDpzcGFjZT0icHJlc2VydmUiPkNvbnZlcnQgVGV4dCB0byBUb2tlbnM8L3RzcGFuPjwvdGV4dD48L2c+PC9nPjxnIHRyYW5zZm9ybT0idHJhbnNsYXRlKDM5NDIuNzQyMTg3NSwgMjQzKSIgaWQ9ImZsb3djaGFydC1CMS0yNzgiIGNsYXNzPSJub2RlIGRlZmF1bHQgZGVmYXVsdCI+PHJlY3QgaGVpZ2h0PSIzNCIgd2lkdGg9IjE4My4zNjcxODc1IiB5PSItMTciIHg9Ii05MS42ODM1OTM3NSIgcnk9IjAiIHJ4PSIwIiBzdHlsZT0iIiBjbGFzcz0iYmFzaWMgbGFiZWwtY29udGFpbmVyIj48L3JlY3Q+PGcgdHJhbnNmb3JtPSJ0cmFuc2xhdGUoLTg0LjE4MzU5Mzc1LCAtOS41KSIgc3R5bGU9IiIgY2xhc3M9ImxhYmVsIj48dGV4dCBzdHlsZT0iIj48dHNwYW4gY2xhc3M9InJvdyIgeD0iMCIgZHk9IjFlbSIgeG1sOnNwYWNlPSJwcmVzZXJ2ZSI+UmVtb3ZlIFVud2FudGVkIFRleHQ8L3RzcGFuPjwvdGV4dD48L2c+PC9nPjxnIHRyYW5zZm9ybT0idHJhbnNsYXRlKDQxOTcuODEyNSwgMjQzKSIgaWQ9ImZsb3djaGFydC1CMi0yNzkiIGNsYXNzPSJub2RlIGRlZmF1bHQgZGVmYXVsdCI+PHJlY3QgaGVpZ2h0PSIzNCIgd2lkdGg9IjIyNi43NzM0Mzc1IiB5PSItMTciIHg9Ii0xMTMuMzg2NzE4NzUiIHJ5PSIwIiByeD0iMCIgc3R5bGU9IiIgY2xhc3M9ImJhc2ljIGxhYmVsLWNvbnRhaW5lciI+PC9yZWN0PjxnIHRyYW5zZm9ybT0idHJhbnNsYXRlKC0xMDUuODg2NzE4NzUsIC05LjUpIiBzdHlsZT0iIiBjbGFzcz0ibGFiZWwiPjx0ZXh0IHN0eWxlPSIiPjx0c3BhbiBjbGFzcz0icm93IiB4PSIwIiBkeT0iMWVtIiB4bWw6c3BhY2U9InByZXNlcnZlIj5GaXggRXJyb3JzIGFuZCBJbmNvbnNpc3RlbmNpZXM8L3RzcGFuPjwvdGV4dD48L2c+PC9nPjxnIHRyYW5zZm9ybT0idHJhbnNsYXRlKDQ0ODUuNDU3MDMxMjUsIDI0MykiIGlkPSJmbG93Y2hhcnQtQjMtMjgwIiBjbGFzcz0ibm9kZSBkZWZhdWx0IGRlZmF1bHQiPjxyZWN0IGhlaWdodD0iMzQiIHdpZHRoPSIyNDguNTE1NjI1IiB5PSItMTciIHg9Ii0xMjQuMjU3ODEyNSIgcnk9IjAiIHJ4PSIwIiBzdHlsZT0iIiBjbGFzcz0iYmFzaWMgbGFiZWwtY29udGFpbmVyIj48L3JlY3Q+PGcgdHJhbnNmb3JtPSJ0cmFuc2xhdGUoLTExNi43NTc4MTI1LCAtOS41KSIgc3R5bGU9IiIgY2xhc3M9ImxhYmVsIj48dGV4dCBzdHlsZT0iIj48dHNwYW4gY2xhc3M9InJvdyIgeD0iMCIgZHk9IjFlbSIgeG1sOnNwYWNlPSJwcmVzZXJ2ZSI+T3JnYW5pemUgaW50byBTdHJ1Y3R1cmVkIEZvcm1hdDwvdHNwYW4+PC90ZXh0PjwvZz48L2c+PGcgdHJhbnNmb3JtPSJ0cmFuc2xhdGUoNDA3MC4yNzczNDM3NSwgMTM0KSIgaWQ9ImZsb3djaGFydC1CLTI2NyIgY2xhc3M9Im5vZGUgZGVmYXVsdCBkZWZhdWx0Ij48cmVjdCBoZWlnaHQ9IjM0IiB3aWR0aD0iMTg0LjYzMjgxMjUiIHk9Ii0xNyIgeD0iLTkyLjMxNjQwNjI1IiByeT0iMCIgcng9IjAiIHN0eWxlPSIiIGNsYXNzPSJiYXNpYyBsYWJlbC1jb250YWluZXIiPjwvcmVjdD48ZyB0cmFuc2Zvcm09InRyYW5zbGF0ZSgtODQuODE2NDA2MjUsIC05LjUpIiBzdHlsZT0iIiBjbGFzcz0ibGFiZWwiPjx0ZXh0IHN0eWxlPSIiPjx0c3BhbiBjbGFzcz0icm93IiB4PSIwIiBkeT0iMWVtIiB4bWw6c3BhY2U9InByZXNlcnZlIj5DbGVhbiBhbmQgUHJlcGFyZSBEYXRhPC90c3Bhbj48L3RleHQ+PC9nPjwvZz48ZyB0cmFuc2Zvcm09InRyYW5zbGF0ZSg0MDcwLjI3NzM0Mzc1LCAyNSkiIGlkPSJmbG93Y2hhcnQtQS0yNjYiIGNsYXNzPSJub2RlIGRlZmF1bHQgZGVmYXVsdCI+PHJlY3QgaGVpZ2h0PSIzNCIgd2lkdGg9IjEzOC44ODI4MTI1IiB5PSItMTciIHg9Ii02OS40NDE0MDYyNSIgcnk9IjAiIHJ4PSIwIiBzdHlsZT0iIiBjbGFzcz0iYmFzaWMgbGFiZWwtY29udGFpbmVyIj48L3JlY3Q+PGcgdHJhbnNmb3JtPSJ0cmFuc2xhdGUoLTYxLjk0MTQwNjI1LCAtOS41KSIgc3R5bGU9IiIgY2xhc3M9ImxhYmVsIj48dGV4dCBzdHlsZT0iIj48dHNwYW4gY2xhc3M9InJvdyIgeD0iMCIgZHk9IjFlbSIgeG1sOnNwYWNlPSJwcmVzZXJ2ZSI+Q29sbGVjdCBUZXh0IERhdGE8L3RzcGFuPjwvdGV4dD48L2c+PC9nPjwvZz48L2c+PC9nPjwvc3ZnPg==;" vertex="1" parent="1">
                        <mxGeometry x="690" y="-43" width="100" height="938" as="geometry"/>
                    </mxCell>
                </UserObject>
            </root>
        </mxGraphModel>
    </diagram>
    <diagram id="Zc4Cta0GLHiG0q0rsqNs" name="Page-2">
        <mxGraphModel dx="61" dy="1129" grid="1" gridSize="10" guides="1" tooltips="1" connect="1" arrows="1" fold="1" page="1" pageScale="1" pageWidth="850" pageHeight="1100" math="0" shadow="0">
            <root>
                <mxCell id="0"/>
                <mxCell id="1" parent="0"/>
                <UserObject label="" mermaidData="{&#10;  &quot;data&quot;: &quot;flowchart TD\n    A[Collect Text Data] --&gt; B[Clean and Prepare Data]\n    B --&gt; C[Convert Text to Tokens]\n    C --&gt; D[Train the Model]\n    D --&gt; E[Test the Model]\n    E --&gt; F[Improve the Model]\n    F --&gt; G[Deploy the Model]\n\n    subgraph Clean and Prepare Data\n        B1[Remove Unwanted Text]\n        B2[Fix Errors and Inconsistencies]\n        B3[Organize into Structured Format]\n        B --&gt; B1\n        B --&gt; B2\n        B --&gt; B3\n    end\n\n    subgraph Convert Text to Tokens\n        C1[Break Text into Words or Subwords]\n        C2[Assign Numeric Values to Tokens]\n        C --&gt; C1\n        C --&gt; C2\n    end\n\n    subgraph Train the Model\n        D1[Feed Tokens into Model]\n        D2[Adjust Model Weights]\n        D3[Monitor Training Progress]\n        D --&gt; D1\n        D --&gt; D2\n        D --&gt; D3\n    end\n\n    subgraph Test the Model\n        E1[Evaluate on Validation Data]\n        E2[Measure Accuracy and Performance]\n        E3[Identify Weak Areas]\n        E --&gt; E1\n        E --&gt; E2\n        E --&gt; E3\n    end\n\n    subgraph Improve the Model\n        F1[Tweak Model Parameters]\n        F2[Retrain with Adjustments]\n        F3[Iterate Based on Feedback]\n        F --&gt; F1\n        F --&gt; F2\n        F --&gt; F3\n    end\n\n    subgraph Deploy the Model\n        G1[Integrate into Application]\n        G2[Monitor Performance in Real World]\n        G3[Update as Needed]\n        G --&gt; G1\n        G --&gt; G2\n        G --&gt; G3\n    end\n\n    classDef description fill:#f9f,stroke:#333,stroke-width:2px;\n    class description fill:#fff,stroke:none;\n\n    style desc fill:#fff,stroke:none;\n&quot;,&#10;  &quot;config&quot;: {&#10;    &quot;theme&quot;: &quot;neutral&quot;,&#10;    &quot;arrowMarkerAbsolute&quot;: false,&#10;    &quot;flowchart&quot;: {&#10;      &quot;htmlLabels&quot;: false&#10;    },&#10;    &quot;sequence&quot;: {&#10;      &quot;diagramMarginX&quot;: 50,&#10;      &quot;diagramMarginY&quot;: 10,&#10;      &quot;actorMargin&quot;: 50,&#10;      &quot;width&quot;: 150,&#10;      &quot;height&quot;: 65,&#10;      &quot;boxMargin&quot;: 10,&#10;      &quot;boxTextMargin&quot;: 5,&#10;      &quot;noteMargin&quot;: 10,&#10;      &quot;messageMargin&quot;: 35,&#10;      &quot;mirrorActors&quot;: true,&#10;      &quot;bottomMarginAdj&quot;: 1,&#10;      &quot;useMaxWidth&quot;: true,&#10;      &quot;rightAngles&quot;: false,&#10;      &quot;showSequenceNumbers&quot;: false&#10;    },&#10;    &quot;gantt&quot;: {&#10;      &quot;titleTopMargin&quot;: 25,&#10;      &quot;barHeight&quot;: 20,&#10;      &quot;barGap&quot;: 4,&#10;      &quot;topPadding&quot;: 50,&#10;      &quot;leftPadding&quot;: 75,&#10;      &quot;gridLineStartPadding&quot;: 35,&#10;      &quot;fontSize&quot;: 11,&#10;      &quot;fontFamily&quot;: &quot;\&quot;Open-Sans\&quot;, \&quot;sans-serif\&quot;&quot;,&#10;      &quot;numberSectionStyles&quot;: 4,&#10;      &quot;axisFormat&quot;: &quot;%Y-%m-%d&quot;&#10;    }&#10;  }&#10;}" id="Wxln5O-tLfqkylkgSrGR-2">
                    <mxCell style="shape=image;noLabel=1;verticalAlign=top;imageAspect=1;image=data:image/svg+xml,PHN2ZyB2aWV3Qm94PSIwIDAgNDY1Mi43MTQ4NDM3NSA5MzgiIHN0eWxlPSJtYXgtd2lkdGg6IDQ2NTIuNzE0ODQzNzVweDsiIGhlaWdodD0iOTM4IiBhcmlhLWxhYmVsbGVkYnk9ImNoYXJ0LXRpdGxlLWdlTWVybWFpZE91dHB1dC0xNzI1OTkyODE5OTE3IGNoYXJ0LWRlc2MtZ2VNZXJtYWlkT3V0cHV0LTE3MjU5OTI4MTk5MTciIHJvbGU9ImltZyIgeG1sbnM6eGxpbms9Imh0dHA6Ly93d3cudzMub3JnLzE5OTkveGxpbmsiIHhtbG5zPSJodHRwOi8vd3d3LnczLm9yZy8yMDAwL3N2ZyIgd2lkdGg9IjEwMCUiIGlkPSJnZU1lcm1haWRPdXRwdXQtMTcyNTk5MjgxOTkxNyI+PHRpdGxlIGlkPSJjaGFydC10aXRsZS1nZU1lcm1haWRPdXRwdXQtMTcyNTk5MjgxOTkxNyI+PC90aXRsZT48ZGVzYyBpZD0iY2hhcnQtZGVzYy1nZU1lcm1haWRPdXRwdXQtMTcyNTk5MjgxOTkxNyI+PC9kZXNjPjxzdHlsZT4jZ2VNZXJtYWlkT3V0cHV0LTE3MjU5OTI4MTk5MTcge2ZvbnQtZmFtaWx5OiJ0cmVidWNoZXQgbXMiLHZlcmRhbmEsYXJpYWwsc2Fucy1zZXJpZjtmb250LXNpemU6MTZweDtmaWxsOiMwMDAwMDA7fSNnZU1lcm1haWRPdXRwdXQtMTcyNTk5MjgxOTkxNyAuZXJyb3ItaWNvbntmaWxsOiM1NTIyMjI7fSNnZU1lcm1haWRPdXRwdXQtMTcyNTk5MjgxOTkxNyAuZXJyb3ItdGV4dHtmaWxsOiM1NTIyMjI7c3Ryb2tlOiM1NTIyMjI7fSNnZU1lcm1haWRPdXRwdXQtMTcyNTk5MjgxOTkxNyAuZWRnZS10aGlja25lc3Mtbm9ybWFse3N0cm9rZS13aWR0aDoycHg7fSNnZU1lcm1haWRPdXRwdXQtMTcyNTk5MjgxOTkxNyAuZWRnZS10aGlja25lc3MtdGhpY2t7c3Ryb2tlLXdpZHRoOjMuNXB4O30jZ2VNZXJtYWlkT3V0cHV0LTE3MjU5OTI4MTk5MTcgLmVkZ2UtcGF0dGVybi1zb2xpZHtzdHJva2UtZGFzaGFycmF5OjA7fSNnZU1lcm1haWRPdXRwdXQtMTcyNTk5MjgxOTkxNyAuZWRnZS1wYXR0ZXJuLWRhc2hlZHtzdHJva2UtZGFzaGFycmF5OjM7fSNnZU1lcm1haWRPdXRwdXQtMTcyNTk5MjgxOTkxNyAuZWRnZS1wYXR0ZXJuLWRvdHRlZHtzdHJva2UtZGFzaGFycmF5OjI7fSNnZU1lcm1haWRPdXRwdXQtMTcyNTk5MjgxOTkxNyAubWFya2Vye2ZpbGw6IzY2NjtzdHJva2U6IzY2Njt9I2dlTWVybWFpZE91dHB1dC0xNzI1OTkyODE5OTE3IC5tYXJrZXIuY3Jvc3N7c3Ryb2tlOiM2NjY7fSNnZU1lcm1haWRPdXRwdXQtMTcyNTk5MjgxOTkxNyBzdmd7Zm9udC1mYW1pbHk6InRyZWJ1Y2hldCBtcyIsdmVyZGFuYSxhcmlhbCxzYW5zLXNlcmlmO2ZvbnQtc2l6ZToxNnB4O30jZ2VNZXJtYWlkT3V0cHV0LTE3MjU5OTI4MTk5MTcgLmxhYmVse2ZvbnQtZmFtaWx5OiJ0cmVidWNoZXQgbXMiLHZlcmRhbmEsYXJpYWwsc2Fucy1zZXJpZjtjb2xvcjojMDAwMDAwO30jZ2VNZXJtYWlkT3V0cHV0LTE3MjU5OTI4MTk5MTcgLmNsdXN0ZXItbGFiZWwgdGV4dHtmaWxsOiMzMzM7fSNnZU1lcm1haWRPdXRwdXQtMTcyNTk5MjgxOTkxNyAuY2x1c3Rlci1sYWJlbCBzcGFue2NvbG9yOiMzMzM7fSNnZU1lcm1haWRPdXRwdXQtMTcyNTk5MjgxOTkxNyAubGFiZWwgdGV4dCwjZ2VNZXJtYWlkT3V0cHV0LTE3MjU5OTI4MTk5MTcgc3BhbntmaWxsOiMwMDAwMDA7Y29sb3I6IzAwMDAwMDt9I2dlTWVybWFpZE91dHB1dC0xNzI1OTkyODE5OTE3IC5ub2RlIHJlY3QsI2dlTWVybWFpZE91dHB1dC0xNzI1OTkyODE5OTE3IC5ub2RlIGNpcmNsZSwjZ2VNZXJtYWlkT3V0cHV0LTE3MjU5OTI4MTk5MTcgLm5vZGUgZWxsaXBzZSwjZ2VNZXJtYWlkT3V0cHV0LTE3MjU5OTI4MTk5MTcgLm5vZGUgcG9seWdvbiwjZ2VNZXJtYWlkT3V0cHV0LTE3MjU5OTI4MTk5MTcgLm5vZGUgcGF0aHtmaWxsOiNlZWU7c3Ryb2tlOiM5OTk7c3Ryb2tlLXdpZHRoOjFweDt9I2dlTWVybWFpZE91dHB1dC0xNzI1OTkyODE5OTE3IC5ub2RlIC5sYWJlbHt0ZXh0LWFsaWduOmNlbnRlcjt9I2dlTWVybWFpZE91dHB1dC0xNzI1OTkyODE5OTE3IC5ub2RlLmNsaWNrYWJsZXtjdXJzb3I6cG9pbnRlcjt9I2dlTWVybWFpZE91dHB1dC0xNzI1OTkyODE5OTE3IC5hcnJvd2hlYWRQYXRoe2ZpbGw6IzMzMzMzMzt9I2dlTWVybWFpZE91dHB1dC0xNzI1OTkyODE5OTE3IC5lZGdlUGF0aCAucGF0aHtzdHJva2U6IzY2NjtzdHJva2Utd2lkdGg6Mi4wcHg7fSNnZU1lcm1haWRPdXRwdXQtMTcyNTk5MjgxOTkxNyAuZmxvd2NoYXJ0LWxpbmt7c3Ryb2tlOiM2NjY7ZmlsbDpub25lO30jZ2VNZXJtYWlkT3V0cHV0LTE3MjU5OTI4MTk5MTcgLmVkZ2VMYWJlbHtiYWNrZ3JvdW5kLWNvbG9yOndoaXRlO3RleHQtYWxpZ246Y2VudGVyO30jZ2VNZXJtYWlkT3V0cHV0LTE3MjU5OTI4MTk5MTcgLmVkZ2VMYWJlbCByZWN0e29wYWNpdHk6MC41O2JhY2tncm91bmQtY29sb3I6d2hpdGU7ZmlsbDp3aGl0ZTt9I2dlTWVybWFpZE91dHB1dC0xNzI1OTkyODE5OTE3IC5jbHVzdGVyIHJlY3R7ZmlsbDpoc2woMCwgMCUsIDk4LjkyMTU2ODYyNzUlKTtzdHJva2U6IzcwNzA3MDtzdHJva2Utd2lkdGg6MXB4O30jZ2VNZXJtYWlkT3V0cHV0LTE3MjU5OTI4MTk5MTcgLmNsdXN0ZXIgdGV4dHtmaWxsOiMzMzM7fSNnZU1lcm1haWRPdXRwdXQtMTcyNTk5MjgxOTkxNyAuY2x1c3RlciBzcGFue2NvbG9yOiMzMzM7fSNnZU1lcm1haWRPdXRwdXQtMTcyNTk5MjgxOTkxNyBkaXYubWVybWFpZFRvb2x0aXB7cG9zaXRpb246YWJzb2x1dGU7dGV4dC1hbGlnbjpjZW50ZXI7bWF4LXdpZHRoOjIwMHB4O3BhZGRpbmc6MnB4O2ZvbnQtZmFtaWx5OiJ0cmVidWNoZXQgbXMiLHZlcmRhbmEsYXJpYWwsc2Fucy1zZXJpZjtmb250LXNpemU6MTJweDtiYWNrZ3JvdW5kOmhzbCgtMTYwLCAwJSwgOTMuMzMzMzMzMzMzMyUpO2JvcmRlcjoxcHggc29saWQgIzcwNzA3MDtib3JkZXItcmFkaXVzOjJweDtwb2ludGVyLWV2ZW50czpub25lO3otaW5kZXg6MTAwO30jZ2VNZXJtYWlkT3V0cHV0LTE3MjU5OTI4MTk5MTcgOnJvb3R7LS1tZXJtYWlkLWZvbnQtZmFtaWx5OiJ0cmVidWNoZXQgbXMiLHZlcmRhbmEsYXJpYWwsc2Fucy1zZXJpZjt9I2dlTWVybWFpZE91dHB1dC0xNzI1OTkyODE5OTE3IC5kZXNjcmlwdGlvbiBwYXRoe2ZpbGw6I2Y5ZiFpbXBvcnRhbnQ7c3Ryb2tlOiMzMzMhaW1wb3J0YW50O3N0cm9rZS13aWR0aDoycHghaW1wb3J0YW50O30jZ2VNZXJtYWlkT3V0cHV0LTE3MjU5OTI4MTk5MTcgLmRlc2NyaXB0aW9uIHJlY3R7ZmlsbDojZjlmIWltcG9ydGFudDtzdHJva2U6IzMzMyFpbXBvcnRhbnQ7c3Ryb2tlLXdpZHRoOjJweCFpbXBvcnRhbnQ7fSNnZU1lcm1haWRPdXRwdXQtMTcyNTk5MjgxOTkxNyAuZGVzY3JpcHRpb24gcG9seWdvbntmaWxsOiNmOWYhaW1wb3J0YW50O3N0cm9rZTojMzMzIWltcG9ydGFudDtzdHJva2Utd2lkdGg6MnB4IWltcG9ydGFudDt9I2dlTWVybWFpZE91dHB1dC0xNzI1OTkyODE5OTE3IC5kZXNjcmlwdGlvbiBlbGxpcHNle2ZpbGw6I2Y5ZiFpbXBvcnRhbnQ7c3Ryb2tlOiMzMzMhaW1wb3J0YW50O3N0cm9rZS13aWR0aDoycHghaW1wb3J0YW50O30jZ2VNZXJtYWlkT3V0cHV0LTE3MjU5OTI4MTk5MTcgLmRlc2NyaXB0aW9uIGNpcmNsZXtmaWxsOiNmOWYhaW1wb3J0YW50O3N0cm9rZTojMzMzIWltcG9ydGFudDtzdHJva2Utd2lkdGg6MnB4IWltcG9ydGFudDt9PC9zdHlsZT48ZyB0cmFuc2Zvcm09InRyYW5zbGF0ZSgwLCAwKSI+PG1hcmtlciBvcmllbnQ9ImF1dG8iIG1hcmtlckhlaWdodD0iMTIiIG1hcmtlcldpZHRoPSIxMiIgbWFya2VyVW5pdHM9InVzZXJTcGFjZU9uVXNlIiByZWZZPSI1IiByZWZYPSI5IiB2aWV3Qm94PSIwIDAgMTAgMTAiIGNsYXNzPSJtYXJrZXIgZmxvd2NoYXJ0IiBpZD0iZmxvd2NoYXJ0LXBvaW50RW5kIj48cGF0aCBzdHlsZT0ic3Ryb2tlLXdpZHRoOiAxOyBzdHJva2UtZGFzaGFycmF5OiAxLCAwOyIgY2xhc3M9ImFycm93TWFya2VyUGF0aCIgZD0iTSAwIDAgTCAxMCA1IEwgMCAxMCB6Ij48L3BhdGg+PC9tYXJrZXI+PG1hcmtlciBvcmllbnQ9ImF1dG8iIG1hcmtlckhlaWdodD0iMTIiIG1hcmtlcldpZHRoPSIxMiIgbWFya2VyVW5pdHM9InVzZXJTcGFjZU9uVXNlIiByZWZZPSI1IiByZWZYPSIwIiB2aWV3Qm94PSIwIDAgMTAgMTAiIGNsYXNzPSJtYXJrZXIgZmxvd2NoYXJ0IiBpZD0iZmxvd2NoYXJ0LXBvaW50U3RhcnQiPjxwYXRoIHN0eWxlPSJzdHJva2Utd2lkdGg6IDE7IHN0cm9rZS1kYXNoYXJyYXk6IDEsIDA7IiBjbGFzcz0iYXJyb3dNYXJrZXJQYXRoIiBkPSJNIDAgNSBMIDEwIDEwIEwgMTAgMCB6Ij48L3BhdGg+PC9tYXJrZXI+PG1hcmtlciBvcmllbnQ9ImF1dG8iIG1hcmtlckhlaWdodD0iMTEiIG1hcmtlcldpZHRoPSIxMSIgbWFya2VyVW5pdHM9InVzZXJTcGFjZU9uVXNlIiByZWZZPSI1IiByZWZYPSIxMSIgdmlld0JveD0iMCAwIDEwIDEwIiBjbGFzcz0ibWFya2VyIGZsb3djaGFydCIgaWQ9ImZsb3djaGFydC1jaXJjbGVFbmQiPjxjaXJjbGUgc3R5bGU9InN0cm9rZS13aWR0aDogMTsgc3Ryb2tlLWRhc2hhcnJheTogMSwgMDsiIGNsYXNzPSJhcnJvd01hcmtlclBhdGgiIHI9IjUiIGN5PSI1IiBjeD0iNSI+PC9jaXJjbGU+PC9tYXJrZXI+PG1hcmtlciBvcmllbnQ9ImF1dG8iIG1hcmtlckhlaWdodD0iMTEiIG1hcmtlcldpZHRoPSIxMSIgbWFya2VyVW5pdHM9InVzZXJTcGFjZU9uVXNlIiByZWZZPSI1IiByZWZYPSItMSIgdmlld0JveD0iMCAwIDEwIDEwIiBjbGFzcz0ibWFya2VyIGZsb3djaGFydCIgaWQ9ImZsb3djaGFydC1jaXJjbGVTdGFydCI+PGNpcmNsZSBzdHlsZT0ic3Ryb2tlLXdpZHRoOiAxOyBzdHJva2UtZGFzaGFycmF5OiAxLCAwOyIgY2xhc3M9ImFycm93TWFya2VyUGF0aCIgcj0iNSIgY3k9IjUiIGN4PSI1Ij48L2NpcmNsZT48L21hcmtlcj48bWFya2VyIG9yaWVudD0iYXV0byIgbWFya2VySGVpZ2h0PSIxMSIgbWFya2VyV2lkdGg9IjExIiBtYXJrZXJVbml0cz0idXNlclNwYWNlT25Vc2UiIHJlZlk9IjUuMiIgcmVmWD0iMTIiIHZpZXdCb3g9IjAgMCAxMSAxMSIgY2xhc3M9Im1hcmtlciBjcm9zcyBmbG93Y2hhcnQiIGlkPSJmbG93Y2hhcnQtY3Jvc3NFbmQiPjxwYXRoIHN0eWxlPSJzdHJva2Utd2lkdGg6IDI7IHN0cm9rZS1kYXNoYXJyYXk6IDEsIDA7IiBjbGFzcz0iYXJyb3dNYXJrZXJQYXRoIiBkPSJNIDEsMSBsIDksOSBNIDEwLDEgbCAtOSw5Ij48L3BhdGg+PC9tYXJrZXI+PG1hcmtlciBvcmllbnQ9ImF1dG8iIG1hcmtlckhlaWdodD0iMTEiIG1hcmtlcldpZHRoPSIxMSIgbWFya2VyVW5pdHM9InVzZXJTcGFjZU9uVXNlIiByZWZZPSI1LjIiIHJlZlg9Ii0xIiB2aWV3Qm94PSIwIDAgMTEgMTEiIGNsYXNzPSJtYXJrZXIgY3Jvc3MgZmxvd2NoYXJ0IiBpZD0iZmxvd2NoYXJ0LWNyb3NzU3RhcnQiPjxwYXRoIHN0eWxlPSJzdHJva2Utd2lkdGg6IDI7IHN0cm9rZS1kYXNoYXJyYXk6IDEsIDA7IiBjbGFzcz0iYXJyb3dNYXJrZXJQYXRoIiBkPSJNIDEsMSBsIDksOSBNIDEwLDEgbCAtOSw5Ij48L3BhdGg+PC9tYXJrZXI+PGcgY2xhc3M9InJvb3QiPjxnIGNsYXNzPSJjbHVzdGVycyI+PGcgaWQ9InN1YkdyYXBoNSIgY2xhc3M9ImNsdXN0ZXIgZGVmYXVsdCI+PHJlY3QgaGVpZ2h0PSIxOTMiIHdpZHRoPSI3ODAuNjg3NSIgeT0iNzM3IiB4PSI4IiByeT0iMCIgcng9IjAiIHN0eWxlPSIiPjwvcmVjdD48ZyB0cmFuc2Zvcm09InRyYW5zbGF0ZSgzMzYuMDAzOTA2MjUsIDc0MikiIGNsYXNzPSJjbHVzdGVyLWxhYmVsIj48dGV4dCBzdHlsZT0iIj48dHNwYW4gY2xhc3M9InJvdyIgeD0iMCIgZHk9IjFlbSIgeG1sOnNwYWNlPSJwcmVzZXJ2ZSI+RGVwbG95IHRoZSBNb2RlbDwvdHNwYW4+PC90ZXh0PjwvZz48L2c+PGcgaWQ9InN1YkdyYXBoNCIgY2xhc3M9ImNsdXN0ZXIgZGVmYXVsdCI+PHJlY3QgaGVpZ2h0PSIyMTgiIHdpZHRoPSI3NjcuMDcwMzEyNSIgeT0iNjAzIiB4PSI4MDguNjg3NSIgcnk9IjAiIHJ4PSIwIiBzdHlsZT0iIj48L3JlY3Q+PGcgdHJhbnNmb3JtPSJ0cmFuc2xhdGUoMTEyNS4xOTkyMTg3NSwgNjA4KSIgY2xhc3M9ImNsdXN0ZXItbGFiZWwiPjx0ZXh0IHN0eWxlPSIiPjx0c3BhbiBjbGFzcz0icm93IiB4PSIwIiBkeT0iMWVtIiB4bWw6c3BhY2U9InByZXNlcnZlIj5JbXByb3ZlIHRoZSBNb2RlbDwvdHNwYW4+PC90ZXh0PjwvZz48L2c+PGcgaWQ9InN1YkdyYXBoMyIgY2xhc3M9ImNsdXN0ZXIgZGVmYXVsdCI+PHJlY3QgaGVpZ2h0PSIyMTgiIHdpZHRoPSI4MTAuNjE3MTg3NSIgeT0iNDY5IiB4PSIxNTk1Ljc1NzgxMjUiIHJ5PSIwIiByeD0iMCIgc3R5bGU9IiI+PC9yZWN0PjxnIHRyYW5zZm9ybT0idHJhbnNsYXRlKDE5NDguMTI4OTA2MjUsIDQ3NCkiIGNsYXNzPSJjbHVzdGVyLWxhYmVsIj48dGV4dCBzdHlsZT0iIj48dHNwYW4gY2xhc3M9InJvdyIgeD0iMCIgZHk9IjFlbSIgeG1sOnNwYWNlPSJwcmVzZXJ2ZSI+VGVzdCB0aGUgTW9kZWw8L3RzcGFuPjwvdGV4dD48L2c+PC9nPjxnIGlkPSJzdWJHcmFwaDIiIGNsYXNzPSJjbHVzdGVyIGRlZmF1bHQiPjxyZWN0IGhlaWdodD0iMjE4IiB3aWR0aD0iNzE4LjY0MDYyNSIgeT0iMzM1IiB4PSIyNDI2LjM3NSIgcnk9IjAiIHJ4PSIwIiBzdHlsZT0iIj48L3JlY3Q+PGcgdHJhbnNmb3JtPSJ0cmFuc2xhdGUoMjcyOS40NDkyMTg3NSwgMzQwKSIgY2xhc3M9ImNsdXN0ZXItbGFiZWwiPjx0ZXh0IHN0eWxlPSIiPjx0c3BhbiBjbGFzcz0icm93IiB4PSIwIiBkeT0iMWVtIiB4bWw6c3BhY2U9InByZXNlcnZlIj5UcmFpbiB0aGUgTW9kZWw8L3RzcGFuPjwvdGV4dD48L2c+PC9nPjxnIGlkPSJzdWJHcmFwaDEiIGNsYXNzPSJjbHVzdGVyIGRlZmF1bHQiPjxyZWN0IGhlaWdodD0iMjE4IiB3aWR0aD0iNjMwLjcyNjU2MjUiIHk9IjIwMSIgeD0iMzE2NS4wMTU2MjUiIHJ5PSIwIiByeD0iMCIgc3R5bGU9IiI+PC9yZWN0PjxnIHRyYW5zZm9ybT0idHJhbnNsYXRlKDMzOTguNTU4NTkzNzUsIDIwNikiIGNsYXNzPSJjbHVzdGVyLWxhYmVsIj48dGV4dCBzdHlsZT0iIj48dHNwYW4gY2xhc3M9InJvdyIgeD0iMCIgZHk9IjFlbSIgeG1sOnNwYWNlPSJwcmVzZXJ2ZSI+Q29udmVydCBUZXh0IHRvIFRva2VuczwvdHNwYW4+PC90ZXh0PjwvZz48L2c+PGcgaWQ9InN1YkdyYXBoMCIgY2xhc3M9ImNsdXN0ZXIgZGVmYXVsdCI+PHJlY3QgaGVpZ2h0PSIxOTMiIHdpZHRoPSI4MjguOTcyNjU2MjUiIHk9IjkyIiB4PSIzODE1Ljc0MjE4NzUiIHJ5PSIwIiByeD0iMCIgc3R5bGU9IiI+PC9yZWN0PjxnIHRyYW5zZm9ybT0idHJhbnNsYXRlKDQxNDUuNDEyMTA5Mzc1LCA5NykiIGNsYXNzPSJjbHVzdGVyLWxhYmVsIj48dGV4dCBzdHlsZT0iIj48dHNwYW4gY2xhc3M9InJvdyIgeD0iMCIgZHk9IjFlbSIgeG1sOnNwYWNlPSJwcmVzZXJ2ZSI+Q2xlYW4gYW5kIFByZXBhcmUgRGF0YTwvdHNwYW4+PC90ZXh0PjwvZz48L2c+PC9nPjxnIGNsYXNzPSJlZGdlUGF0aHMiPjxwYXRoIG1hcmtlci1lbmQ9InVybCgjZmxvd2NoYXJ0LXBvaW50RW5kKSIgc3R5bGU9ImZpbGw6bm9uZTsiIGNsYXNzPSJlZGdlLXRoaWNrbmVzcy1ub3JtYWwgZWRnZS1wYXR0ZXJuLXNvbGlkIGZsb3djaGFydC1saW5rIExTLUEgTEUtQiIgaWQ9IkwtQS1CLTAiIGQ9Ik00MDcwLjI3NzM0Mzc1LDQyTDQwNzAuMjc3MzQzNzUsNDYuMTY2NjY2NjY2NjY2NjY0QzQwNzAuMjc3MzQzNzUsNTAuMzMzMzMzMzMzMzMzMzM2LDQwNzAuMjc3MzQzNzUsNTguNjY2NjY2NjY2NjY2NjY0LDQwNzAuMjc3MzQzNzUsNjdDNDA3MC4yNzczNDM3NSw3NS4zMzMzMzMzMzMzMzMzMyw0MDcwLjI3NzM0Mzc1LDgzLjY2NjY2NjY2NjY2NjY3LDQwNzAuMjc3MzQzNzUsOTJDNDA3MC4yNzczNDM3NSwxMDAuMzMzMzMzMzMzMzMzMzMsNDA3MC4yNzczNDM3NSwxMDguNjY2NjY2NjY2NjY2NjcsNDA3MC4yNzczNDM3NSwxMTIuODMzMzMzMzMzMzMzMzNMNDA3MC4yNzczNDM3NSwxMTciPjwvcGF0aD48cGF0aCBtYXJrZXItZW5kPSJ1cmwoI2Zsb3djaGFydC1wb2ludEVuZCkiIHN0eWxlPSJmaWxsOm5vbmU7IiBjbGFzcz0iZWRnZS10aGlja25lc3Mtbm9ybWFsIGVkZ2UtcGF0dGVybi1zb2xpZCBmbG93Y2hhcnQtbGluayBMUy1CIExFLUMiIGlkPSJMLUItQy0wIiBkPSJNMzk5My4wMTc2MjQ2Mjc5NzYsMTUxTDM5NzQuMDgxNDE4OTYwODEzNiwxNTUuMTY2NjY2NjY2NjY2NjZDMzk1NS4xNDUyMTMyOTM2NTA2LDE1OS4zMzMzMzMzMzMzMzMzNCwzOTE3LjI3MjgwMTk1OTMyNTUsMTY3LjY2NjY2NjY2NjY2NjY2LDM4OTguMzM2NTk2MjkyMTYzLDE3NkMzODc5LjQwMDM5MDYyNSwxODQuMzMzMzMzMzMzMzMzMzQsMzg3OS40MDAzOTA2MjUsMTkyLjY2NjY2NjY2NjY2NjY2LDM4MDMuMDM4MDg1OTM3NSwyMDIuNjkxMzI2MjQ4NDk3MjNDMzcyNi42NzU3ODEyNSwyMTIuNzE1OTg1ODMwMzI3OCwzNTczLjk1MTE3MTg3NSwyMjQuNDMxOTcxNjYwNjU1NjUsMzQ5Ny41ODg4NjcxODc1LDIzMC4yODk5NjQ1NzU4MTk1NEwzNDIxLjIyNjU2MjUsMjM2LjE0Nzk1NzQ5MDk4MzQzIj48L3BhdGg+PHBhdGggbWFya2VyLWVuZD0idXJsKCNmbG93Y2hhcnQtcG9pbnRFbmQpIiBzdHlsZT0iZmlsbDpub25lOyIgY2xhc3M9ImVkZ2UtdGhpY2tuZXNzLW5vcm1hbCBlZGdlLXBhdHRlcm4tc29saWQgZmxvd2NoYXJ0LWxpbmsgTFMtQyBMRS1EIiBpZD0iTC1DLUQtMCIgZD0iTTMyOTguMTMwNzY2MzY5MDQ3NywyNjBMMzI4OS44NTI0NjE1NTc1MzkzLDI2NC4xNjY2NjY2NjY2NjY3QzMyODEuNTc0MTU2NzQ2MDMyLDI2OC4zMzMzMzMzMzMzMzMzLDMyNjUuMDE3NTQ3MTIzMDE2LDI3Ni42NjY2NjY2NjY2NjY3LDMyNTYuNzM5MjQyMzExNTA3NSwyODVDMzI0OC40NjA5Mzc1LDI5My4zMzMzMzMzMzMzMzMzLDMyNDguNDYwOTM3NSwzMDEuNjY2NjY2NjY2NjY2NywzMjQ4LjQ2MDkzNzUsMzEwQzMyNDguNDYwOTM3NSwzMTguMzMzMzMzMzMzMzMzMywzMjQ4LjQ2MDkzNzUsMzI2LjY2NjY2NjY2NjY2NjcsMzE2MS45ODYzMjgxMjUsMzM3LjA2NzQwOTEyNTg1NkMzMDc1LjUxMTcxODc1LDM0Ny40NjgxNTE1ODUwNDUzLDI5MDIuNTYyNSwzNTkuOTM2MzAzMTcwMDkwNjQsMjgxNi4wODc4OTA2MjUsMzY2LjE3MDM3ODk2MjYxMzNMMjcyOS42MTMyODEyNSwzNzIuNDA0NDU0NzU1MTM2Ij48L3BhdGg+PHBhdGggbWFya2VyLWVuZD0idXJsKCNmbG93Y2hhcnQtcG9pbnRFbmQpIiBzdHlsZT0iZmlsbDpub25lOyIgY2xhc3M9ImVkZ2UtdGhpY2tuZXNzLW5vcm1hbCBlZGdlLXBhdHRlcm4tc29saWQgZmxvd2NoYXJ0LWxpbmsgTFMtRCBMRS1FIiBpZD0iTC1ELUUtMCIgZD0iTTI2MDIuMTIxMDkzNzUsMzkyLjE4MzY1OTkwNjI5MjZMMjU4My4zNTcwOTYzNTQxNjY1LDM5Ni42NTMwNDk5MjE5MTA1QzI1NjQuNTkzMDk4OTU4MzMzNSw0MDEuMTIyNDM5OTM3NTI4NDQsMjUyNy4wNjUxMDQxNjY2NjY1LDQxMC4wNjEyMTk5Njg3NjQyLDI1MDguMzAxMTA2NzcwODMzNSw0MTguNjk3Mjc2NjUxMDQ4NzVDMjQ4OS41MzcxMDkzNzUsNDI3LjMzMzMzMzMzMzMzMzMsMjQ4OS41MzcxMDkzNzUsNDM1LjY2NjY2NjY2NjY2NjcsMjQ4OS41MzcxMDkzNzUsNDQ0QzI0ODkuNTM3MTA5Mzc1LDQ1Mi4zMzMzMzMzMzMzMzMzLDI0ODkuNTM3MTA5Mzc1LDQ2MC42NjY2NjY2NjY2NjY3LDIzOTguNTc5NzUyNjA0MTY2NSw0NzEuMTM1NDE5NTg2NjE1OEMyMzA3LjYyMjM5NTgzMzMzMzUsNDgxLjYwNDE3MjUwNjU2NDksMjEyNS43MDc2ODIyOTE2NjY1LDQ5NC4yMDgzNDUwMTMxMjk3LDIwMzQuNzUwMzI1NTIwODMzMyw1MDAuNTEwNDMxMjY2NDEyMUwxOTQzLjc5Mjk2ODc1LDUwNi44MTI1MTc1MTk2OTQ1NSI+PC9wYXRoPjxwYXRoIG1hcmtlci1lbmQ9InVybCgjZmxvd2NoYXJ0LXBvaW50RW5kKSIgc3R5bGU9ImZpbGw6bm9uZTsiIGNsYXNzPSJlZGdlLXRoaWNrbmVzcy1ub3JtYWwgZWRnZS1wYXR0ZXJuLXNvbGlkIGZsb3djaGFydC1saW5rIExTLUUgTEUtRiIgaWQ9IkwtRS1GLTAiIGQ9Ik0xODIyLjkxNzk2ODc1LDUyMi43MTIzMzkxMzcwMTc1TDE3OTYuODY5NzkxNjY2NjY2Nyw1MjcuNzYwMjgyNjE0MTgxMkMxNzcwLjgyMTYxNDU4MzMzMzMsNTMyLjgwODIyNjA5MTM0NSwxNzE4LjcyNTI2MDQxNjY2NjcsNTQyLjkwNDExMzA0NTY3MjUsMTY5Mi42NzcwODMzMzMzMzMzLDU1Mi4xMTg3MjMxODk1MDI5QzE2NjYuNjI4OTA2MjUsNTYxLjMzMzMzMzMzMzMzMzQsMTY2Ni42Mjg5MDYyNSw1NjkuNjY2NjY2NjY2NjY2NiwxNjY2LjYyODkwNjI1LDU3OEMxNjY2LjYyODkwNjI1LDU4Ni4zMzMzMzMzMzMzMzM0LDE2NjYuNjI4OTA2MjUsNTk0LjY2NjY2NjY2NjY2NjYsMTU3OC40NjQ1MTgyMjkxNjY3LDYwNC45Njg5NDk1MzY3MjY5QzE0OTAuMzAwMTMwMjA4MzMzMyw2MTUuMjcxMjMyNDA2Nzg3MSwxMzEzLjk3MTM1NDE2NjY2NjcsNjI3LjU0MjQ2NDgxMzU3NDMsMTIyNS44MDY5NjYxNDU4MzMzLDYzMy42NzgwODEwMTY5Njc5TDExMzcuNjQyNTc4MTI1LDYzOS44MTM2OTcyMjAzNjE0Ij48L3BhdGg+PHBhdGggbWFya2VyLWVuZD0idXJsKCNmbG93Y2hhcnQtcG9pbnRFbmQpIiBzdHlsZT0iZmlsbDpub25lOyIgY2xhc3M9ImVkZ2UtdGhpY2tuZXNzLW5vcm1hbCBlZGdlLXBhdHRlcm4tc29saWQgZmxvd2NoYXJ0LWxpbmsgTFMtRiBMRS1HIiBpZD0iTC1GLUctMCIgZD0iTTk4OC41OTU3MDMxMjUsNjYxLjYwMjQ1NTMyMjQ1NTNMOTY5LjU5NTM3NzYwNDE2NjYsNjY1LjgzNTM3OTQzNTM3OTRDOTUwLjU5NTA1MjA4MzMzMzQsNjcwLjA2ODMwMzU0ODMwMzYsOTEyLjU5NDQwMTA0MTY2NjYsNjc4LjUzNDE1MTc3NDE1MTcsODkzLjU5NDA3NTUyMDgzMzQsNjg2LjkzMzc0MjU1Mzc0MjVDODc0LjU5Mzc1LDY5NS4zMzMzMzMzMzMzMzM0LDg3NC41OTM3NSw3MDMuNjY2NjY2NjY2NjY2Niw4NzQuNTkzNzUsNzEyQzg3NC41OTM3NSw3MjAuMzMzMzMzMzMzMzMzNCw4NzQuNTkzNzUsNzI4LjY2NjY2NjY2NjY2NjYsODExLjM0NTcwMzEyNSw3MzguNzQ1MzExMjg2NTI3M0M3NDguMDk3NjU2MjUsNzQ4LjgyMzk1NTkwNjM4OCw2MjEuNjAxNTYyNSw3NjAuNjQ3OTExODEyNzc2LDU1OC4zNTM1MTU2MjUsNzY2LjU1OTg4OTc2NTk3MDFMNDk1LjEwNTQ2ODc1LDc3Mi40NzE4Njc3MTkxNjQiPjwvcGF0aD48cGF0aCBtYXJrZXItZW5kPSJ1cmwoI2Zsb3djaGFydC1wb2ludEVuZCkiIHN0eWxlPSJmaWxsOm5vbmU7IiBjbGFzcz0iZWRnZS10aGlja25lc3Mtbm9ybWFsIGVkZ2UtcGF0dGVybi1zb2xpZCBmbG93Y2hhcnQtbGluayBMUy1CIExFLUIxIiBpZD0iTC1CLUIxLTAiIGQ9Ik00MDE4LjY1NTk3MDk4MjE0MjcsMTUxTDQwMDYuMDAzNjczNzM1MTE5LDE1NS4xNjY2NjY2NjY2NjY2NkMzOTkzLjM1MTM3NjQ4ODA5NTQsMTU5LjMzMzMzMzMzMzMzMzM0LDM5NjguMDQ2NzgxOTk0MDQ3NywxNjcuNjY2NjY2NjY2NjY2NjYsMzk1NS4zOTQ0ODQ3NDcwMjM0LDE3NkMzOTQyLjc0MjE4NzUsMTg0LjMzMzMzMzMzMzMzMzM0LDM5NDIuNzQyMTg3NSwxOTIuNjY2NjY2NjY2NjY2NjYsMzk0Mi43NDIxODc1LDIwMUMzOTQyLjc0MjE4NzUsMjA5LjMzMzMzMzMzMzMzMzM0LDM5NDIuNzQyMTg3NSwyMTcuNjY2NjY2NjY2NjY2NjYsMzk0Mi43NDIxODc1LDIyMS44MzMzMzMzMzMzMzMzNEwzOTQyLjc0MjE4NzUsMjI2Ij48L3BhdGg+PHBhdGggbWFya2VyLWVuZD0idXJsKCNmbG93Y2hhcnQtcG9pbnRFbmQpIiBzdHlsZT0iZmlsbDpub25lOyIgY2xhc3M9ImVkZ2UtdGhpY2tuZXNzLW5vcm1hbCBlZGdlLXBhdHRlcm4tc29saWQgZmxvd2NoYXJ0LWxpbmsgTFMtQiBMRS1CMiIgaWQ9IkwtQi1CMi0wIiBkPSJNNDEyMS44OTg3MTY1MTc4NTcsMTUxTDQxMzQuNTUxMDEzNzY0ODgxLDE1NS4xNjY2NjY2NjY2NjY2NkM0MTQ3LjIwMzMxMTAxMTkwNSwxNTkuMzMzMzMzMzMzMzMzMzQsNDE3Mi41MDc5MDU1MDU5NTIsMTY3LjY2NjY2NjY2NjY2NjY2LDQxODUuMTYwMjAyNzUyOTc2LDE3NkM0MTk3LjgxMjUsMTg0LjMzMzMzMzMzMzMzMzM0LDQxOTcuODEyNSwxOTIuNjY2NjY2NjY2NjY2NjYsNDE5Ny44MTI1LDIwMUM0MTk3LjgxMjUsMjA5LjMzMzMzMzMzMzMzMzM0LDQxOTcuODEyNSwyMTcuNjY2NjY2NjY2NjY2NjYsNDE5Ny44MTI1LDIyMS44MzMzMzMzMzMzMzMzNEw0MTk3LjgxMjUsMjI2Ij48L3BhdGg+PHBhdGggbWFya2VyLWVuZD0idXJsKCNmbG93Y2hhcnQtcG9pbnRFbmQpIiBzdHlsZT0iZmlsbDpub25lOyIgY2xhc3M9ImVkZ2UtdGhpY2tuZXNzLW5vcm1hbCBlZGdlLXBhdHRlcm4tc29saWQgZmxvd2NoYXJ0LWxpbmsgTFMtQiBMRS1CMyIgaWQ9IkwtQi1CMy0wIiBkPSJNNDE2Mi41OTM3NSwxNDMuMzM4ODIxNjY5ODM0MjNMNDIxNi40MDQyOTY4NzUsMTQ4Ljc4MjM1MTM5MTUyODUyQzQyNzAuMjE0ODQzNzUsMTU0LjIyNTg4MTExMzIyMjgsNDM3Ny44MzU5Mzc1LDE2NS4xMTI5NDA1NTY2MTE0Miw0NDMxLjY0NjQ4NDM3NSwxNzQuNzIzMTM2OTQ0OTcyMzdDNDQ4NS40NTcwMzEyNSwxODQuMzMzMzMzMzMzMzMzMzQsNDQ4NS40NTcwMzEyNSwxOTIuNjY2NjY2NjY2NjY2NjYsNDQ4NS40NTcwMzEyNSwyMDFDNDQ4NS40NTcwMzEyNSwyMDkuMzMzMzMzMzMzMzMzMzQsNDQ4NS40NTcwMzEyNSwyMTcuNjY2NjY2NjY2NjY2NjYsNDQ4NS40NTcwMzEyNSwyMjEuODMzMzMzMzMzMzMzMzRMNDQ4NS40NTcwMzEyNSwyMjYiPjwvcGF0aD48cGF0aCBtYXJrZXItZW5kPSJ1cmwoI2Zsb3djaGFydC1wb2ludEVuZCkiIHN0eWxlPSJmaWxsOm5vbmU7IiBjbGFzcz0iZWRnZS10aGlja25lc3Mtbm9ybWFsIGVkZ2UtcGF0dGVybi1zb2xpZCBmbG93Y2hhcnQtbGluayBMUy1DIExFLUMxIiBpZD0iTC1DLUMxLTAiIGQ9Ik0zMzMxLjkwNjI1LDI2MEwzMzMxLjkwNjI1LDI2NC4xNjY2NjY2NjY2NjY3QzMzMzEuOTA2MjUsMjY4LjMzMzMzMzMzMzMzMzMsMzMzMS45MDYyNSwyNzYuNjY2NjY2NjY2NjY2NywzMzMxLjkwNjI1LDI4NUMzMzMxLjkwNjI1LDI5My4zMzMzMzMzMzMzMzMzLDMzMzEuOTA2MjUsMzAxLjY2NjY2NjY2NjY2NjcsMzMzMS45MDYyNSwzMTBDMzMzMS45MDYyNSwzMTguMzMzMzMzMzMzMzMzMywzMzMxLjkwNjI1LDMyNi42NjY2NjY2NjY2NjY3LDMzMzEuOTA2MjUsMzM1QzMzMzEuOTA2MjUsMzQzLjMzMzMzMzMzMzMzMzMsMzMzMS45MDYyNSwzNTEuNjY2NjY2NjY2NjY2NywzMzMxLjkwNjI1LDM1NS44MzMzMzMzMzMzMzMzTDMzMzEuOTA2MjUsMzYwIj48L3BhdGg+PHBhdGggbWFya2VyLWVuZD0idXJsKCNmbG93Y2hhcnQtcG9pbnRFbmQpIiBzdHlsZT0iZmlsbDpub25lOyIgY2xhc3M9ImVkZ2UtdGhpY2tuZXNzLW5vcm1hbCBlZGdlLXBhdHRlcm4tc29saWQgZmxvd2NoYXJ0LWxpbmsgTFMtQyBMRS1DMiIgaWQ9IkwtQy1DMi0wIiBkPSJNMzQyMS4yMjY1NjI1LDI1NS4yODUyMTM1NjQ3ODU4TDM0NTcuMjMzNzIzOTU4MzMzNSwyNjAuMjM3Njc3OTcwNjU0ODNDMzQ5My4yNDA4ODU0MTY2NjY1LDI2NS4xOTAxNDIzNzY1MjM4NSwzNTY1LjI1NTIwODMzMzMzMzUsMjc1LjA5NTA3MTE4ODI2MTk1LDM2MDEuMjYyMzY5NzkxNjY2NSwyODQuMjE0MjAyMjYwNzk3NjZDMzYzNy4yNjk1MzEyNSwyOTMuMzMzMzMzMzMzMzMzMywzNjM3LjI2OTUzMTI1LDMwMS42NjY2NjY2NjY2NjY3LDM2MzcuMjY5NTMxMjUsMzEwQzM2MzcuMjY5NTMxMjUsMzE4LjMzMzMzMzMzMzMzMzMsMzYzNy4yNjk1MzEyNSwzMjYuNjY2NjY2NjY2NjY2NywzNjM3LjI2OTUzMTI1LDMzNUMzNjM3LjI2OTUzMTI1LDM0My4zMzMzMzMzMzMzMzMzLDM2MzcuMjY5NTMxMjUsMzUxLjY2NjY2NjY2NjY2NjcsMzYzNy4yNjk1MzEyNSwzNTUuODMzMzMzMzMzMzMzM0wzNjM3LjI2OTUzMTI1LDM2MCI+PC9wYXRoPjxwYXRoIG1hcmtlci1lbmQ9InVybCgjZmxvd2NoYXJ0LXBvaW50RW5kKSIgc3R5bGU9ImZpbGw6bm9uZTsiIGNsYXNzPSJlZGdlLXRoaWNrbmVzcy1ub3JtYWwgZWRnZS1wYXR0ZXJuLXNvbGlkIGZsb3djaGFydC1saW5rIExTLUQgTEUtRDEiIGlkPSJMLUQtRDEtMCIgZD0iTTI2MjAuMDYxMTA0OTEwNzE0LDM5NEwyNjA4LjgzNDEyMzg4MzkyODQsMzk4LjE2NjY2NjY2NjY2NjdDMjU5Ny42MDcxNDI4NTcxNDI3LDQwMi4zMzMzMzMzMzMzMzMzLDI1NzUuMTUzMTgwODAzNTcxLDQxMC42NjY2NjY2NjY2NjY3LDI1NjMuOTI2MTk5Nzc2Nzg2LDQxOUMyNTUyLjY5OTIxODc1LDQyNy4zMzMzMzMzMzMzMzMzLDI1NTIuNjk5MjE4NzUsNDM1LjY2NjY2NjY2NjY2NjcsMjU1Mi42OTkyMTg3NSw0NDRDMjU1Mi42OTkyMTg3NSw0NTIuMzMzMzMzMzMzMzMzMywyNTUyLjY5OTIxODc1LDQ2MC42NjY2NjY2NjY2NjY3LDI1NTIuNjk5MjE4NzUsNDY5QzI1NTIuNjk5MjE4NzUsNDc3LjMzMzMzMzMzMzMzMzMsMjU1Mi42OTkyMTg3NSw0ODUuNjY2NjY2NjY2NjY2NywyNTUyLjY5OTIxODc1LDQ4OS44MzMzMzMzMzMzMzMzTDI1NTIuNjk5MjE4NzUsNDk0Ij48L3BhdGg+PHBhdGggbWFya2VyLWVuZD0idXJsKCNmbG93Y2hhcnQtcG9pbnRFbmQpIiBzdHlsZT0iZmlsbDpub25lOyIgY2xhc3M9ImVkZ2UtdGhpY2tuZXNzLW5vcm1hbCBlZGdlLXBhdHRlcm4tc29saWQgZmxvd2NoYXJ0LWxpbmsgTFMtRCBMRS1EMiIgaWQ9IkwtRC1EMi0wIiBkPSJNMjcxMS42NzMyNzAwODkyODYsMzk0TDI3MjIuOTAwMjUxMTE2MDcxNiwzOTguMTY2NjY2NjY2NjY2N0MyNzM0LjEyNzIzMjE0Mjg1NzMsNDAyLjMzMzMzMzMzMzMzMzMsMjc1Ni41ODExOTQxOTY0MjksNDEwLjY2NjY2NjY2NjY2NjcsMjc2Ny44MDgxNzUyMjMyMTQsNDE5QzI3NzkuMDM1MTU2MjUsNDI3LjMzMzMzMzMzMzMzMzMsMjc3OS4wMzUxNTYyNSw0MzUuNjY2NjY2NjY2NjY2NywyNzc5LjAzNTE1NjI1LDQ0NEMyNzc5LjAzNTE1NjI1LDQ1Mi4zMzMzMzMzMzMzMzMzLDI3NzkuMDM1MTU2MjUsNDYwLjY2NjY2NjY2NjY2NjcsMjc3OS4wMzUxNTYyNSw0NjlDMjc3OS4wMzUxNTYyNSw0NzcuMzMzMzMzMzMzMzMzMywyNzc5LjAzNTE1NjI1LDQ4NS42NjY2NjY2NjY2NjY3LDI3NzkuMDM1MTU2MjUsNDg5LjgzMzMzMzMzMzMzMzNMMjc3OS4wMzUxNTYyNSw0OTQiPjwvcGF0aD48cGF0aCBtYXJrZXItZW5kPSJ1cmwoI2Zsb3djaGFydC1wb2ludEVuZCkiIHN0eWxlPSJmaWxsOm5vbmU7IiBjbGFzcz0iZWRnZS10aGlja25lc3Mtbm9ybWFsIGVkZ2UtcGF0dGVybi1zb2xpZCBmbG93Y2hhcnQtbGluayBMUy1EIExFLUQzIiBpZD0iTC1ELUQzLTAiIGQ9Ik0yNzI5LjYxMzI4MTI1LDM4NC43MzQyOTc3NzI0NjE1NkwyNzc2LjY4Mjk0MjcwODMzMzUsMzkwLjQ0NTI0ODE0MzcxNzk1QzI4MjMuNzUyNjA0MTY2NjY2NSwzOTYuMTU2MTk4NTE0OTc0NCwyOTE3Ljg5MTkyNzA4MzMzMzUsNDA3LjU3ODA5OTI1NzQ4NzE3LDI5NjQuOTYxNTg4NTQxNjY2NSw0MTcuNDU1NzE2Mjk1NDEwMjRDMzAxMi4wMzEyNSw0MjcuMzMzMzMzMzMzMzMzMywzMDEyLjAzMTI1LDQzNS42NjY2NjY2NjY2NjY3LDMwMTIuMDMxMjUsNDQ0QzMwMTIuMDMxMjUsNDUyLjMzMzMzMzMzMzMzMzMsMzAxMi4wMzEyNSw0NjAuNjY2NjY2NjY2NjY2NywzMDEyLjAzMTI1LDQ2OUMzMDEyLjAzMTI1LDQ3Ny4zMzMzMzMzMzMzMzMzLDMwMTIuMDMxMjUsNDg1LjY2NjY2NjY2NjY2NjcsMzAxMi4wMzEyNSw0ODkuODMzMzMzMzMzMzMzM0wzMDEyLjAzMTI1LDQ5NCI+PC9wYXRoPjxwYXRoIG1hcmtlci1lbmQ9InVybCgjZmxvd2NoYXJ0LXBvaW50RW5kKSIgc3R5bGU9ImZpbGw6bm9uZTsiIGNsYXNzPSJlZGdlLXRoaWNrbmVzcy1ub3JtYWwgZWRnZS1wYXR0ZXJuLXNvbGlkIGZsb3djaGFydC1saW5rIExTLUUgTEUtRTEiIGlkPSJMLUUtRTEtMCIgZD0iTTE4MjQuMzE4NzMxMzk4ODA5Niw1MjhMMTgwOS44NDg5NDI4MzIzNDEyLDUzMi4xNjY2NjY2NjY2NjY2QzE3OTUuMzc5MTU0MjY1ODczLDUzNi4zMzMzMzMzMzMzMzM0LDE3NjYuNDM5NTc3MTMyOTM2NCw1NDQuNjY2NjY2NjY2NjY2NiwxNzUxLjk2OTc4ODU2NjQ2ODIsNTUzQzE3MzcuNSw1NjEuMzMzMzMzMzMzMzMzNCwxNzM3LjUsNTY5LjY2NjY2NjY2NjY2NjYsMTczNy41LDU3OEMxNzM3LjUsNTg2LjMzMzMzMzMzMzMzMzQsMTczNy41LDU5NC42NjY2NjY2NjY2NjY2LDE3MzcuNSw2MDNDMTczNy41LDYxMS4zMzMzMzMzMzMzMzM0LDE3MzcuNSw2MTkuNjY2NjY2NjY2NjY2NiwxNzM3LjUsNjIzLjgzMzMzMzMzMzMzMzRMMTczNy41LDYyOCI+PC9wYXRoPjxwYXRoIG1hcmtlci1lbmQ9InVybCgjZmxvd2NoYXJ0LXBvaW50RW5kKSIgc3R5bGU9ImZpbGw6bm9uZTsiIGNsYXNzPSJlZGdlLXRoaWNrbmVzcy1ub3JtYWwgZWRnZS1wYXR0ZXJuLXNvbGlkIGZsb3djaGFydC1saW5rIExTLUUgTEUtRTIiIGlkPSJMLUUtRTItMCIgZD0iTTE5NDIuMzkyMjA2MTAxMTkwNCw1MjhMMTk1Ni44NjE5OTQ2Njc2NTg4LDUzMi4xNjY2NjY2NjY2NjY2QzE5NzEuMzMxNzgzMjM0MTI3LDUzNi4zMzMzMzMzMzMzMzM0LDIwMDAuMjcxMzYwMzY3MDYzNiw1NDQuNjY2NjY2NjY2NjY2NiwyMDE0Ljc0MTE0ODkzMzUzMTgsNTUzQzIwMjkuMjEwOTM3NSw1NjEuMzMzMzMzMzMzMzMzNCwyMDI5LjIxMDkzNzUsNTY5LjY2NjY2NjY2NjY2NjYsMjAyOS4yMTA5Mzc1LDU3OEMyMDI5LjIxMDkzNzUsNTg2LjMzMzMzMzMzMzMzMzQsMjAyOS4yMTA5Mzc1LDU5NC42NjY2NjY2NjY2NjY2LDIwMjkuMjEwOTM3NSw2MDNDMjAyOS4yMTA5Mzc1LDYxMS4zMzMzMzMzMzMzMzM0LDIwMjkuMjEwOTM3NSw2MTkuNjY2NjY2NjY2NjY2NiwyMDI5LjIxMDkzNzUsNjIzLjgzMzMzMzMzMzMzMzRMMjAyOS4yMTA5Mzc1LDYyOCI+PC9wYXRoPjxwYXRoIG1hcmtlci1lbmQ9InVybCgjZmxvd2NoYXJ0LXBvaW50RW5kKSIgc3R5bGU9ImZpbGw6bm9uZTsiIGNsYXNzPSJlZGdlLXRoaWNrbmVzcy1ub3JtYWwgZWRnZS1wYXR0ZXJuLXNvbGlkIGZsb3djaGFydC1saW5rIExTLUUgTEUtRTMiIGlkPSJMLUUtRTMtMCIgZD0iTTE5NDMuNzkyOTY4NzUsNTE3LjE5OTkwMDc3NDcyMDVMMjAwMS45NTcwMzEyNSw1MjMuMTY2NTgzOTc4OTMzOEMyMDYwLjEyMTA5Mzc1LDUyOS4xMzMyNjcxODMxNDcsMjE3Ni40NDkyMTg3NSw1NDEuMDY2NjMzNTkxNTczNSwyMjM0LjYxMzI4MTI1LDU1MS4xOTk5ODM0NjI0NTM0QzIyOTIuNzc3MzQzNzUsNTYxLjMzMzMzMzMzMzMzMzQsMjI5Mi43NzczNDM3NSw1NjkuNjY2NjY2NjY2NjY2NiwyMjkyLjc3NzM0Mzc1LDU3OEMyMjkyLjc3NzM0Mzc1LDU4Ni4zMzMzMzMzMzMzMzM0LDIyOTIuNzc3MzQzNzUsNTk0LjY2NjY2NjY2NjY2NjYsMjI5Mi43NzczNDM3NSw2MDNDMjI5Mi43NzczNDM3NSw2MTEuMzMzMzMzMzMzMzMzNCwyMjkyLjc3NzM0Mzc1LDYxOS42NjY2NjY2NjY2NjY2LDIyOTIuNzc3MzQzNzUsNjIzLjgzMzMzMzMzMzMzMzRMMjI5Mi43NzczNDM3NSw2MjgiPjwvcGF0aD48cGF0aCBtYXJrZXItZW5kPSJ1cmwoI2Zsb3djaGFydC1wb2ludEVuZCkiIHN0eWxlPSJmaWxsOm5vbmU7IiBjbGFzcz0iZWRnZS10aGlja25lc3Mtbm9ybWFsIGVkZ2UtcGF0dGVybi1zb2xpZCBmbG93Y2hhcnQtbGluayBMUy1GIExFLUYxIiBpZD0iTC1GLUYxLTAiIGQ9Ik0xMDEzLjQ4NzU4MzcwNTM1NzEsNjYyTDEwMDEuMzIyOTg2NDIxMTMwOCw2NjYuMTY2NjY2NjY2NjY2NkM5ODkuMTU4Mzg5MTM2OTA0Nyw2NzAuMzMzMzMzMzMzMzMzNCw5NjQuODI5MTk0NTY4NDUyMyw2NzguNjY2NjY2NjY2NjY2Niw5NTIuNjY0NTk3Mjg0MjI2MSw2ODdDOTQwLjUsNjk1LjMzMzMzMzMzMzMzMzQsOTQwLjUsNzAzLjY2NjY2NjY2NjY2NjYsOTQwLjUsNzEyQzk0MC41LDcyMC4zMzMzMzMzMzMzMzM0LDk0MC41LDcyOC42NjY2NjY2NjY2NjY2LDk0MC41LDczN0M5NDAuNSw3NDUuMzMzMzMzMzMzMzMzNCw5NDAuNSw3NTMuNjY2NjY2NjY2NjY2Niw5NDAuNSw3NTcuODMzMzMzMzMzMzMzNEw5NDAuNSw3NjIiPjwvcGF0aD48cGF0aCBtYXJrZXItZW5kPSJ1cmwoI2Zsb3djaGFydC1wb2ludEVuZCkiIHN0eWxlPSJmaWxsOm5vbmU7IiBjbGFzcz0iZWRnZS10aGlja25lc3Mtbm9ybWFsIGVkZ2UtcGF0dGVybi1zb2xpZCBmbG93Y2hhcnQtbGluayBMUy1GIExFLUYyIiBpZD0iTC1GLUYyLTAiIGQ9Ik0xMTEyLjc1MDY5NzU0NDY0Myw2NjJMMTEyNC45MTUyOTQ4Mjg4NjksNjY2LjE2NjY2NjY2NjY2NjZDMTEzNy4wNzk4OTIxMTMwOTUyLDY3MC4zMzMzMzMzMzMzMzM0LDExNjEuNDA5MDg2NjgxNTQ3Nyw2NzguNjY2NjY2NjY2NjY2NiwxMTczLjU3MzY4Mzk2NTc3MzksNjg3QzExODUuNzM4MjgxMjUsNjk1LjMzMzMzMzMzMzMzMzQsMTE4NS43MzgyODEyNSw3MDMuNjY2NjY2NjY2NjY2NiwxMTg1LjczODI4MTI1LDcxMkMxMTg1LjczODI4MTI1LDcyMC4zMzMzMzMzMzMzMzM0LDExODUuNzM4MjgxMjUsNzI4LjY2NjY2NjY2NjY2NjYsMTE4NS43MzgyODEyNSw3MzdDMTE4NS43MzgyODEyNSw3NDUuMzMzMzMzMzMzMzMzNCwxMTg1LjczODI4MTI1LDc1My42NjY2NjY2NjY2NjY2LDExODUuNzM4MjgxMjUsNzU3LjgzMzMzMzMzMzMzMzRMMTE4NS43MzgyODEyNSw3NjIiPjwvcGF0aD48cGF0aCBtYXJrZXItZW5kPSJ1cmwoI2Zsb3djaGFydC1wb2ludEVuZCkiIHN0eWxlPSJmaWxsOm5vbmU7IiBjbGFzcz0iZWRnZS10aGlja25lc3Mtbm9ybWFsIGVkZ2UtcGF0dGVybi1zb2xpZCBmbG93Y2hhcnQtbGluayBMUy1GIExFLUYzIiBpZD0iTC1GLUYzLTAiIGQ9Ik0xMTM3LjY0MjU3ODEyNSw2NTMuMzYxMzAwODI0ODg1M0wxMTg3LjYxMjMwNDY4NzUsNjU4Ljk2Nzc1MDY4NzQwNDRDMTIzNy41ODIwMzEyNSw2NjQuNTc0MjAwNTQ5OTIzNiwxMzM3LjUyMTQ4NDM3NSw2NzUuNzg3MTAwMjc0OTYxNywxMzg3LjQ5MTIxMDkzNzUsNjg1LjU2MDIxNjgwNDE0NzRDMTQzNy40NjA5Mzc1LDY5NS4zMzMzMzMzMzMzMzM0LDE0MzcuNDYwOTM3NSw3MDMuNjY2NjY2NjY2NjY2NiwxNDM3LjQ2MDkzNzUsNzEyQzE0MzcuNDYwOTM3NSw3MjAuMzMzMzMzMzMzMzMzNCwxNDM3LjQ2MDkzNzUsNzI4LjY2NjY2NjY2NjY2NjYsMTQzNy40NjA5Mzc1LDczN0MxNDM3LjQ2MDkzNzUsNzQ1LjMzMzMzMzMzMzMzMzQsMTQzNy40NjA5Mzc1LDc1My42NjY2NjY2NjY2NjY2LDE0MzcuNDYwOTM3NSw3NTcuODMzMzMzMzMzMzMzNEwxNDM3LjQ2MDkzNzUsNzYyIj48L3BhdGg+PHBhdGggbWFya2VyLWVuZD0idXJsKCNmbG93Y2hhcnQtcG9pbnRFbmQpIiBzdHlsZT0iZmlsbDpub25lOyIgY2xhc3M9ImVkZ2UtdGhpY2tuZXNzLW5vcm1hbCBlZGdlLXBhdHRlcm4tc29saWQgZmxvd2NoYXJ0LWxpbmsgTFMtRyBMRS1HMSIgaWQ9IkwtRy1HMS0wIiBkPSJNMzU1LjQyNTc4MTI1LDc4OS4zNzk5Njc2NTQwOTIzTDMxOS45Njc0NDc5MTY2NjY3LDc5NC42NDk5NzMwNDUwNzY5QzI4NC41MDkxMTQ1ODMzMzMzLDc5OS45MTk5Nzg0MzYwNjE2LDIxMy41OTI0NDc5MTY2NjY2Niw4MTAuNDU5OTg5MjE4MDMwNywxNzguMTM0MTE0NTgzMzMzMzQsODE5Ljg5NjY2MTI3NTY4MkMxNDIuNjc1NzgxMjUsODI5LjMzMzMzMzMzMzMzMzQsMTQyLjY3NTc4MTI1LDgzNy42NjY2NjY2NjY2NjY2LDE0Mi42NzU3ODEyNSw4NDZDMTQyLjY3NTc4MTI1LDg1NC4zMzMzMzMzMzMzMzM0LDE0Mi42NzU3ODEyNSw4NjIuNjY2NjY2NjY2NjY2NiwxNDIuNjc1NzgxMjUsODY2LjgzMzMzMzMzMzMzMzRMMTQyLjY3NTc4MTI1LDg3MSI+PC9wYXRoPjxwYXRoIG1hcmtlci1lbmQ9InVybCgjZmxvd2NoYXJ0LXBvaW50RW5kKSIgc3R5bGU9ImZpbGw6bm9uZTsiIGNsYXNzPSJlZGdlLXRoaWNrbmVzcy1ub3JtYWwgZWRnZS1wYXR0ZXJuLXNvbGlkIGZsb3djaGFydC1saW5rIExTLUcgTEUtRzIiIGlkPSJMLUctRzItMCIgZD0iTTQyNS4yNjU2MjUsNzk2TDQyNS4yNjU2MjUsODAwLjE2NjY2NjY2NjY2NjZDNDI1LjI2NTYyNSw4MDQuMzMzMzMzMzMzMzMzNCw0MjUuMjY1NjI1LDgxMi42NjY2NjY2NjY2NjY2LDQyNS4yNjU2MjUsODIxQzQyNS4yNjU2MjUsODI5LjMzMzMzMzMzMzMzMzQsNDI1LjI2NTYyNSw4MzcuNjY2NjY2NjY2NjY2Niw0MjUuMjY1NjI1LDg0NkM0MjUuMjY1NjI1LDg1NC4zMzMzMzMzMzMzMzM0LDQyNS4yNjU2MjUsODYyLjY2NjY2NjY2NjY2NjYsNDI1LjI2NTYyNSw4NjYuODMzMzMzMzMzMzMzNEw0MjUuMjY1NjI1LDg3MSI+PC9wYXRoPjxwYXRoIG1hcmtlci1lbmQ9InVybCgjZmxvd2NoYXJ0LXBvaW50RW5kKSIgc3R5bGU9ImZpbGw6bm9uZTsiIGNsYXNzPSJlZGdlLXRoaWNrbmVzcy1ub3JtYWwgZWRnZS1wYXR0ZXJuLXNvbGlkIGZsb3djaGFydC1saW5rIExTLUcgTEUtRzMiIGlkPSJMLUctRzMtMCIgZD0iTTQ5NS4xMDU0Njg3NSw3OTAuNDcyOTc5Nzg2NDA1MUw1MjYuMDc2ODIyOTE2NjY2Niw3OTUuNTYwODE2NDg4NjcwOUM1NTcuMDQ4MTc3MDgzMzMzNCw4MDAuNjQ4NjUzMTkwOTM2OCw2MTguOTkwODg1NDE2NjY2Niw4MTAuODI0MzI2NTk1NDY4NCw2NDkuOTYyMjM5NTgzMzMzNCw4MjAuMDc4ODI5OTY0NDAwOUM2ODAuOTMzNTkzNzUsODI5LjMzMzMzMzMzMzMzMzQsNjgwLjkzMzU5Mzc1LDgzNy42NjY2NjY2NjY2NjY2LDY4MC45MzM1OTM3NSw4NDZDNjgwLjkzMzU5Mzc1LDg1NC4zMzMzMzMzMzMzMzM0LDY4MC45MzM1OTM3NSw4NjIuNjY2NjY2NjY2NjY2Niw2ODAuOTMzNTkzNzUsODY2LjgzMzMzMzMzMzMzMzRMNjgwLjkzMzU5Mzc1LDg3MSI+PC9wYXRoPjwvZz48ZyBjbGFzcz0iZWRnZUxhYmVscyI+PGcgY2xhc3M9ImVkZ2VMYWJlbCI+PGcgdHJhbnNmb3JtPSJ0cmFuc2xhdGUoMCwgMCkiIGNsYXNzPSJsYWJlbCI+PHJlY3QgaGVpZ2h0PSIwIiB3aWR0aD0iMCIgcnk9IjAiIHJ4PSIwIj48L3JlY3Q+PHRleHQgc3R5bGU9IiI+PHRzcGFuIGNsYXNzPSJyb3ciIHg9IjAiIGR5PSIxZW0iIHhtbDpzcGFjZT0icHJlc2VydmUiPjwvdHNwYW4+PC90ZXh0PjwvZz48L2c+PGcgY2xhc3M9ImVkZ2VMYWJlbCI+PGcgdHJhbnNmb3JtPSJ0cmFuc2xhdGUoMCwgMCkiIGNsYXNzPSJsYWJlbCI+PHJlY3QgaGVpZ2h0PSIwIiB3aWR0aD0iMCIgcnk9IjAiIHJ4PSIwIj48L3JlY3Q+PHRleHQgc3R5bGU9IiI+PHRzcGFuIGNsYXNzPSJyb3ciIHg9IjAiIGR5PSIxZW0iIHhtbDpzcGFjZT0icHJlc2VydmUiPjwvdHNwYW4+PC90ZXh0PjwvZz48L2c+PGcgY2xhc3M9ImVkZ2VMYWJlbCI+PGcgdHJhbnNmb3JtPSJ0cmFuc2xhdGUoMCwgMCkiIGNsYXNzPSJsYWJlbCI+PHJlY3QgaGVpZ2h0PSIwIiB3aWR0aD0iMCIgcnk9IjAiIHJ4PSIwIj48L3JlY3Q+PHRleHQgc3R5bGU9IiI+PHRzcGFuIGNsYXNzPSJyb3ciIHg9IjAiIGR5PSIxZW0iIHhtbDpzcGFjZT0icHJlc2VydmUiPjwvdHNwYW4+PC90ZXh0PjwvZz48L2c+PGcgY2xhc3M9ImVkZ2VMYWJlbCI+PGcgdHJhbnNmb3JtPSJ0cmFuc2xhdGUoMCwgMCkiIGNsYXNzPSJsYWJlbCI+PHJlY3QgaGVpZ2h0PSIwIiB3aWR0aD0iMCIgcnk9IjAiIHJ4PSIwIj48L3JlY3Q+PHRleHQgc3R5bGU9IiI+PHRzcGFuIGNsYXNzPSJyb3ciIHg9IjAiIGR5PSIxZW0iIHhtbDpzcGFjZT0icHJlc2VydmUiPjwvdHNwYW4+PC90ZXh0PjwvZz48L2c+PGcgY2xhc3M9ImVkZ2VMYWJlbCI+PGcgdHJhbnNmb3JtPSJ0cmFuc2xhdGUoMCwgMCkiIGNsYXNzPSJsYWJlbCI+PHJlY3QgaGVpZ2h0PSIwIiB3aWR0aD0iMCIgcnk9IjAiIHJ4PSIwIj48L3JlY3Q+PHRleHQgc3R5bGU9IiI+PHRzcGFuIGNsYXNzPSJyb3ciIHg9IjAiIGR5PSIxZW0iIHhtbDpzcGFjZT0icHJlc2VydmUiPjwvdHNwYW4+PC90ZXh0PjwvZz48L2c+PGcgY2xhc3M9ImVkZ2VMYWJlbCI+PGcgdHJhbnNmb3JtPSJ0cmFuc2xhdGUoMCwgMCkiIGNsYXNzPSJsYWJlbCI+PHJlY3QgaGVpZ2h0PSIwIiB3aWR0aD0iMCIgcnk9IjAiIHJ4PSIwIj48L3JlY3Q+PHRleHQgc3R5bGU9IiI+PHRzcGFuIGNsYXNzPSJyb3ciIHg9IjAiIGR5PSIxZW0iIHhtbDpzcGFjZT0icHJlc2VydmUiPjwvdHNwYW4+PC90ZXh0PjwvZz48L2c+PGcgY2xhc3M9ImVkZ2VMYWJlbCI+PGcgdHJhbnNmb3JtPSJ0cmFuc2xhdGUoMCwgMCkiIGNsYXNzPSJsYWJlbCI+PHJlY3QgaGVpZ2h0PSIwIiB3aWR0aD0iMCIgcnk9IjAiIHJ4PSIwIj48L3JlY3Q+PHRleHQgc3R5bGU9IiI+PHRzcGFuIGNsYXNzPSJyb3ciIHg9IjAiIGR5PSIxZW0iIHhtbDpzcGFjZT0icHJlc2VydmUiPjwvdHNwYW4+PC90ZXh0PjwvZz48L2c+PGcgY2xhc3M9ImVkZ2VMYWJlbCI+PGcgdHJhbnNmb3JtPSJ0cmFuc2xhdGUoMCwgMCkiIGNsYXNzPSJsYWJlbCI+PHJlY3QgaGVpZ2h0PSIwIiB3aWR0aD0iMCIgcnk9IjAiIHJ4PSIwIj48L3JlY3Q+PHRleHQgc3R5bGU9IiI+PHRzcGFuIGNsYXNzPSJyb3ciIHg9IjAiIGR5PSIxZW0iIHhtbDpzcGFjZT0icHJlc2VydmUiPjwvdHNwYW4+PC90ZXh0PjwvZz48L2c+PGcgY2xhc3M9ImVkZ2VMYWJlbCI+PGcgdHJhbnNmb3JtPSJ0cmFuc2xhdGUoMCwgMCkiIGNsYXNzPSJsYWJlbCI+PHJlY3QgaGVpZ2h0PSIwIiB3aWR0aD0iMCIgcnk9IjAiIHJ4PSIwIj48L3JlY3Q+PHRleHQgc3R5bGU9IiI+PHRzcGFuIGNsYXNzPSJyb3ciIHg9IjAiIGR5PSIxZW0iIHhtbDpzcGFjZT0icHJlc2VydmUiPjwvdHNwYW4+PC90ZXh0PjwvZz48L2c+PGcgY2xhc3M9ImVkZ2VMYWJlbCI+PGcgdHJhbnNmb3JtPSJ0cmFuc2xhdGUoMCwgMCkiIGNsYXNzPSJsYWJlbCI+PHJlY3QgaGVpZ2h0PSIwIiB3aWR0aD0iMCIgcnk9IjAiIHJ4PSIwIj48L3JlY3Q+PHRleHQgc3R5bGU9IiI+PHRzcGFuIGNsYXNzPSJyb3ciIHg9IjAiIGR5PSIxZW0iIHhtbDpzcGFjZT0icHJlc2VydmUiPjwvdHNwYW4+PC90ZXh0PjwvZz48L2c+PGcgY2xhc3M9ImVkZ2VMYWJlbCI+PGcgdHJhbnNmb3JtPSJ0cmFuc2xhdGUoMCwgMCkiIGNsYXNzPSJsYWJlbCI+PHJlY3QgaGVpZ2h0PSIwIiB3aWR0aD0iMCIgcnk9IjAiIHJ4PSIwIj48L3JlY3Q+PHRleHQgc3R5bGU9IiI+PHRzcGFuIGNsYXNzPSJyb3ciIHg9IjAiIGR5PSIxZW0iIHhtbDpzcGFjZT0icHJlc2VydmUiPjwvdHNwYW4+PC90ZXh0PjwvZz48L2c+PGcgY2xhc3M9ImVkZ2VMYWJlbCI+PGcgdHJhbnNmb3JtPSJ0cmFuc2xhdGUoMCwgMCkiIGNsYXNzPSJsYWJlbCI+PHJlY3QgaGVpZ2h0PSIwIiB3aWR0aD0iMCIgcnk9IjAiIHJ4PSIwIj48L3JlY3Q+PHRleHQgc3R5bGU9IiI+PHRzcGFuIGNsYXNzPSJyb3ciIHg9IjAiIGR5PSIxZW0iIHhtbDpzcGFjZT0icHJlc2VydmUiPjwvdHNwYW4+PC90ZXh0PjwvZz48L2c+PGcgY2xhc3M9ImVkZ2VMYWJlbCI+PGcgdHJhbnNmb3JtPSJ0cmFuc2xhdGUoMCwgMCkiIGNsYXNzPSJsYWJlbCI+PHJlY3QgaGVpZ2h0PSIwIiB3aWR0aD0iMCIgcnk9IjAiIHJ4PSIwIj48L3JlY3Q+PHRleHQgc3R5bGU9IiI+PHRzcGFuIGNsYXNzPSJyb3ciIHg9IjAiIGR5PSIxZW0iIHhtbDpzcGFjZT0icHJlc2VydmUiPjwvdHNwYW4+PC90ZXh0PjwvZz48L2c+PGcgY2xhc3M9ImVkZ2VMYWJlbCI+PGcgdHJhbnNmb3JtPSJ0cmFuc2xhdGUoMCwgMCkiIGNsYXNzPSJsYWJlbCI+PHJlY3QgaGVpZ2h0PSIwIiB3aWR0aD0iMCIgcnk9IjAiIHJ4PSIwIj48L3JlY3Q+PHRleHQgc3R5bGU9IiI+PHRzcGFuIGNsYXNzPSJyb3ciIHg9IjAiIGR5PSIxZW0iIHhtbDpzcGFjZT0icHJlc2VydmUiPjwvdHNwYW4+PC90ZXh0PjwvZz48L2c+PGcgY2xhc3M9ImVkZ2VMYWJlbCI+PGcgdHJhbnNmb3JtPSJ0cmFuc2xhdGUoMCwgMCkiIGNsYXNzPSJsYWJlbCI+PHJlY3QgaGVpZ2h0PSIwIiB3aWR0aD0iMCIgcnk9IjAiIHJ4PSIwIj48L3JlY3Q+PHRleHQgc3R5bGU9IiI+PHRzcGFuIGNsYXNzPSJyb3ciIHg9IjAiIGR5PSIxZW0iIHhtbDpzcGFjZT0icHJlc2VydmUiPjwvdHNwYW4+PC90ZXh0PjwvZz48L2c+PGcgY2xhc3M9ImVkZ2VMYWJlbCI+PGcgdHJhbnNmb3JtPSJ0cmFuc2xhdGUoMCwgMCkiIGNsYXNzPSJsYWJlbCI+PHJlY3QgaGVpZ2h0PSIwIiB3aWR0aD0iMCIgcnk9IjAiIHJ4PSIwIj48L3JlY3Q+PHRleHQgc3R5bGU9IiI+PHRzcGFuIGNsYXNzPSJyb3ciIHg9IjAiIGR5PSIxZW0iIHhtbDpzcGFjZT0icHJlc2VydmUiPjwvdHNwYW4+PC90ZXh0PjwvZz48L2c+PGcgY2xhc3M9ImVkZ2VMYWJlbCI+PGcgdHJhbnNmb3JtPSJ0cmFuc2xhdGUoMCwgMCkiIGNsYXNzPSJsYWJlbCI+PHJlY3QgaGVpZ2h0PSIwIiB3aWR0aD0iMCIgcnk9IjAiIHJ4PSIwIj48L3JlY3Q+PHRleHQgc3R5bGU9IiI+PHRzcGFuIGNsYXNzPSJyb3ciIHg9IjAiIGR5PSIxZW0iIHhtbDpzcGFjZT0icHJlc2VydmUiPjwvdHNwYW4+PC90ZXh0PjwvZz48L2c+PGcgY2xhc3M9ImVkZ2VMYWJlbCI+PGcgdHJhbnNmb3JtPSJ0cmFuc2xhdGUoMCwgMCkiIGNsYXNzPSJsYWJlbCI+PHJlY3QgaGVpZ2h0PSIwIiB3aWR0aD0iMCIgcnk9IjAiIHJ4PSIwIj48L3JlY3Q+PHRleHQgc3R5bGU9IiI+PHRzcGFuIGNsYXNzPSJyb3ciIHg9IjAiIGR5PSIxZW0iIHhtbDpzcGFjZT0icHJlc2VydmUiPjwvdHNwYW4+PC90ZXh0PjwvZz48L2c+PGcgY2xhc3M9ImVkZ2VMYWJlbCI+PGcgdHJhbnNmb3JtPSJ0cmFuc2xhdGUoMCwgMCkiIGNsYXNzPSJsYWJlbCI+PHJlY3QgaGVpZ2h0PSIwIiB3aWR0aD0iMCIgcnk9IjAiIHJ4PSIwIj48L3JlY3Q+PHRleHQgc3R5bGU9IiI+PHRzcGFuIGNsYXNzPSJyb3ciIHg9IjAiIGR5PSIxZW0iIHhtbDpzcGFjZT0icHJlc2VydmUiPjwvdHNwYW4+PC90ZXh0PjwvZz48L2c+PGcgY2xhc3M9ImVkZ2VMYWJlbCI+PGcgdHJhbnNmb3JtPSJ0cmFuc2xhdGUoMCwgMCkiIGNsYXNzPSJsYWJlbCI+PHJlY3QgaGVpZ2h0PSIwIiB3aWR0aD0iMCIgcnk9IjAiIHJ4PSIwIj48L3JlY3Q+PHRleHQgc3R5bGU9IiI+PHRzcGFuIGNsYXNzPSJyb3ciIHg9IjAiIGR5PSIxZW0iIHhtbDpzcGFjZT0icHJlc2VydmUiPjwvdHNwYW4+PC90ZXh0PjwvZz48L2c+PGcgY2xhc3M9ImVkZ2VMYWJlbCI+PGcgdHJhbnNmb3JtPSJ0cmFuc2xhdGUoMCwgMCkiIGNsYXNzPSJsYWJlbCI+PHJlY3QgaGVpZ2h0PSIwIiB3aWR0aD0iMCIgcnk9IjAiIHJ4PSIwIj48L3JlY3Q+PHRleHQgc3R5bGU9IiI+PHRzcGFuIGNsYXNzPSJyb3ciIHg9IjAiIGR5PSIxZW0iIHhtbDpzcGFjZT0icHJlc2VydmUiPjwvdHNwYW4+PC90ZXh0PjwvZz48L2c+PGcgY2xhc3M9ImVkZ2VMYWJlbCI+PGcgdHJhbnNmb3JtPSJ0cmFuc2xhdGUoMCwgMCkiIGNsYXNzPSJsYWJlbCI+PHJlY3QgaGVpZ2h0PSIwIiB3aWR0aD0iMCIgcnk9IjAiIHJ4PSIwIj48L3JlY3Q+PHRleHQgc3R5bGU9IiI+PHRzcGFuIGNsYXNzPSJyb3ciIHg9IjAiIGR5PSIxZW0iIHhtbDpzcGFjZT0icHJlc2VydmUiPjwvdHNwYW4+PC90ZXh0PjwvZz48L2c+PGcgY2xhc3M9ImVkZ2VMYWJlbCI+PGcgdHJhbnNmb3JtPSJ0cmFuc2xhdGUoMCwgMCkiIGNsYXNzPSJsYWJlbCI+PHJlY3QgaGVpZ2h0PSIwIiB3aWR0aD0iMCIgcnk9IjAiIHJ4PSIwIj48L3JlY3Q+PHRleHQgc3R5bGU9IiI+PHRzcGFuIGNsYXNzPSJyb3ciIHg9IjAiIGR5PSIxZW0iIHhtbDpzcGFjZT0icHJlc2VydmUiPjwvdHNwYW4+PC90ZXh0PjwvZz48L2c+PC9nPjxnIGNsYXNzPSJub2RlcyI+PGcgdHJhbnNmb3JtPSJ0cmFuc2xhdGUoMTQyLjY3NTc4MTI1LCA4ODgpIiBpZD0iZmxvd2NoYXJ0LUcxLTk2NyIgY2xhc3M9Im5vZGUgZGVmYXVsdCBkZWZhdWx0Ij48cmVjdCBoZWlnaHQ9IjM0IiB3aWR0aD0iMTk5LjM1MTU2MjUiIHk9Ii0xNyIgeD0iLTk5LjY3NTc4MTI1IiByeT0iMCIgcng9IjAiIHN0eWxlPSIiIGNsYXNzPSJiYXNpYyBsYWJlbC1jb250YWluZXIiPjwvcmVjdD48ZyB0cmFuc2Zvcm09InRyYW5zbGF0ZSgtOTIuMTc1NzgxMjUsIC05LjUpIiBzdHlsZT0iIiBjbGFzcz0ibGFiZWwiPjx0ZXh0IHN0eWxlPSIiPjx0c3BhbiBjbGFzcz0icm93IiB4PSIwIiBkeT0iMWVtIiB4bWw6c3BhY2U9InByZXNlcnZlIj5JbnRlZ3JhdGUgaW50byBBcHBsaWNhdGlvbjwvdHNwYW4+PC90ZXh0PjwvZz48L2c+PGcgdHJhbnNmb3JtPSJ0cmFuc2xhdGUoNDI1LjI2NTYyNSwgODg4KSIgaWQ9ImZsb3djaGFydC1HMi05NjgiIGNsYXNzPSJub2RlIGRlZmF1bHQgZGVmYXVsdCI+PHJlY3QgaGVpZ2h0PSIzNCIgd2lkdGg9IjI2NS44MjgxMjUiIHk9Ii0xNyIgeD0iLTEzMi45MTQwNjI1IiByeT0iMCIgcng9IjAiIHN0eWxlPSIiIGNsYXNzPSJiYXNpYyBsYWJlbC1jb250YWluZXIiPjwvcmVjdD48ZyB0cmFuc2Zvcm09InRyYW5zbGF0ZSgtMTI1LjQxNDA2MjUsIC05LjUpIiBzdHlsZT0iIiBjbGFzcz0ibGFiZWwiPjx0ZXh0IHN0eWxlPSIiPjx0c3BhbiBjbGFzcz0icm93IiB4PSIwIiBkeT0iMWVtIiB4bWw6c3BhY2U9InByZXNlcnZlIj5Nb25pdG9yIFBlcmZvcm1hbmNlIGluIFJlYWwgV29ybGQ8L3RzcGFuPjwvdGV4dD48L2c+PC9nPjxnIHRyYW5zZm9ybT0idHJhbnNsYXRlKDY4MC45MzM1OTM3NSwgODg4KSIgaWQ9ImZsb3djaGFydC1HMy05NjkiIGNsYXNzPSJub2RlIGRlZmF1bHQgZGVmYXVsdCI+PHJlY3QgaGVpZ2h0PSIzNCIgd2lkdGg9IjE0NS41MDc4MTI1IiB5PSItMTciIHg9Ii03Mi43NTM5MDYyNSIgcnk9IjAiIHJ4PSIwIiBzdHlsZT0iIiBjbGFzcz0iYmFzaWMgbGFiZWwtY29udGFpbmVyIj48L3JlY3Q+PGcgdHJhbnNmb3JtPSJ0cmFuc2xhdGUoLTY1LjI1MzkwNjI1LCAtOS41KSIgc3R5bGU9IiIgY2xhc3M9ImxhYmVsIj48dGV4dCBzdHlsZT0iIj48dHNwYW4gY2xhc3M9InJvdyIgeD0iMCIgZHk9IjFlbSIgeG1sOnNwYWNlPSJwcmVzZXJ2ZSI+VXBkYXRlIGFzIE5lZWRlZDwvdHNwYW4+PC90ZXh0PjwvZz48L2c+PGcgdHJhbnNmb3JtPSJ0cmFuc2xhdGUoNDI1LjI2NTYyNSwgNzc5KSIgaWQ9ImZsb3djaGFydC1HLTkyNCIgY2xhc3M9Im5vZGUgZGVmYXVsdCBkZWZhdWx0Ij48cmVjdCBoZWlnaHQ9IjM0IiB3aWR0aD0iMTM5LjY3OTY4NzUiIHk9Ii0xNyIgeD0iLTY5LjgzOTg0Mzc1IiByeT0iMCIgcng9IjAiIHN0eWxlPSIiIGNsYXNzPSJiYXNpYyBsYWJlbC1jb250YWluZXIiPjwvcmVjdD48ZyB0cmFuc2Zvcm09InRyYW5zbGF0ZSgtNjIuMzM5ODQzNzUsIC05LjUpIiBzdHlsZT0iIiBjbGFzcz0ibGFiZWwiPjx0ZXh0IHN0eWxlPSIiPjx0c3BhbiBjbGFzcz0icm93IiB4PSIwIiBkeT0iMWVtIiB4bWw6c3BhY2U9InByZXNlcnZlIj5EZXBsb3kgdGhlIE1vZGVsPC90c3Bhbj48L3RleHQ+PC9nPjwvZz48ZyB0cmFuc2Zvcm09InRyYW5zbGF0ZSg5NDAuNSwgNzc5KSIgaWQ9ImZsb3djaGFydC1GMS05NTgiIGNsYXNzPSJub2RlIGRlZmF1bHQgZGVmYXVsdCI+PHJlY3QgaGVpZ2h0PSIzNCIgd2lkdGg9IjE5My42MjUiIHk9Ii0xNyIgeD0iLTk2LjgxMjUiIHJ5PSIwIiByeD0iMCIgc3R5bGU9IiIgY2xhc3M9ImJhc2ljIGxhYmVsLWNvbnRhaW5lciI+PC9yZWN0PjxnIHRyYW5zZm9ybT0idHJhbnNsYXRlKC04OS4zMTI1LCAtOS41KSIgc3R5bGU9IiIgY2xhc3M9ImxhYmVsIj48dGV4dCBzdHlsZT0iIj48dHNwYW4gY2xhc3M9InJvdyIgeD0iMCIgZHk9IjFlbSIgeG1sOnNwYWNlPSJwcmVzZXJ2ZSI+VHdlYWsgTW9kZWwgUGFyYW1ldGVyczwvdHNwYW4+PC90ZXh0PjwvZz48L2c+PGcgdHJhbnNmb3JtPSJ0cmFuc2xhdGUoMTE4NS43MzgyODEyNSwgNzc5KSIgaWQ9ImZsb3djaGFydC1GMi05NTkiIGNsYXNzPSJub2RlIGRlZmF1bHQgZGVmYXVsdCI+PHJlY3QgaGVpZ2h0PSIzNCIgd2lkdGg9IjE5Ni44NTE1NjI1IiB5PSItMTciIHg9Ii05OC40MjU3ODEyNSIgcnk9IjAiIHJ4PSIwIiBzdHlsZT0iIiBjbGFzcz0iYmFzaWMgbGFiZWwtY29udGFpbmVyIj48L3JlY3Q+PGcgdHJhbnNmb3JtPSJ0cmFuc2xhdGUoLTkwLjkyNTc4MTI1LCAtOS41KSIgc3R5bGU9IiIgY2xhc3M9ImxhYmVsIj48dGV4dCBzdHlsZT0iIj48dHNwYW4gY2xhc3M9InJvdyIgeD0iMCIgZHk9IjFlbSIgeG1sOnNwYWNlPSJwcmVzZXJ2ZSI+UmV0cmFpbiB3aXRoIEFkanVzdG1lbnRzPC90c3Bhbj48L3RleHQ+PC9nPjwvZz48ZyB0cmFuc2Zvcm09InRyYW5zbGF0ZSgxNDM3LjQ2MDkzNzUsIDc3OSkiIGlkPSJmbG93Y2hhcnQtRjMtOTYwIiBjbGFzcz0ibm9kZSBkZWZhdWx0IGRlZmF1bHQiPjxyZWN0IGhlaWdodD0iMzQiIHdpZHRoPSIyMDYuNTkzNzUiIHk9Ii0xNyIgeD0iLTEwMy4yOTY4NzUiIHJ5PSIwIiByeD0iMCIgc3R5bGU9IiIgY2xhc3M9ImJhc2ljIGxhYmVsLWNvbnRhaW5lciI+PC9yZWN0PjxnIHRyYW5zZm9ybT0idHJhbnNsYXRlKC05NS43OTY4NzUsIC05LjUpIiBzdHlsZT0iIiBjbGFzcz0ibGFiZWwiPjx0ZXh0IHN0eWxlPSIiPjx0c3BhbiBjbGFzcz0icm93IiB4PSIwIiBkeT0iMWVtIiB4bWw6c3BhY2U9InByZXNlcnZlIj5JdGVyYXRlIEJhc2VkIG9uIEZlZWRiYWNrPC90c3Bhbj48L3RleHQ+PC9nPjwvZz48ZyB0cmFuc2Zvcm09InRyYW5zbGF0ZSgxMDYzLjExOTE0MDYyNSwgNjQ1KSIgaWQ9ImZsb3djaGFydC1GLTkyMiIgY2xhc3M9Im5vZGUgZGVmYXVsdCBkZWZhdWx0Ij48cmVjdCBoZWlnaHQ9IjM0IiB3aWR0aD0iMTQ5LjA0Njg3NSIgeT0iLTE3IiB4PSItNzQuNTIzNDM3NSIgcnk9IjAiIHJ4PSIwIiBzdHlsZT0iIiBjbGFzcz0iYmFzaWMgbGFiZWwtY29udGFpbmVyIj48L3JlY3Q+PGcgdHJhbnNmb3JtPSJ0cmFuc2xhdGUoLTY3LjAyMzQzNzUsIC05LjUpIiBzdHlsZT0iIiBjbGFzcz0ibGFiZWwiPjx0ZXh0IHN0eWxlPSIiPjx0c3BhbiBjbGFzcz0icm93IiB4PSIwIiBkeT0iMWVtIiB4bWw6c3BhY2U9InByZXNlcnZlIj5JbXByb3ZlIHRoZSBNb2RlbDwvdHNwYW4+PC90ZXh0PjwvZz48L2c+PGcgdHJhbnNmb3JtPSJ0cmFuc2xhdGUoMTczNy41LCA2NDUpIiBpZD0iZmxvd2NoYXJ0LUUxLTk0OSIgY2xhc3M9Im5vZGUgZGVmYXVsdCBkZWZhdWx0Ij48cmVjdCBoZWlnaHQ9IjM0IiB3aWR0aD0iMjEzLjQ4NDM3NSIgeT0iLTE3IiB4PSItMTA2Ljc0MjE4NzUiIHJ5PSIwIiByeD0iMCIgc3R5bGU9IiIgY2xhc3M9ImJhc2ljIGxhYmVsLWNvbnRhaW5lciI+PC9yZWN0PjxnIHRyYW5zZm9ybT0idHJhbnNsYXRlKC05OS4yNDIxODc1LCAtOS41KSIgc3R5bGU9IiIgY2xhc3M9ImxhYmVsIj48dGV4dCBzdHlsZT0iIj48dHNwYW4gY2xhc3M9InJvdyIgeD0iMCIgZHk9IjFlbSIgeG1sOnNwYWNlPSJwcmVzZXJ2ZSI+RXZhbHVhdGUgb24gVmFsaWRhdGlvbiBEYXRhPC90c3Bhbj48L3RleHQ+PC9nPjwvZz48ZyB0cmFuc2Zvcm09InRyYW5zbGF0ZSgyMDI5LjIxMDkzNzUsIDY0NSkiIGlkPSJmbG93Y2hhcnQtRTItOTUwIiBjbGFzcz0ibm9kZSBkZWZhdWx0IGRlZmF1bHQiPjxyZWN0IGhlaWdodD0iMzQiIHdpZHRoPSIyNjkuOTM3NSIgeT0iLTE3IiB4PSItMTM0Ljk2ODc1IiByeT0iMCIgcng9IjAiIHN0eWxlPSIiIGNsYXNzPSJiYXNpYyBsYWJlbC1jb250YWluZXIiPjwvcmVjdD48ZyB0cmFuc2Zvcm09InRyYW5zbGF0ZSgtMTI3LjQ2ODc1LCAtOS41KSIgc3R5bGU9IiIgY2xhc3M9ImxhYmVsIj48dGV4dCBzdHlsZT0iIj48dHNwYW4gY2xhc3M9InJvdyIgeD0iMCIgZHk9IjFlbSIgeG1sOnNwYWNlPSJwcmVzZXJ2ZSI+TWVhc3VyZSBBY2N1cmFjeSBhbmQgUGVyZm9ybWFuY2U8L3RzcGFuPjwvdGV4dD48L2c+PC9nPjxnIHRyYW5zZm9ybT0idHJhbnNsYXRlKDIyOTIuNzc3MzQzNzUsIDY0NSkiIGlkPSJmbG93Y2hhcnQtRTMtOTUxIiBjbGFzcz0ibm9kZSBkZWZhdWx0IGRlZmF1bHQiPjxyZWN0IGhlaWdodD0iMzQiIHdpZHRoPSIxNTcuMTk1MzEyNSIgeT0iLTE3IiB4PSItNzguNTk3NjU2MjUiIHJ5PSIwIiByeD0iMCIgc3R5bGU9IiIgY2xhc3M9ImJhc2ljIGxhYmVsLWNvbnRhaW5lciI+PC9yZWN0PjxnIHRyYW5zZm9ybT0idHJhbnNsYXRlKC03MS4wOTc2NTYyNSwgLTkuNSkiIHN0eWxlPSIiIGNsYXNzPSJsYWJlbCI+PHRleHQgc3R5bGU9IiI+PHRzcGFuIGNsYXNzPSJyb3ciIHg9IjAiIGR5PSIxZW0iIHhtbDpzcGFjZT0icHJlc2VydmUiPklkZW50aWZ5IFdlYWsgQXJlYXM8L3RzcGFuPjwvdGV4dD48L2c+PC9nPjxnIHRyYW5zZm9ybT0idHJhbnNsYXRlKDE4ODMuMzU1NDY4NzUsIDUxMSkiIGlkPSJmbG93Y2hhcnQtRS05MjAiIGNsYXNzPSJub2RlIGRlZmF1bHQgZGVmYXVsdCI+PHJlY3QgaGVpZ2h0PSIzNCIgd2lkdGg9IjEyMC44NzUiIHk9Ii0xNyIgeD0iLTYwLjQzNzUiIHJ5PSIwIiByeD0iMCIgc3R5bGU9IiIgY2xhc3M9ImJhc2ljIGxhYmVsLWNvbnRhaW5lciI+PC9yZWN0PjxnIHRyYW5zZm9ybT0idHJhbnNsYXRlKC01Mi45Mzc1LCAtOS41KSIgc3R5bGU9IiIgY2xhc3M9ImxhYmVsIj48dGV4dCBzdHlsZT0iIj48dHNwYW4gY2xhc3M9InJvdyIgeD0iMCIgZHk9IjFlbSIgeG1sOnNwYWNlPSJwcmVzZXJ2ZSI+VGVzdCB0aGUgTW9kZWw8L3RzcGFuPjwvdGV4dD48L2c+PC9nPjxnIHRyYW5zZm9ybT0idHJhbnNsYXRlKDI1NTIuNjk5MjE4NzUsIDUxMSkiIGlkPSJmbG93Y2hhcnQtRDEtOTQwIiBjbGFzcz0ibm9kZSBkZWZhdWx0IGRlZmF1bHQiPjxyZWN0IGhlaWdodD0iMzQiIHdpZHRoPSIxODIuNjQ4NDM3NSIgeT0iLTE3IiB4PSItOTEuMzI0MjE4NzUiIHJ5PSIwIiByeD0iMCIgc3R5bGU9IiIgY2xhc3M9ImJhc2ljIGxhYmVsLWNvbnRhaW5lciI+PC9yZWN0PjxnIHRyYW5zZm9ybT0idHJhbnNsYXRlKC04My44MjQyMTg3NSwgLTkuNSkiIHN0eWxlPSIiIGNsYXNzPSJsYWJlbCI+PHRleHQgc3R5bGU9IiI+PHRzcGFuIGNsYXNzPSJyb3ciIHg9IjAiIGR5PSIxZW0iIHhtbDpzcGFjZT0icHJlc2VydmUiPkZlZWQgVG9rZW5zIGludG8gTW9kZWw8L3RzcGFuPjwvdGV4dD48L2c+PC9nPjxnIHRyYW5zZm9ybT0idHJhbnNsYXRlKDI3NzkuMDM1MTU2MjUsIDUxMSkiIGlkPSJmbG93Y2hhcnQtRDItOTQxIiBjbGFzcz0ibm9kZSBkZWZhdWx0IGRlZmF1bHQiPjxyZWN0IGhlaWdodD0iMzQiIHdpZHRoPSIxNzAuMDIzNDM3NSIgeT0iLTE3IiB4PSItODUuMDExNzE4NzUiIHJ5PSIwIiByeD0iMCIgc3R5bGU9IiIgY2xhc3M9ImJhc2ljIGxhYmVsLWNvbnRhaW5lciI+PC9yZWN0PjxnIHRyYW5zZm9ybT0idHJhbnNsYXRlKC03Ny41MTE3MTg3NSwgLTkuNSkiIHN0eWxlPSIiIGNsYXNzPSJsYWJlbCI+PHRleHQgc3R5bGU9IiI+PHRzcGFuIGNsYXNzPSJyb3ciIHg9IjAiIGR5PSIxZW0iIHhtbDpzcGFjZT0icHJlc2VydmUiPkFkanVzdCBNb2RlbCBXZWlnaHRzPC90c3Bhbj48L3RleHQ+PC9nPjwvZz48ZyB0cmFuc2Zvcm09InRyYW5zbGF0ZSgzMDEyLjAzMTI1LCA1MTEpIiBpZD0iZmxvd2NoYXJ0LUQzLTk0MiIgY2xhc3M9Im5vZGUgZGVmYXVsdCBkZWZhdWx0Ij48cmVjdCBoZWlnaHQ9IjM0IiB3aWR0aD0iMTk1Ljk2ODc1IiB5PSItMTciIHg9Ii05Ny45ODQzNzUiIHJ5PSIwIiByeD0iMCIgc3R5bGU9IiIgY2xhc3M9ImJhc2ljIGxhYmVsLWNvbnRhaW5lciI+PC9yZWN0PjxnIHRyYW5zZm9ybT0idHJhbnNsYXRlKC05MC40ODQzNzUsIC05LjUpIiBzdHlsZT0iIiBjbGFzcz0ibGFiZWwiPjx0ZXh0IHN0eWxlPSIiPjx0c3BhbiBjbGFzcz0icm93IiB4PSIwIiBkeT0iMWVtIiB4bWw6c3BhY2U9InByZXNlcnZlIj5Nb25pdG9yIFRyYWluaW5nIFByb2dyZXNzPC90c3Bhbj48L3RleHQ+PC9nPjwvZz48ZyB0cmFuc2Zvcm09InRyYW5zbGF0ZSgyNjY1Ljg2NzE4NzUsIDM3NykiIGlkPSJmbG93Y2hhcnQtRC05MTgiIGNsYXNzPSJub2RlIGRlZmF1bHQgZGVmYXVsdCI+PHJlY3QgaGVpZ2h0PSIzNCIgd2lkdGg9IjEyNy40OTIxODc1IiB5PSItMTciIHg9Ii02My43NDYwOTM3NSIgcnk9IjAiIHJ4PSIwIiBzdHlsZT0iIiBjbGFzcz0iYmFzaWMgbGFiZWwtY29udGFpbmVyIj48L3JlY3Q+PGcgdHJhbnNmb3JtPSJ0cmFuc2xhdGUoLTU2LjI0NjA5Mzc1LCAtOS41KSIgc3R5bGU9IiIgY2xhc3M9ImxhYmVsIj48dGV4dCBzdHlsZT0iIj48dHNwYW4gY2xhc3M9InJvdyIgeD0iMCIgZHk9IjFlbSIgeG1sOnNwYWNlPSJwcmVzZXJ2ZSI+VHJhaW4gdGhlIE1vZGVsPC90c3Bhbj48L3RleHQ+PC9nPjwvZz48ZyB0cmFuc2Zvcm09InRyYW5zbGF0ZSgzMzMxLjkwNjI1LCAzNzcpIiBpZD0iZmxvd2NoYXJ0LUMxLTkzNCIgY2xhc3M9Im5vZGUgZGVmYXVsdCBkZWZhdWx0Ij48cmVjdCBoZWlnaHQ9IjM0IiB3aWR0aD0iMjYzLjc4MTI1IiB5PSItMTciIHg9Ii0xMzEuODkwNjI1IiByeT0iMCIgcng9IjAiIHN0eWxlPSIiIGNsYXNzPSJiYXNpYyBsYWJlbC1jb250YWluZXIiPjwvcmVjdD48ZyB0cmFuc2Zvcm09InRyYW5zbGF0ZSgtMTI0LjM5MDYyNSwgLTkuNSkiIHN0eWxlPSIiIGNsYXNzPSJsYWJlbCI+PHRleHQgc3R5bGU9IiI+PHRzcGFuIGNsYXNzPSJyb3ciIHg9IjAiIGR5PSIxZW0iIHhtbDpzcGFjZT0icHJlc2VydmUiPkJyZWFrIFRleHQgaW50byBXb3JkcyBvciBTdWJ3b3JkczwvdHNwYW4+PC90ZXh0PjwvZz48L2c+PGcgdHJhbnNmb3JtPSJ0cmFuc2xhdGUoMzYzNy4yNjk1MzEyNSwgMzc3KSIgaWQ9ImZsb3djaGFydC1DMi05MzUiIGNsYXNzPSJub2RlIGRlZmF1bHQgZGVmYXVsdCI+PHJlY3QgaGVpZ2h0PSIzNCIgd2lkdGg9IjI0Ni45NDUzMTI1IiB5PSItMTciIHg9Ii0xMjMuNDcyNjU2MjUiIHJ5PSIwIiByeD0iMCIgc3R5bGU9IiIgY2xhc3M9ImJhc2ljIGxhYmVsLWNvbnRhaW5lciI+PC9yZWN0PjxnIHRyYW5zZm9ybT0idHJhbnNsYXRlKC0xMTUuOTcyNjU2MjUsIC05LjUpIiBzdHlsZT0iIiBjbGFzcz0ibGFiZWwiPjx0ZXh0IHN0eWxlPSIiPjx0c3BhbiBjbGFzcz0icm93IiB4PSIwIiBkeT0iMWVtIiB4bWw6c3BhY2U9InByZXNlcnZlIj5Bc3NpZ24gTnVtZXJpYyBWYWx1ZXMgdG8gVG9rZW5zPC90c3Bhbj48L3RleHQ+PC9nPjwvZz48ZyB0cmFuc2Zvcm09InRyYW5zbGF0ZSgzMzMxLjkwNjI1LCAyNDMpIiBpZD0iZmxvd2NoYXJ0LUMtOTE2IiBjbGFzcz0ibm9kZSBkZWZhdWx0IGRlZmF1bHQiPjxyZWN0IGhlaWdodD0iMzQiIHdpZHRoPSIxNzguNjQwNjI1IiB5PSItMTciIHg9Ii04OS4zMjAzMTI1IiByeT0iMCIgcng9IjAiIHN0eWxlPSIiIGNsYXNzPSJiYXNpYyBsYWJlbC1jb250YWluZXIiPjwvcmVjdD48ZyB0cmFuc2Zvcm09InRyYW5zbGF0ZSgtODEuODIwMzEyNSwgLTkuNSkiIHN0eWxlPSIiIGNsYXNzPSJsYWJlbCI+PHRleHQgc3R5bGU9IiI+PHRzcGFuIGNsYXNzPSJyb3ciIHg9IjAiIGR5PSIxZW0iIHhtbDpzcGFjZT0icHJlc2VydmUiPkNvbnZlcnQgVGV4dCB0byBUb2tlbnM8L3RzcGFuPjwvdGV4dD48L2c+PC9nPjxnIHRyYW5zZm9ybT0idHJhbnNsYXRlKDM5NDIuNzQyMTg3NSwgMjQzKSIgaWQ9ImZsb3djaGFydC1CMS05MjUiIGNsYXNzPSJub2RlIGRlZmF1bHQgZGVmYXVsdCI+PHJlY3QgaGVpZ2h0PSIzNCIgd2lkdGg9IjE4My4zNjcxODc1IiB5PSItMTciIHg9Ii05MS42ODM1OTM3NSIgcnk9IjAiIHJ4PSIwIiBzdHlsZT0iIiBjbGFzcz0iYmFzaWMgbGFiZWwtY29udGFpbmVyIj48L3JlY3Q+PGcgdHJhbnNmb3JtPSJ0cmFuc2xhdGUoLTg0LjE4MzU5Mzc1LCAtOS41KSIgc3R5bGU9IiIgY2xhc3M9ImxhYmVsIj48dGV4dCBzdHlsZT0iIj48dHNwYW4gY2xhc3M9InJvdyIgeD0iMCIgZHk9IjFlbSIgeG1sOnNwYWNlPSJwcmVzZXJ2ZSI+UmVtb3ZlIFVud2FudGVkIFRleHQ8L3RzcGFuPjwvdGV4dD48L2c+PC9nPjxnIHRyYW5zZm9ybT0idHJhbnNsYXRlKDQxOTcuODEyNSwgMjQzKSIgaWQ9ImZsb3djaGFydC1CMi05MjYiIGNsYXNzPSJub2RlIGRlZmF1bHQgZGVmYXVsdCI+PHJlY3QgaGVpZ2h0PSIzNCIgd2lkdGg9IjIyNi43NzM0Mzc1IiB5PSItMTciIHg9Ii0xMTMuMzg2NzE4NzUiIHJ5PSIwIiByeD0iMCIgc3R5bGU9IiIgY2xhc3M9ImJhc2ljIGxhYmVsLWNvbnRhaW5lciI+PC9yZWN0PjxnIHRyYW5zZm9ybT0idHJhbnNsYXRlKC0xMDUuODg2NzE4NzUsIC05LjUpIiBzdHlsZT0iIiBjbGFzcz0ibGFiZWwiPjx0ZXh0IHN0eWxlPSIiPjx0c3BhbiBjbGFzcz0icm93IiB4PSIwIiBkeT0iMWVtIiB4bWw6c3BhY2U9InByZXNlcnZlIj5GaXggRXJyb3JzIGFuZCBJbmNvbnNpc3RlbmNpZXM8L3RzcGFuPjwvdGV4dD48L2c+PC9nPjxnIHRyYW5zZm9ybT0idHJhbnNsYXRlKDQ0ODUuNDU3MDMxMjUsIDI0MykiIGlkPSJmbG93Y2hhcnQtQjMtOTI3IiBjbGFzcz0ibm9kZSBkZWZhdWx0IGRlZmF1bHQiPjxyZWN0IGhlaWdodD0iMzQiIHdpZHRoPSIyNDguNTE1NjI1IiB5PSItMTciIHg9Ii0xMjQuMjU3ODEyNSIgcnk9IjAiIHJ4PSIwIiBzdHlsZT0iIiBjbGFzcz0iYmFzaWMgbGFiZWwtY29udGFpbmVyIj48L3JlY3Q+PGcgdHJhbnNmb3JtPSJ0cmFuc2xhdGUoLTExNi43NTc4MTI1LCAtOS41KSIgc3R5bGU9IiIgY2xhc3M9ImxhYmVsIj48dGV4dCBzdHlsZT0iIj48dHNwYW4gY2xhc3M9InJvdyIgeD0iMCIgZHk9IjFlbSIgeG1sOnNwYWNlPSJwcmVzZXJ2ZSI+T3JnYW5pemUgaW50byBTdHJ1Y3R1cmVkIEZvcm1hdDwvdHNwYW4+PC90ZXh0PjwvZz48L2c+PGcgdHJhbnNmb3JtPSJ0cmFuc2xhdGUoNDA3MC4yNzczNDM3NSwgMTM0KSIgaWQ9ImZsb3djaGFydC1CLTkxNCIgY2xhc3M9Im5vZGUgZGVmYXVsdCBkZWZhdWx0Ij48cmVjdCBoZWlnaHQ9IjM0IiB3aWR0aD0iMTg0LjYzMjgxMjUiIHk9Ii0xNyIgeD0iLTkyLjMxNjQwNjI1IiByeT0iMCIgcng9IjAiIHN0eWxlPSIiIGNsYXNzPSJiYXNpYyBsYWJlbC1jb250YWluZXIiPjwvcmVjdD48ZyB0cmFuc2Zvcm09InRyYW5zbGF0ZSgtODQuODE2NDA2MjUsIC05LjUpIiBzdHlsZT0iIiBjbGFzcz0ibGFiZWwiPjx0ZXh0IHN0eWxlPSIiPjx0c3BhbiBjbGFzcz0icm93IiB4PSIwIiBkeT0iMWVtIiB4bWw6c3BhY2U9InByZXNlcnZlIj5DbGVhbiBhbmQgUHJlcGFyZSBEYXRhPC90c3Bhbj48L3RleHQ+PC9nPjwvZz48ZyB0cmFuc2Zvcm09InRyYW5zbGF0ZSg0MDcwLjI3NzM0Mzc1LCAyNSkiIGlkPSJmbG93Y2hhcnQtQS05MTMiIGNsYXNzPSJub2RlIGRlZmF1bHQgZGVmYXVsdCI+PHJlY3QgaGVpZ2h0PSIzNCIgd2lkdGg9IjEzOC44ODI4MTI1IiB5PSItMTciIHg9Ii02OS40NDE0MDYyNSIgcnk9IjAiIHJ4PSIwIiBzdHlsZT0iIiBjbGFzcz0iYmFzaWMgbGFiZWwtY29udGFpbmVyIj48L3JlY3Q+PGcgdHJhbnNmb3JtPSJ0cmFuc2xhdGUoLTYxLjk0MTQwNjI1LCAtOS41KSIgc3R5bGU9IiIgY2xhc3M9ImxhYmVsIj48dGV4dCBzdHlsZT0iIj48dHNwYW4gY2xhc3M9InJvdyIgeD0iMCIgZHk9IjFlbSIgeG1sOnNwYWNlPSJwcmVzZXJ2ZSI+Q29sbGVjdCBUZXh0IERhdGE8L3RzcGFuPjwvdGV4dD48L2c+PC9nPjxnIHRyYW5zZm9ybT0idHJhbnNsYXRlKDQyMTMuMjc3MzQzNzUsIDI1KSIgaWQ9ImZsb3djaGFydC1kZXNjLTk3NiIgY2xhc3M9Im5vZGUgZGVmYXVsdCBkZWZhdWx0Ij48cmVjdCBoZWlnaHQ9IjM0IiB3aWR0aD0iNDcuMTE3MTg3NSIgeT0iLTE3IiB4PSItMjMuNTU4NTkzNzUiIHJ5PSIwIiByeD0iMCIgc3R5bGU9ImZpbGw6I2ZmZjtzdHJva2U6bm9uZTsiIGNsYXNzPSJiYXNpYyBsYWJlbC1jb250YWluZXIiPjwvcmVjdD48ZyB0cmFuc2Zvcm09InRyYW5zbGF0ZSgtMTYuMDU4NTkzNzUsIC05LjUpIiBzdHlsZT0iIiBjbGFzcz0ibGFiZWwiPjx0ZXh0IHN0eWxlPSIiPjx0c3BhbiBjbGFzcz0icm93IiB4PSIwIiBkeT0iMWVtIiB4bWw6c3BhY2U9InByZXNlcnZlIj5kZXNjPC90c3Bhbj48L3RleHQ+PC9nPjwvZz48L2c+PC9nPjwvZz48L3N2Zz4=;" vertex="1" parent="1">
                        <mxGeometry x="380" y="-400" width="100" height="938" as="geometry"/>
                    </mxCell>
                </UserObject>
            </root>
        </mxGraphModel>
    </diagram>
</mxfile>